{"glyphs":{"0":{"ha":963,"x_min":83,"x_max":879,"o":"m 83 500 q 134 761 83 643 q 279 948 185 879 q 499 1017 374 1017 q 706 953 621 1017 q 835 778 792 889 q 879 528 879 667 q 830 253 879 378 q 686 54 781 128 q 464 -19 592 -19 q 244 56 329 -19 q 121 249 158 131 q 83 500 83 367 m 231 497 q 294 183 231 306 q 481 60 358 60 q 617 117 561 60 q 702 274 674 175 q 731 497 731 374 q 702 721 731 621 q 617 879 674 821 q 481 938 561 938 q 294 814 358 938 q 231 497 231 690 z "},"1":{"ha":581,"x_min":0,"x_max":485,"o":"m 404 279 q 418 144 404 196 q 467 47 432 93 l 485 22 l 467 0 l 135 0 l 118 47 l 178 63 q 233 84 215 72 q 259 119 251 96 q 267 185 267 142 l 267 854 l 96 746 q 41 779 67 751 q 0 840 15 807 l 385 1019 q 440 968 418 1011 l 404 944 l 404 279 z "},"2":{"ha":828,"x_min":51,"x_max":772,"o":"m 51 71 q 389 374 274 253 q 545 581 504 494 q 586 758 586 667 q 533 892 586 844 q 406 939 479 939 q 276 892 331 939 q 221 763 221 846 q 230 705 221 728 q 251 665 239 682 q 263 643 263 647 q 256 629 263 632 q 233 626 250 626 q 127 667 169 626 q 85 774 85 708 q 130 906 85 851 q 249 989 175 961 q 407 1017 322 1017 q 654 949 563 1017 q 746 757 746 881 q 614 470 746 622 q 246 126 482 318 l 772 126 q 761 54 772 89 q 725 0 750 19 l 89 0 l 51 71 z "},"3":{"ha":828,"x_min":79,"x_max":751,"o":"m 401 -19 q 243 6 317 -19 q 124 83 169 32 q 79 206 79 133 q 122 312 79 271 q 228 353 164 353 q 251 350 244 353 q 257 336 257 347 q 245 314 257 332 q 224 272 233 296 q 215 217 215 249 q 269 108 215 149 q 397 68 324 68 q 540 119 479 68 q 600 264 600 169 q 549 409 600 344 q 363 474 499 474 q 286 467 315 474 q 250 460 257 460 q 231 485 231 460 q 243 512 231 503 q 307 531 256 521 q 518 625 465 560 q 571 768 571 690 q 519 895 571 850 q 396 940 467 940 q 287 902 332 940 q 242 796 242 864 q 251 738 242 761 q 272 698 260 715 q 283 676 283 681 q 254 660 283 660 q 148 701 190 660 q 106 807 106 742 q 147 922 106 874 q 254 993 188 969 q 399 1017 321 1017 q 555 990 481 1017 q 676 908 629 963 q 722 776 722 853 q 517 522 722 600 q 691 425 631 497 q 751 256 751 353 q 657 53 751 125 q 401 -19 563 -19 z "},"4":{"ha":844,"x_min":42,"x_max":803,"o":"m 675 225 q 692 127 678 168 q 736 47 707 86 l 754 22 l 736 0 l 404 0 l 388 47 l 447 63 q 503 84 485 72 q 528 118 521 96 q 535 185 535 140 l 535 225 l 42 225 l 364 997 l 451 997 l 478 975 l 178 313 l 535 313 l 535 501 q 528 572 535 546 q 504 628 522 599 l 521 649 l 674 665 l 674 313 l 803 313 q 771 225 803 250 l 675 225 z "},"5":{"ha":828,"x_min":79,"x_max":751,"o":"m 600 268 q 539 431 600 360 q 311 501 478 501 q 165 483 253 501 l 136 535 l 161 997 l 701 997 q 690 925 701 960 q 654 871 679 890 l 246 871 l 229 558 q 400 578 317 578 q 597 535 518 578 q 714 422 676 492 q 751 268 751 351 q 708 115 751 181 q 586 15 665 50 q 401 -19 507 -19 q 243 6 317 -19 q 124 83 169 32 q 79 206 79 133 q 122 312 79 271 q 228 353 164 353 q 251 350 244 353 q 257 336 257 347 q 245 314 257 332 q 224 272 233 296 q 215 217 215 249 q 269 108 215 149 q 397 68 324 68 q 496 91 450 68 q 571 159 542 114 q 600 268 600 204 z "},"6":{"ha":897,"x_min":81,"x_max":797,"o":"m 500 938 q 344 865 404 938 q 257 683 283 793 q 231 453 231 574 q 232 388 231 408 q 332 529 260 476 q 515 582 404 582 q 725 503 653 582 q 797 303 797 425 q 760 140 797 213 q 647 24 722 67 q 465 -19 572 -19 q 255 44 342 -19 q 124 217 168 108 q 81 456 81 325 q 128 740 81 613 q 272 942 176 867 q 504 1017 367 1017 q 646 993 583 1017 q 744 926 708 969 q 779 829 779 883 q 737 713 779 758 q 631 667 694 667 q 601 683 601 667 q 614 706 601 688 q 635 747 626 725 q 643 797 643 768 q 604 900 643 863 q 500 938 565 938 m 465 488 q 332 424 379 488 q 285 271 285 361 q 324 124 285 181 q 446 68 364 68 q 581 127 533 68 q 629 282 629 186 q 588 430 629 372 q 465 488 547 488 z "},"7":{"ha":689,"x_min":3,"x_max":676,"o":"m 393 278 q 361 132 361 194 q 381 47 361 85 l 393 22 l 367 0 l 111 0 l 94 47 l 126 56 q 211 100 182 71 q 265 193 240 129 l 529 871 l 50 871 q 14 925 25 890 q 3 997 3 960 l 676 997 l 393 278 z "},"8":{"ha":856,"x_min":75,"x_max":781,"o":"m 756 765 q 708 626 756 688 q 585 518 660 564 q 733 401 685 467 q 781 249 781 335 q 737 106 781 168 q 611 10 693 44 q 417 -24 529 -24 q 169 38 264 -24 q 75 231 75 100 q 260 492 75 381 q 140 594 179 536 q 100 739 100 653 q 135 877 100 813 q 242 981 169 942 q 418 1021 314 1021 q 662 958 568 1021 q 756 765 756 896 m 418 943 q 327 920 367 943 q 265 860 288 897 q 243 781 243 822 q 284 680 243 724 q 426 592 325 636 l 513 553 q 582 660 558 606 q 606 767 606 715 q 556 894 606 844 q 418 943 506 943 m 326 460 q 249 347 275 406 q 222 235 222 289 q 274 104 222 154 q 418 54 326 54 q 569 97 511 54 q 628 213 628 139 q 593 319 628 281 q 475 394 558 358 l 326 460 z "},"9":{"ha":897,"x_min":107,"x_max":797,"o":"m 446 1017 q 710 865 624 1017 q 797 472 797 713 q 754 221 797 332 q 623 45 711 110 q 406 -19 535 -19 q 263 6 326 -19 q 165 75 200 31 q 129 175 129 119 q 168 267 129 232 q 268 301 207 301 q 299 285 299 301 q 288 263 299 281 q 271 227 278 246 q 264 183 264 208 q 303 93 264 126 q 404 60 342 60 q 592 178 533 60 q 650 468 650 296 q 649 543 650 519 q 542 426 613 469 q 378 383 472 383 q 231 424 292 383 q 138 531 169 464 q 107 674 107 597 q 146 840 107 761 q 261 967 185 918 q 446 1017 338 1017 m 442 483 q 581 548 532 483 q 631 703 631 613 q 585 860 631 793 q 457 926 539 926 q 322 860 369 926 q 274 704 274 794 q 318 549 274 614 q 442 483 363 483 z "},"\u0000":{"ha":0,"x_min":0,"x_max":0,"o":""},"\r":{"ha":382,"x_min":0,"x_max":0,"o":""}," ":{"ha":382,"x_min":0,"x_max":0,"o":""},"A":{"ha":981,"x_min":-22,"x_max":965,"o":"m 618 47 l 650 56 q 698 78 683 64 q 713 117 713 92 q 697 185 713 139 l 631 379 l 310 379 l 276 278 q 244 132 244 182 q 264 47 244 85 l 276 22 l 250 0 l -6 0 l -22 47 l 10 56 q 90 96 65 71 q 138 185 115 121 l 356 813 q 371 881 371 858 q 356 919 371 906 q 308 942 342 933 l 276 950 l 293 997 l 561 997 l 840 192 q 889 94 863 128 q 965 22 915 61 l 947 0 l 635 0 l 618 47 m 339 465 l 601 465 l 468 854 l 339 465 z "},"Á":{"ha":981,"x_min":-22,"x_max":965,"o":"m 618 47 l 650 56 q 698 78 683 64 q 713 117 713 92 q 697 185 713 139 l 631 379 l 310 379 l 276 278 q 244 132 244 182 q 264 47 244 85 l 276 22 l 250 0 l -6 0 l -22 47 l 10 56 q 90 96 65 71 q 138 185 115 121 l 356 813 q 371 881 371 858 q 356 919 371 906 q 308 942 342 933 l 276 950 l 293 997 l 561 997 l 840 192 q 889 94 863 128 q 965 22 915 61 l 947 0 l 635 0 l 618 47 m 339 465 l 601 465 l 468 854 l 339 465 m 569 1363 q 612 1327 596 1350 q 628 1275 628 1304 q 610 1220 628 1244 q 550 1175 592 1196 l 393 1097 l 353 1146 l 569 1363 z "},"Â":{"ha":981,"x_min":-22,"x_max":965,"o":"m 618 47 l 650 56 q 698 78 683 64 q 713 117 713 92 q 697 185 713 139 l 631 379 l 310 379 l 276 278 q 244 132 244 182 q 264 47 244 85 l 276 22 l 250 0 l -6 0 l -22 47 l 10 56 q 90 96 65 71 q 138 185 115 121 l 356 813 q 371 881 371 858 q 356 919 371 906 q 308 942 342 933 l 276 950 l 293 997 l 561 997 l 840 192 q 889 94 863 128 q 965 22 915 61 l 947 0 l 635 0 l 618 47 m 339 465 l 601 465 l 468 854 l 339 465 m 510 1356 q 586 1276 535 1340 q 681 1136 638 1213 l 636 1097 l 490 1213 l 346 1097 l 300 1136 q 394 1276 344 1214 q 472 1356 444 1339 l 510 1356 z "},"Ä":{"ha":981,"x_min":-22,"x_max":965,"o":"m 618 47 l 650 56 q 698 78 683 64 q 713 117 713 92 q 697 185 713 139 l 631 379 l 310 379 l 276 278 q 244 132 244 182 q 264 47 244 85 l 276 22 l 250 0 l -6 0 l -22 47 l 10 56 q 90 96 65 71 q 138 185 115 121 l 356 813 q 371 881 371 858 q 356 919 371 906 q 308 942 342 933 l 276 950 l 293 997 l 561 997 l 840 192 q 889 94 863 128 q 965 22 915 61 l 947 0 l 635 0 l 618 47 m 339 465 l 601 465 l 468 854 l 339 465 m 272 1221 q 302 1280 272 1247 q 357 1313 332 1313 q 414 1281 383 1313 q 444 1221 444 1249 q 414 1163 444 1194 q 357 1131 383 1131 q 303 1163 333 1131 q 272 1221 272 1194 m 535 1221 q 565 1280 535 1247 q 619 1313 594 1313 q 676 1281 646 1313 q 707 1221 707 1249 q 676 1163 707 1194 q 619 1131 646 1131 q 565 1163 596 1131 q 535 1221 535 1194 z "},"À":{"ha":981,"x_min":-22,"x_max":965,"o":"m 618 47 l 650 56 q 698 78 683 64 q 713 117 713 92 q 697 185 713 139 l 631 379 l 310 379 l 276 278 q 244 132 244 182 q 264 47 244 85 l 276 22 l 250 0 l -6 0 l -22 47 l 10 56 q 90 96 65 71 q 138 185 115 121 l 356 813 q 371 881 371 858 q 356 919 371 906 q 308 942 342 933 l 276 950 l 293 997 l 561 997 l 840 192 q 889 94 863 128 q 965 22 915 61 l 947 0 l 635 0 l 618 47 m 339 465 l 601 465 l 468 854 l 339 465 m 588 1097 l 431 1175 q 371 1220 389 1196 q 353 1275 353 1244 q 369 1327 353 1304 q 411 1363 385 1350 l 628 1146 l 588 1097 z "},"Å":{"ha":981,"x_min":-22,"x_max":965,"o":"m 618 47 l 650 56 q 698 78 683 64 q 713 117 713 92 q 697 185 713 139 l 631 379 l 310 379 l 276 278 q 244 132 244 182 q 264 47 244 85 l 276 22 l 250 0 l -6 0 l -22 47 l 10 56 q 90 96 65 71 q 138 185 115 121 l 356 813 q 371 881 371 858 q 356 919 371 906 q 308 942 342 933 l 276 950 l 293 997 l 561 997 l 840 192 q 889 94 863 128 q 965 22 915 61 l 947 0 l 635 0 l 618 47 m 339 465 l 601 465 l 468 854 l 339 465 m 332 1221 q 372 1328 332 1286 q 488 1369 413 1369 q 606 1328 565 1369 q 647 1221 647 1286 q 606 1115 647 1156 q 488 1074 565 1074 q 372 1115 413 1074 q 332 1221 332 1156 m 429 1221 q 444 1163 429 1186 q 488 1140 460 1140 q 533 1163 517 1140 q 549 1221 549 1186 q 533 1278 549 1256 q 488 1301 517 1301 q 444 1278 460 1301 q 429 1221 429 1256 z "},"Ã":{"ha":981,"x_min":-22,"x_max":965,"o":"m 618 47 l 650 56 q 698 78 683 64 q 713 117 713 92 q 697 185 713 139 l 631 379 l 310 379 l 276 278 q 244 132 244 182 q 264 47 244 85 l 276 22 l 250 0 l -6 0 l -22 47 l 10 56 q 90 96 65 71 q 138 185 115 121 l 356 813 q 371 881 371 858 q 356 919 371 906 q 308 942 342 933 l 276 950 l 293 997 l 561 997 l 840 192 q 889 94 863 128 q 965 22 915 61 l 947 0 l 635 0 l 618 47 m 339 465 l 601 465 l 468 854 l 339 465 m 714 1268 q 622 1169 669 1206 q 536 1133 575 1133 q 496 1141 514 1133 q 458 1161 478 1149 q 429 1177 440 1172 q 404 1182 418 1182 q 311 1128 365 1182 l 263 1171 q 355 1269 308 1233 q 442 1306 401 1306 q 478 1299 463 1306 q 517 1279 494 1292 q 547 1263 536 1268 q 572 1257 558 1257 q 667 1311 611 1257 l 714 1268 z "},"Æ":{"ha":1339,"x_min":-19,"x_max":1251,"o":"m 806 185 q 813 118 806 140 q 838 88 819 96 q 894 79 857 79 l 1044 79 q 1122 90 1094 79 q 1166 126 1150 100 q 1196 203 1182 151 l 1204 235 l 1251 218 l 1251 -19 l 1224 -35 l 1213 -19 q 1154 0 1197 0 l 569 0 l 554 44 l 583 53 q 651 92 635 68 q 668 175 668 115 l 668 425 l 393 425 l 278 214 q 253 158 258 179 q 249 110 249 136 q 267 47 249 88 l 279 22 l 253 0 l -3 0 l -19 47 l 13 56 q 76 81 51 67 q 121 131 101 96 l 604 997 l 1031 997 q 1189 1026 1150 997 l 1214 1044 l 1236 1026 l 1236 779 l 1189 763 l 1181 794 q 1151 872 1167 846 q 1107 908 1135 897 q 1029 918 1079 918 l 894 918 q 838 910 857 918 q 813 879 819 901 q 806 813 806 857 l 806 504 l 982 504 q 1041 519 1015 504 q 1092 568 1067 533 l 1103 583 l 1131 568 l 1131 331 l 1083 314 l 1075 346 q 1031 409 1063 393 q 924 425 1000 425 l 806 425 l 806 185 m 668 504 l 668 924 l 438 504 l 668 504 z "},"B":{"ha":904,"x_min":56,"x_max":828,"o":"m 776 743 q 740 603 776 665 q 631 506 703 540 q 776 413 724 475 q 828 274 828 350 q 742 74 828 147 q 467 0 656 0 l 79 0 l 63 47 l 94 56 q 165 96 147 71 q 183 185 183 121 l 183 871 q 176 897 183 889 q 153 904 169 904 l 72 904 l 56 956 q 213 998 115 979 q 400 1017 310 1017 q 683 940 590 1017 q 776 743 776 864 m 321 254 q 367 106 321 140 q 475 72 413 72 q 628 130 572 72 q 683 281 683 188 q 656 377 683 333 q 579 447 629 421 q 463 474 529 474 q 413 479 439 474 q 372 492 388 485 q 351 522 351 501 q 371 547 351 547 q 394 542 376 547 q 440 538 411 538 q 587 593 535 538 q 639 740 639 649 q 580 883 639 828 q 414 939 521 939 q 321 875 321 939 l 321 254 z "},"C":{"ha":857,"x_min":49,"x_max":821,"o":"m 497 1017 q 659 991 588 1017 q 770 919 731 965 q 810 813 810 872 q 767 696 810 742 q 661 650 725 650 q 632 667 632 650 q 644 690 632 671 q 665 734 656 710 q 674 793 674 758 q 625 899 674 858 q 497 939 576 939 q 329 875 394 939 q 235 711 264 811 q 206 497 206 611 q 242 285 206 381 q 347 133 279 189 q 506 76 415 76 q 660 109 594 76 q 767 201 725 142 q 776 207 771 207 q 805 194 789 207 q 821 168 821 181 q 817 157 821 164 q 493 -19 697 -19 q 249 49 349 -19 q 99 234 149 117 q 49 497 49 351 q 99 762 49 644 q 249 948 149 879 q 497 1017 350 1017 z "},"Ç":{"ha":857,"x_min":49,"x_max":821,"o":"m 776 207 q 805 194 789 207 q 821 168 821 181 q 817 157 821 164 q 493 -19 697 -19 q 453 -18 467 -19 l 392 -97 q 444 -92 415 -92 q 556 -132 511 -92 q 601 -249 601 -172 q 576 -329 601 -292 q 508 -388 551 -367 q 413 -410 465 -410 q 306 -381 351 -410 q 261 -303 261 -353 q 287 -244 261 -267 q 350 -222 313 -222 q 367 -226 361 -222 q 374 -236 374 -231 q 364 -256 374 -240 q 354 -297 354 -271 q 371 -336 354 -321 q 411 -351 388 -351 q 475 -320 451 -351 q 499 -246 499 -289 q 474 -174 499 -204 q 406 -143 450 -143 q 329 -167 368 -143 l 301 -142 l 401 -11 q 139 158 229 19 q 49 497 49 297 q 99 762 49 644 q 249 948 149 879 q 497 1017 350 1017 q 659 991 588 1017 q 770 919 731 965 q 810 813 810 872 q 767 696 810 742 q 661 650 725 650 q 632 667 632 650 q 644 690 632 671 q 665 734 656 710 q 674 793 674 758 q 625 899 674 858 q 497 939 576 939 q 329 875 394 939 q 235 711 264 811 q 206 497 206 611 q 242 285 206 381 q 347 133 279 189 q 506 76 415 76 q 660 109 594 76 q 767 201 725 142 q 776 207 771 207 z "},"D":{"ha":1018,"x_min":49,"x_max":969,"o":"m 56 47 l 88 56 q 154 92 132 68 q 176 169 176 117 l 176 871 q 169 897 176 889 q 146 904 163 904 l 65 904 l 49 956 q 221 998 115 979 q 425 1017 326 1017 q 842 873 715 1017 q 969 497 969 729 q 917 243 969 356 q 762 65 865 131 q 508 0 658 0 l 72 0 l 56 47 m 314 243 q 355 108 314 144 q 464 71 396 71 q 818 500 818 71 q 778 717 818 617 q 655 878 738 817 q 450 939 572 939 q 314 875 314 939 l 314 243 z "},"Ð":{"ha":1018,"x_min":14,"x_max":969,"o":"m 425 1017 q 842 873 715 1017 q 969 497 969 729 q 917 243 969 356 q 762 65 865 131 q 508 0 658 0 l 72 0 l 56 47 l 88 56 q 154 92 132 68 q 176 169 176 117 l 176 461 l 14 461 q 46 549 14 525 l 176 549 l 176 871 q 169 897 176 889 q 146 904 163 904 l 65 904 l 49 956 q 221 998 115 979 q 425 1017 326 1017 m 464 71 q 818 500 818 71 q 778 717 818 617 q 655 878 738 817 q 450 939 572 939 q 314 875 314 939 l 314 549 l 585 549 q 553 461 585 486 l 314 461 l 314 243 q 355 108 314 144 q 464 71 396 71 z "},"E":{"ha":847,"x_min":63,"x_max":760,"o":"m 314 185 q 321 118 314 140 q 347 88 328 96 q 403 79 365 79 l 553 79 q 631 90 603 79 q 674 126 658 100 q 704 203 690 151 l 713 235 l 760 218 l 760 -19 l 732 -35 l 721 -19 q 663 0 706 0 l 78 0 l 63 44 l 92 53 q 160 92 143 68 q 176 175 176 115 l 176 718 q 163 853 176 801 q 114 950 149 904 l 96 975 l 114 997 l 539 997 q 697 1026 658 997 l 722 1044 l 744 1026 l 744 779 l 697 763 l 689 794 q 659 872 675 846 q 615 908 643 897 q 538 918 588 918 l 403 918 q 347 910 365 918 q 321 879 328 901 q 314 813 314 857 l 314 546 l 490 546 q 549 560 524 546 q 600 610 575 575 l 611 625 l 639 610 l 639 372 l 592 356 l 583 388 q 540 451 571 435 q 432 467 508 467 l 314 467 l 314 185 z "},"É":{"ha":847,"x_min":63,"x_max":760,"o":"m 314 185 q 321 118 314 140 q 347 88 328 96 q 403 79 365 79 l 553 79 q 631 90 603 79 q 674 126 658 100 q 704 203 690 151 l 713 235 l 760 218 l 760 -19 l 732 -35 l 721 -19 q 663 0 706 0 l 78 0 l 63 44 l 92 53 q 160 92 143 68 q 176 175 176 115 l 176 718 q 163 853 176 801 q 114 950 149 904 l 96 975 l 114 997 l 539 997 q 697 1026 658 997 l 722 1044 l 744 1026 l 744 779 l 697 763 l 689 794 q 659 872 675 846 q 615 908 643 897 q 538 918 588 918 l 403 918 q 347 910 365 918 q 321 879 328 901 q 314 813 314 857 l 314 546 l 490 546 q 549 560 524 546 q 600 610 575 575 l 611 625 l 639 610 l 639 372 l 592 356 l 583 388 q 540 451 571 435 q 432 467 508 467 l 314 467 l 314 185 m 550 1363 q 592 1327 576 1350 q 608 1275 608 1304 q 590 1220 608 1244 q 531 1175 572 1196 l 374 1097 l 333 1146 l 550 1363 z "},"Ê":{"ha":847,"x_min":63,"x_max":760,"o":"m 314 185 q 321 118 314 140 q 347 88 328 96 q 403 79 365 79 l 553 79 q 631 90 603 79 q 674 126 658 100 q 704 203 690 151 l 713 235 l 760 218 l 760 -19 l 732 -35 l 721 -19 q 663 0 706 0 l 78 0 l 63 44 l 92 53 q 160 92 143 68 q 176 175 176 115 l 176 718 q 163 853 176 801 q 114 950 149 904 l 96 975 l 114 997 l 539 997 q 697 1026 658 997 l 722 1044 l 744 1026 l 744 779 l 697 763 l 689 794 q 659 872 675 846 q 615 908 643 897 q 538 918 588 918 l 403 918 q 347 910 365 918 q 321 879 328 901 q 314 813 314 857 l 314 546 l 490 546 q 549 560 524 546 q 600 610 575 575 l 611 625 l 639 610 l 639 372 l 592 356 l 583 388 q 540 451 571 435 q 432 467 508 467 l 314 467 l 314 185 m 463 1356 q 539 1276 488 1340 q 633 1136 590 1213 l 589 1097 l 443 1213 l 299 1097 l 253 1136 q 347 1276 297 1214 q 425 1356 397 1339 l 463 1356 z "},"Ë":{"ha":847,"x_min":63,"x_max":760,"o":"m 314 185 q 321 118 314 140 q 347 88 328 96 q 403 79 365 79 l 553 79 q 631 90 603 79 q 674 126 658 100 q 704 203 690 151 l 713 235 l 760 218 l 760 -19 l 732 -35 l 721 -19 q 663 0 706 0 l 78 0 l 63 44 l 92 53 q 160 92 143 68 q 176 175 176 115 l 176 718 q 163 853 176 801 q 114 950 149 904 l 96 975 l 114 997 l 539 997 q 697 1026 658 997 l 722 1044 l 744 1026 l 744 779 l 697 763 l 689 794 q 659 872 675 846 q 615 908 643 897 q 538 918 588 918 l 403 918 q 347 910 365 918 q 321 879 328 901 q 314 813 314 857 l 314 546 l 490 546 q 549 560 524 546 q 600 610 575 575 l 611 625 l 639 610 l 639 372 l 592 356 l 583 388 q 540 451 571 435 q 432 467 508 467 l 314 467 l 314 185 m 225 1221 q 255 1280 225 1247 q 310 1313 285 1313 q 367 1281 336 1313 q 397 1221 397 1249 q 367 1163 397 1194 q 310 1131 336 1131 q 256 1163 286 1131 q 225 1221 225 1194 m 488 1221 q 517 1280 488 1247 q 572 1313 547 1313 q 629 1281 599 1313 q 660 1221 660 1249 q 629 1163 660 1194 q 572 1131 599 1131 q 518 1163 549 1131 q 488 1221 488 1194 z "},"È":{"ha":847,"x_min":63,"x_max":760,"o":"m 314 185 q 321 118 314 140 q 347 88 328 96 q 403 79 365 79 l 553 79 q 631 90 603 79 q 674 126 658 100 q 704 203 690 151 l 713 235 l 760 218 l 760 -19 l 732 -35 l 721 -19 q 663 0 706 0 l 78 0 l 63 44 l 92 53 q 160 92 143 68 q 176 175 176 115 l 176 718 q 163 853 176 801 q 114 950 149 904 l 96 975 l 114 997 l 539 997 q 697 1026 658 997 l 722 1044 l 744 1026 l 744 779 l 697 763 l 689 794 q 659 872 675 846 q 615 908 643 897 q 538 918 588 918 l 403 918 q 347 910 365 918 q 321 879 328 901 q 314 813 314 857 l 314 546 l 490 546 q 549 560 524 546 q 600 610 575 575 l 611 625 l 639 610 l 639 372 l 592 356 l 583 388 q 540 451 571 435 q 432 467 508 467 l 314 467 l 314 185 m 526 1097 l 369 1175 q 310 1220 328 1196 q 292 1275 292 1244 q 308 1327 292 1304 q 350 1363 324 1350 l 567 1146 l 526 1097 z "},"F":{"ha":760,"x_min":63,"x_max":697,"o":"m 642 794 q 612 872 628 846 q 568 908 596 897 q 490 918 540 918 l 369 918 q 313 910 332 918 q 288 879 294 901 q 281 813 281 857 l 281 532 l 443 532 q 502 547 476 532 q 553 596 528 561 l 564 611 l 592 596 l 592 358 l 544 342 l 536 374 q 492 437 524 421 q 385 453 461 453 l 281 453 l 281 185 q 299 96 281 121 q 369 56 317 71 l 401 47 l 385 0 l 81 0 l 63 22 l 81 47 q 129 144 115 93 q 143 279 143 196 l 143 718 q 129 853 143 801 q 81 950 115 904 l 63 975 l 81 997 l 492 997 q 650 1026 611 997 l 675 1044 l 697 1026 l 697 779 l 650 763 l 642 794 z "},"G":{"ha":960,"x_min":49,"x_max":929,"o":"m 724 114 q 479 24 615 24 q 242 89 339 24 q 97 267 144 154 q 49 522 49 381 q 100 769 49 657 q 255 949 151 882 q 508 1017 358 1017 q 681 989 606 1017 q 800 912 757 961 q 843 799 843 863 q 801 682 843 728 q 694 636 758 636 q 669 639 674 636 q 665 653 665 642 q 677 676 665 657 q 698 720 689 696 q 707 779 707 744 q 652 894 707 850 q 508 939 597 939 q 329 876 399 939 q 229 721 260 814 q 199 529 199 628 q 234 319 199 414 q 336 168 269 224 q 492 113 403 113 q 724 207 629 113 l 724 278 q 706 367 724 342 q 635 407 688 392 l 603 415 l 619 463 l 911 463 l 929 440 l 911 415 q 863 318 876 369 q 849 183 849 267 l 849 22 q 518 -386 849 -386 q 379 -358 436 -386 q 294 -284 322 -329 q 265 -187 265 -239 q 313 -69 265 -118 q 442 -19 360 -19 q 462 -24 456 -19 q 468 -35 468 -29 q 449 -61 468 -40 q 415 -111 429 -82 q 400 -185 400 -140 q 438 -277 400 -240 q 542 -314 476 -314 q 678 -244 632 -314 q 724 -17 724 -175 l 724 114 z "},"H":{"ha":1082,"x_min":56,"x_max":1019,"o":"m 647 47 l 679 56 q 750 96 732 71 q 768 185 768 121 l 768 464 l 314 464 l 314 175 q 331 92 314 115 q 399 53 347 68 l 428 44 l 413 0 l 72 0 l 56 47 l 88 56 q 158 96 140 71 q 176 185 176 121 l 176 813 q 158 901 176 876 q 88 942 140 926 l 56 950 l 72 997 l 376 997 l 394 975 l 376 950 q 328 853 342 904 q 314 718 314 801 l 314 549 l 768 549 l 768 813 q 750 901 768 876 q 679 942 732 926 l 647 950 l 664 997 l 968 997 l 986 975 l 968 950 q 919 853 933 904 q 906 718 906 801 l 906 175 q 922 92 906 115 q 990 53 939 68 l 1019 44 l 1004 0 l 664 0 l 647 47 z "},"I":{"ha":490,"x_min":56,"x_max":428,"o":"m 56 47 l 88 56 q 158 96 140 71 q 176 185 176 121 l 176 813 q 158 901 176 876 q 88 942 140 926 l 56 950 l 72 997 l 376 997 l 394 975 l 376 950 q 328 853 342 904 q 314 718 314 801 l 314 175 q 331 92 314 115 q 399 53 347 68 l 428 44 l 413 0 l 72 0 l 56 47 z "},"Í":{"ha":490,"x_min":56,"x_max":428,"o":"m 56 47 l 88 56 q 158 96 140 71 q 176 185 176 121 l 176 813 q 158 901 176 876 q 88 942 140 926 l 56 950 l 72 997 l 376 997 l 394 975 l 376 950 q 328 853 342 904 q 314 718 314 801 l 314 175 q 331 92 314 115 q 399 53 347 68 l 428 44 l 413 0 l 72 0 l 56 47 m 338 1363 q 380 1327 364 1350 q 396 1275 396 1304 q 378 1220 396 1244 q 318 1175 360 1196 l 161 1097 l 121 1146 l 338 1363 z "},"Î":{"ha":490,"x_min":54,"x_max":435,"o":"m 56 47 l 88 56 q 158 96 140 71 q 176 185 176 121 l 176 813 q 158 901 176 876 q 88 942 140 926 l 56 950 l 72 997 l 376 997 l 394 975 l 376 950 q 328 853 342 904 q 314 718 314 801 l 314 175 q 331 92 314 115 q 399 53 347 68 l 428 44 l 413 0 l 72 0 l 56 47 m 264 1356 q 340 1276 289 1340 q 435 1136 392 1213 l 390 1097 l 244 1213 l 100 1097 l 54 1136 q 149 1276 99 1214 q 226 1356 199 1339 l 264 1356 z "},"Ï":{"ha":490,"x_min":28,"x_max":463,"o":"m 56 47 l 88 56 q 158 96 140 71 q 176 185 176 121 l 176 813 q 158 901 176 876 q 88 942 140 926 l 56 950 l 72 997 l 376 997 l 394 975 l 376 950 q 328 853 342 904 q 314 718 314 801 l 314 175 q 331 92 314 115 q 399 53 347 68 l 428 44 l 413 0 l 72 0 l 56 47 m 28 1221 q 58 1280 28 1247 q 113 1313 88 1313 q 169 1281 139 1313 q 200 1221 200 1249 q 169 1163 200 1194 q 113 1131 139 1131 q 58 1163 89 1131 q 28 1221 28 1194 m 290 1221 q 320 1280 290 1247 q 375 1313 350 1313 q 432 1281 401 1313 q 463 1221 463 1249 q 432 1163 463 1194 q 375 1131 401 1131 q 321 1163 351 1131 q 290 1221 290 1194 z "},"Ì":{"ha":490,"x_min":56,"x_max":428,"o":"m 56 47 l 88 56 q 158 96 140 71 q 176 185 176 121 l 176 813 q 158 901 176 876 q 88 942 140 926 l 56 950 l 72 997 l 376 997 l 394 975 l 376 950 q 328 853 342 904 q 314 718 314 801 l 314 175 q 331 92 314 115 q 399 53 347 68 l 428 44 l 413 0 l 72 0 l 56 47 m 342 1097 l 185 1175 q 125 1220 143 1196 q 107 1275 107 1244 q 123 1327 107 1304 q 165 1363 139 1350 l 382 1146 l 342 1097 z "},"J":{"ha":651,"x_min":-28,"x_max":596,"o":"m 378 813 q 360 901 378 876 q 289 942 342 926 l 257 950 l 274 997 l 578 997 l 596 975 l 578 950 q 529 853 543 904 q 515 718 515 801 l 515 328 q 438 64 515 147 q 225 -19 361 -19 q 86 9 143 -19 q 1 83 29 38 q -28 179 -28 128 q 19 298 -28 249 q 149 347 67 347 q 169 342 163 347 q 175 332 175 338 q 156 306 175 326 q 122 256 136 285 q 107 182 107 226 q 141 90 107 126 q 235 53 175 53 q 378 243 378 53 l 378 813 z "},"K":{"ha":928,"x_min":56,"x_max":904,"o":"m 56 47 l 88 56 q 158 96 140 71 q 176 185 176 121 l 176 813 q 158 901 176 876 q 88 942 140 926 l 56 950 l 72 997 l 376 997 l 394 975 l 376 950 q 328 853 342 904 q 314 718 314 801 l 314 175 q 331 92 314 115 q 399 53 347 68 l 428 44 l 413 0 l 72 0 l 56 47 m 774 100 q 798 68 786 79 q 826 57 810 57 q 881 76 853 57 l 904 36 q 776 -19 847 -19 q 671 14 714 -19 q 590 115 628 47 l 425 418 q 396 456 410 444 q 354 481 382 468 q 347 496 347 485 q 353 519 347 508 q 375 529 360 529 q 408 528 397 529 l 597 810 q 621 853 615 838 q 626 888 626 869 q 608 950 626 910 l 596 975 l 622 997 l 874 997 l 890 950 l 858 942 q 799 916 824 932 q 750 867 774 900 l 500 506 q 596 415 560 478 l 774 100 z "},"L":{"ha":764,"x_min":56,"x_max":731,"o":"m 314 185 q 321 118 314 140 q 347 88 328 96 q 403 79 365 79 l 524 79 q 601 90 574 79 q 645 126 629 100 q 675 203 661 151 l 683 235 l 731 218 l 731 -19 l 703 -35 l 692 -19 q 633 0 676 0 l 78 0 l 63 44 l 92 53 q 160 92 143 68 q 176 175 176 115 l 176 813 q 158 901 176 876 q 88 942 140 926 l 56 950 l 72 997 l 376 997 l 394 975 l 376 950 q 328 853 342 904 q 314 718 314 801 l 314 185 z "},"Ł":{"ha":764,"x_min":35,"x_max":731,"o":"m 731 218 l 731 -19 l 703 -35 l 692 -19 q 633 0 676 0 l 78 0 l 63 44 l 92 53 q 160 92 143 68 q 176 175 176 115 l 176 410 l 35 339 q 41 427 35 400 q 68 464 47 454 l 176 518 l 176 813 q 158 901 176 876 q 88 942 140 926 l 56 950 l 72 997 l 376 997 l 394 975 l 376 950 q 328 853 342 904 q 314 718 314 801 l 314 588 l 457 658 q 451 570 457 597 q 424 533 444 543 l 314 479 l 314 185 q 321 118 314 140 q 347 88 328 96 q 403 79 365 79 l 524 79 q 601 90 574 79 q 645 126 629 100 q 675 203 661 151 l 683 235 l 731 218 z "},"M":{"ha":1279,"x_min":21,"x_max":1217,"o":"m 1121 269 q 1149 126 1128 183 q 1217 22 1171 68 l 1199 0 l 894 0 l 878 47 l 910 56 q 972 91 954 69 q 989 156 989 113 l 986 207 l 946 786 l 656 100 l 581 100 l 290 786 l 260 358 q 251 222 251 261 q 263 126 251 165 q 301 47 275 86 l 318 22 l 297 0 l 36 0 l 21 47 l 53 56 q 127 97 107 72 q 151 185 147 122 l 189 735 q 193 785 190 753 q 196 842 196 817 q 178 910 196 889 q 115 942 161 931 l 83 950 l 99 997 l 351 997 l 638 299 l 932 997 l 1132 997 l 1153 975 l 1136 950 q 1098 872 1110 911 q 1086 775 1086 832 q 1093 650 1086 754 l 1121 269 z "},"N":{"ha":1082,"x_min":47,"x_max":996,"o":"m 265 279 q 279 144 265 196 q 328 47 293 93 l 346 22 l 328 0 l 64 0 l 47 47 l 79 56 q 150 96 132 71 q 168 185 168 121 l 168 813 q 150 901 168 876 q 79 942 132 926 l 47 950 l 64 997 l 288 997 l 818 210 l 818 813 q 800 901 818 876 q 729 942 782 926 l 697 950 l 714 997 l 978 997 l 996 975 l 978 950 q 929 853 943 904 q 915 718 915 801 l 915 122 q 919 79 915 96 q 935 47 924 63 l 953 22 l 935 0 l 794 0 l 265 785 l 265 279 z "},"Ñ":{"ha":1082,"x_min":47,"x_max":996,"o":"m 265 279 q 279 144 265 196 q 328 47 293 93 l 346 22 l 328 0 l 64 0 l 47 47 l 79 56 q 150 96 132 71 q 168 185 168 121 l 168 813 q 150 901 168 876 q 79 942 132 926 l 47 950 l 64 997 l 288 997 l 818 210 l 818 813 q 800 901 818 876 q 729 942 782 926 l 697 950 l 714 997 l 978 997 l 996 975 l 978 950 q 929 853 943 904 q 915 718 915 801 l 915 122 q 919 79 915 96 q 935 47 924 63 l 953 22 l 935 0 l 794 0 l 265 785 l 265 279 m 778 1268 q 686 1169 733 1206 q 600 1133 639 1133 q 560 1141 578 1133 q 522 1161 542 1149 q 493 1177 504 1172 q 468 1182 482 1182 q 375 1128 429 1182 l 326 1171 q 419 1269 372 1233 q 506 1306 465 1306 q 542 1299 526 1306 q 581 1279 558 1292 q 611 1263 600 1268 q 636 1257 622 1257 q 731 1311 675 1257 l 778 1268 z "},"O":{"ha":1018,"x_min":49,"x_max":969,"o":"m 49 497 q 100 762 49 644 q 255 948 151 879 q 508 1017 358 1017 q 762 948 658 1017 q 917 762 865 879 q 969 497 969 644 q 917 233 969 350 q 762 49 865 117 q 508 -19 658 -19 q 255 49 358 -19 q 100 233 151 117 q 49 497 49 350 m 818 493 q 790 695 818 593 q 693 867 761 797 q 515 938 625 938 q 345 877 417 938 q 236 714 274 817 q 199 486 199 611 q 233 269 199 365 q 337 118 268 174 q 503 63 406 63 q 672 119 600 63 q 781 274 743 176 q 818 493 818 372 z "},"Ó":{"ha":1018,"x_min":49,"x_max":969,"o":"m 49 497 q 100 762 49 644 q 255 948 151 879 q 508 1017 358 1017 q 762 948 658 1017 q 917 762 865 879 q 969 497 969 644 q 917 233 969 350 q 762 49 865 117 q 508 -19 658 -19 q 255 49 358 -19 q 100 233 151 117 q 49 497 49 350 m 818 493 q 790 695 818 593 q 693 867 761 797 q 515 938 625 938 q 345 877 417 938 q 236 714 274 817 q 199 486 199 611 q 233 269 199 365 q 337 118 268 174 q 503 63 406 63 q 672 119 600 63 q 781 274 743 176 q 818 493 818 372 m 588 1363 q 630 1327 614 1350 q 646 1275 646 1304 q 628 1220 646 1244 q 568 1175 610 1196 l 411 1097 l 371 1146 l 588 1363 z "},"Ô":{"ha":1018,"x_min":49,"x_max":969,"o":"m 49 497 q 100 762 49 644 q 255 948 151 879 q 508 1017 358 1017 q 762 948 658 1017 q 917 762 865 879 q 969 497 969 644 q 917 233 969 350 q 762 49 865 117 q 508 -19 658 -19 q 255 49 358 -19 q 100 233 151 117 q 49 497 49 350 m 818 493 q 790 695 818 593 q 693 867 761 797 q 515 938 625 938 q 345 877 417 938 q 236 714 274 817 q 199 486 199 611 q 233 269 199 365 q 337 118 268 174 q 503 63 406 63 q 672 119 600 63 q 781 274 743 176 q 818 493 818 372 m 528 1356 q 604 1276 553 1340 q 699 1136 656 1213 l 654 1097 l 508 1213 l 364 1097 l 318 1136 q 413 1276 363 1214 q 490 1356 463 1339 l 528 1356 z "},"Ö":{"ha":1018,"x_min":49,"x_max":969,"o":"m 49 497 q 100 762 49 644 q 255 948 151 879 q 508 1017 358 1017 q 762 948 658 1017 q 917 762 865 879 q 969 497 969 644 q 917 233 969 350 q 762 49 865 117 q 508 -19 658 -19 q 255 49 358 -19 q 100 233 151 117 q 49 497 49 350 m 818 493 q 790 695 818 593 q 693 867 761 797 q 515 938 625 938 q 345 877 417 938 q 236 714 274 817 q 199 486 199 611 q 233 269 199 365 q 337 118 268 174 q 503 63 406 63 q 672 119 600 63 q 781 274 743 176 q 818 493 818 372 m 292 1221 q 322 1280 292 1247 q 376 1313 351 1313 q 433 1281 403 1313 q 464 1221 464 1249 q 433 1163 464 1194 q 376 1131 403 1131 q 322 1163 353 1131 q 292 1221 292 1194 m 554 1221 q 584 1280 554 1247 q 639 1313 614 1313 q 696 1281 665 1313 q 726 1221 726 1249 q 696 1163 726 1194 q 639 1131 665 1131 q 585 1163 615 1131 q 554 1221 554 1194 z "},"Ò":{"ha":1018,"x_min":49,"x_max":969,"o":"m 49 497 q 100 762 49 644 q 255 948 151 879 q 508 1017 358 1017 q 762 948 658 1017 q 917 762 865 879 q 969 497 969 644 q 917 233 969 350 q 762 49 865 117 q 508 -19 658 -19 q 255 49 358 -19 q 100 233 151 117 q 49 497 49 350 m 818 493 q 790 695 818 593 q 693 867 761 797 q 515 938 625 938 q 345 877 417 938 q 236 714 274 817 q 199 486 199 611 q 233 269 199 365 q 337 118 268 174 q 503 63 406 63 q 672 119 600 63 q 781 274 743 176 q 818 493 818 372 m 606 1097 l 449 1175 q 389 1220 407 1196 q 371 1275 371 1244 q 387 1327 371 1304 q 429 1363 403 1350 l 646 1146 l 606 1097 z "},"Ø":{"ha":1018,"x_min":49,"x_max":969,"o":"m 725 969 q 907 783 844 908 q 969 497 969 658 q 917 233 969 350 q 762 49 865 117 q 508 -19 658 -19 q 379 -4 443 -19 l 350 -87 l 251 -87 l 292 28 q 110 210 172 86 q 49 497 49 335 q 100 762 49 644 q 255 948 151 879 q 508 1017 358 1017 q 638 1001 574 1017 l 667 1085 l 767 1085 l 725 969 m 199 486 q 231 275 199 369 q 326 126 264 181 l 608 921 q 515 938 567 938 q 345 877 417 938 q 236 714 274 817 q 199 486 199 611 m 503 63 q 672 119 600 63 q 781 274 743 176 q 818 493 818 372 q 788 702 818 597 q 690 869 757 807 l 408 78 q 503 63 454 63 z "},"Õ":{"ha":1018,"x_min":49,"x_max":969,"o":"m 49 497 q 100 762 49 644 q 255 948 151 879 q 508 1017 358 1017 q 762 948 658 1017 q 917 762 865 879 q 969 497 969 644 q 917 233 969 350 q 762 49 865 117 q 508 -19 658 -19 q 255 49 358 -19 q 100 233 151 117 q 49 497 49 350 m 818 493 q 790 695 818 593 q 693 867 761 797 q 515 938 625 938 q 345 877 417 938 q 236 714 274 817 q 199 486 199 611 q 233 269 199 365 q 337 118 268 174 q 503 63 406 63 q 672 119 600 63 q 781 274 743 176 q 818 493 818 372 m 735 1268 q 643 1169 690 1206 q 557 1133 596 1133 q 517 1141 535 1133 q 479 1161 499 1149 q 450 1177 461 1172 q 425 1182 439 1182 q 332 1128 386 1182 l 283 1171 q 376 1269 329 1233 q 463 1306 422 1306 q 499 1299 483 1306 q 538 1279 515 1292 q 568 1263 557 1268 q 593 1257 579 1257 q 688 1311 632 1257 l 735 1268 z "},"Œ":{"ha":1328,"x_min":49,"x_max":1240,"o":"m 1019 997 q 1178 1026 1139 997 l 1203 1044 l 1225 1026 l 1225 779 l 1178 763 l 1169 794 q 1140 872 1156 846 q 1096 908 1124 897 q 1018 918 1068 918 l 883 918 q 827 910 846 918 q 801 879 808 901 q 794 813 794 857 l 794 546 l 971 546 q 1030 560 1004 546 q 1081 610 1056 575 l 1092 625 l 1119 610 l 1119 372 l 1072 356 l 1064 388 q 1020 451 1051 435 q 913 467 989 467 l 794 467 l 794 185 q 801 118 794 140 q 827 88 808 96 q 883 79 846 79 l 1033 79 q 1111 90 1083 79 q 1155 126 1139 100 q 1185 203 1171 151 l 1193 235 l 1240 218 l 1240 -19 l 1213 -35 l 1201 -19 q 1143 0 1186 0 l 508 0 q 255 65 358 0 q 100 243 151 131 q 49 497 49 356 q 100 752 49 639 q 255 931 151 865 q 508 997 358 997 l 1019 997 m 521 63 q 657 97 596 63 l 657 879 q 493 936 582 936 q 323 873 389 936 q 228 710 257 810 q 199 497 199 611 q 238 277 199 376 q 349 120 276 178 q 521 63 422 63 z "},"P":{"ha":828,"x_min":49,"x_max":800,"o":"m 314 279 q 328 144 314 194 q 376 47 342 93 l 394 22 l 376 0 l 72 0 l 56 47 l 88 56 q 158 96 140 69 q 176 185 176 122 l 176 871 q 169 897 176 889 q 146 904 163 904 l 65 904 l 49 956 q 206 998 108 979 q 394 1017 304 1017 q 700 924 600 1017 q 800 686 800 832 q 764 523 800 596 q 653 406 728 450 q 467 363 578 363 q 380 375 415 363 q 344 411 344 388 q 350 435 344 425 q 367 444 356 444 q 390 440 372 444 q 435 435 407 435 q 597 501 539 435 q 656 682 656 568 q 594 867 656 794 q 419 939 532 939 q 314 875 314 939 l 314 279 z "},"Þ":{"ha":828,"x_min":56,"x_max":800,"o":"m 56 47 l 88 56 q 158 96 140 71 q 176 185 176 121 l 176 813 q 158 901 176 876 q 88 942 140 926 l 56 950 l 72 997 l 376 997 l 394 975 l 376 950 q 338 883 351 917 q 318 807 324 850 q 472 835 396 835 q 640 791 565 835 q 758 672 715 747 q 800 504 800 596 q 764 341 800 414 q 653 224 728 268 q 467 181 578 181 q 380 193 415 181 q 344 229 344 206 q 350 253 344 243 q 367 263 356 263 q 390 258 372 263 q 435 253 407 253 q 597 319 539 253 q 656 500 656 386 q 598 688 656 615 q 435 761 540 761 q 314 692 314 761 l 314 175 q 331 92 314 115 q 399 53 347 68 l 428 44 l 413 0 l 72 0 l 56 47 z "},"Q":{"ha":1018,"x_min":49,"x_max":1088,"o":"m 49 497 q 100 762 49 644 q 255 948 151 879 q 508 1017 358 1017 q 762 948 658 1017 q 917 762 865 879 q 969 497 969 644 q 922 244 969 357 q 783 64 875 131 l 853 -90 q 913 -172 878 -146 q 999 -197 947 -197 q 1049 -188 1026 -197 q 1075 -179 1071 -179 q 1084 -183 1081 -179 q 1088 -193 1088 -187 q 1049 -276 1088 -243 q 958 -308 1010 -308 q 824 -255 878 -308 q 731 -111 771 -201 l 676 7 q 508 -19 597 -19 q 255 49 358 -19 q 100 233 151 117 q 49 497 49 350 m 818 493 q 790 695 818 593 q 693 867 761 797 q 515 938 625 938 q 345 877 417 938 q 236 714 274 817 q 199 486 199 611 q 219 313 199 392 q 282 176 240 233 q 279 204 279 186 q 326 313 279 274 q 454 353 374 353 q 599 309 531 353 q 725 175 668 265 q 794 317 769 235 q 818 493 818 399 m 339 185 q 387 93 339 124 q 503 63 435 63 q 636 97 575 63 q 537 230 592 188 q 431 272 482 272 q 365 249 390 272 q 339 185 339 225 z "},"R":{"ha":889,"x_min":21,"x_max":863,"o":"m 863 36 q 735 -19 806 -19 q 625 19 667 -19 q 543 143 583 58 l 438 367 q 406 407 425 394 q 343 436 388 419 q 317 468 317 446 q 322 492 317 482 q 339 501 328 501 q 362 497 344 501 q 407 492 379 492 q 569 551 511 492 q 628 708 628 610 q 566 874 628 810 q 392 939 504 939 q 286 875 286 939 l 286 279 q 300 145 286 196 q 349 47 314 94 l 367 22 l 349 0 l 44 0 l 28 47 l 60 56 q 131 96 113 69 q 149 185 149 122 l 149 871 q 142 897 149 889 q 118 904 135 904 l 38 904 l 21 956 q 178 998 81 979 q 367 1017 276 1017 q 672 932 572 1017 q 772 713 772 847 q 715 533 772 610 q 547 431 658 457 q 603 363 578 410 l 732 100 q 785 57 754 57 q 839 76 811 57 l 863 36 z "},"S":{"ha":794,"x_min":63,"x_max":725,"o":"m 406 58 q 535 100 486 58 q 585 215 585 142 q 554 317 585 275 q 478 385 524 358 q 356 446 433 411 q 213 519 267 486 q 122 608 160 553 q 85 747 85 664 q 119 880 85 818 q 221 979 153 942 q 388 1017 289 1017 q 549 991 478 1017 q 660 919 621 965 q 700 813 700 872 q 658 696 700 742 q 551 650 615 650 q 522 667 522 650 q 534 690 522 671 q 555 734 546 710 q 564 793 564 758 q 515 899 564 858 q 388 939 467 939 q 261 892 306 939 q 217 779 217 846 q 246 690 217 728 q 318 628 275 653 q 438 568 361 603 q 587 492 529 528 q 685 398 644 457 q 725 251 725 339 q 642 54 725 128 q 406 -19 560 -19 q 228 9 306 -19 q 106 88 150 38 q 63 204 63 139 q 108 321 63 275 q 221 367 153 367 q 243 362 236 367 q 250 350 250 357 q 238 327 250 346 q 215 283 225 308 q 206 224 206 258 q 261 104 206 150 q 406 58 317 58 z "},"Š":{"ha":794,"x_min":63,"x_max":725,"o":"m 406 58 q 535 100 486 58 q 585 215 585 142 q 554 317 585 275 q 478 385 524 358 q 356 446 433 411 q 213 519 267 486 q 122 608 160 553 q 85 747 85 664 q 119 880 85 818 q 221 979 153 942 q 388 1017 289 1017 q 549 991 478 1017 q 660 919 621 965 q 700 813 700 872 q 658 696 700 742 q 551 650 615 650 q 522 667 522 650 q 534 690 522 671 q 555 734 546 710 q 564 793 564 758 q 515 899 564 858 q 388 939 467 939 q 261 892 306 939 q 217 779 217 846 q 246 690 217 728 q 318 628 275 653 q 438 568 361 603 q 587 492 529 528 q 685 398 644 457 q 725 251 725 339 q 642 54 725 128 q 406 -19 560 -19 q 228 9 306 -19 q 106 88 150 38 q 63 204 63 139 q 108 321 63 275 q 221 367 153 367 q 243 362 236 367 q 250 350 250 357 q 238 327 250 346 q 215 283 225 308 q 206 224 206 258 q 261 104 206 150 q 406 58 317 58 m 388 1110 q 310 1189 360 1126 q 215 1329 260 1251 l 261 1368 l 406 1251 l 551 1368 l 596 1329 q 501 1189 553 1253 q 425 1110 450 1125 l 388 1110 z "},"T":{"ha":826,"x_min":28,"x_max":799,"o":"m 743 794 q 713 872 729 846 q 669 908 697 897 q 592 918 642 918 l 529 918 q 491 898 500 918 q 482 813 482 878 l 482 185 q 500 96 482 121 q 571 56 518 71 l 603 47 l 586 0 l 282 0 l 264 22 l 282 47 q 331 144 317 93 q 344 279 344 196 l 344 813 q 335 898 344 878 q 297 918 326 918 l 235 918 q 157 908 185 918 q 113 872 129 897 q 83 794 97 846 l 75 763 l 28 779 l 28 1026 l 50 1044 l 75 1026 q 233 997 114 997 l 593 997 q 751 1026 713 997 l 776 1044 l 799 1026 l 799 779 l 751 763 l 743 794 z "},"U":{"ha":1026,"x_min":33,"x_max":958,"o":"m 292 306 q 361 132 292 196 q 536 68 431 68 q 711 132 642 68 q 781 306 781 196 l 781 813 q 763 901 781 876 q 692 942 744 926 l 660 950 l 676 997 l 940 997 l 958 975 l 940 950 q 892 853 906 904 q 878 718 878 801 l 878 306 q 778 61 878 142 q 518 -19 678 -19 q 255 61 356 -19 q 154 306 154 142 l 154 813 q 136 901 154 876 q 65 942 118 926 l 33 950 l 50 997 l 354 997 l 372 975 l 354 950 q 306 853 319 904 q 292 718 292 801 l 292 306 z "},"Ú":{"ha":1026,"x_min":33,"x_max":958,"o":"m 292 306 q 361 132 292 196 q 536 68 431 68 q 711 132 642 68 q 781 306 781 196 l 781 813 q 763 901 781 876 q 692 942 744 926 l 660 950 l 676 997 l 940 997 l 958 975 l 940 950 q 892 853 906 904 q 878 718 878 801 l 878 306 q 778 61 878 142 q 518 -19 678 -19 q 255 61 356 -19 q 154 306 154 142 l 154 813 q 136 901 154 876 q 65 942 118 926 l 33 950 l 50 997 l 354 997 l 372 975 l 354 950 q 306 853 319 904 q 292 718 292 801 l 292 306 m 642 1363 q 684 1327 668 1350 q 700 1275 700 1304 q 682 1220 700 1244 q 622 1175 664 1196 l 465 1097 l 425 1146 l 642 1363 z "},"Û":{"ha":1026,"x_min":33,"x_max":958,"o":"m 292 306 q 361 132 292 196 q 536 68 431 68 q 711 132 642 68 q 781 306 781 196 l 781 813 q 763 901 781 876 q 692 942 744 926 l 660 950 l 676 997 l 940 997 l 958 975 l 940 950 q 892 853 906 904 q 878 718 878 801 l 878 306 q 778 61 878 142 q 518 -19 678 -19 q 255 61 356 -19 q 154 306 154 142 l 154 813 q 136 901 154 876 q 65 942 118 926 l 33 950 l 50 997 l 354 997 l 372 975 l 354 950 q 306 853 319 904 q 292 718 292 801 l 292 306 m 556 1356 q 632 1276 581 1340 q 726 1136 683 1213 l 682 1097 l 536 1213 l 392 1097 l 346 1136 q 440 1276 390 1214 q 518 1356 490 1339 l 556 1356 z "},"Ü":{"ha":1026,"x_min":33,"x_max":958,"o":"m 292 306 q 361 132 292 196 q 536 68 431 68 q 711 132 642 68 q 781 306 781 196 l 781 813 q 763 901 781 876 q 692 942 744 926 l 660 950 l 676 997 l 940 997 l 958 975 l 940 950 q 892 853 906 904 q 878 718 878 801 l 878 306 q 778 61 878 142 q 518 -19 678 -19 q 255 61 356 -19 q 154 306 154 142 l 154 813 q 136 901 154 876 q 65 942 118 926 l 33 950 l 50 997 l 354 997 l 372 975 l 354 950 q 306 853 319 904 q 292 718 292 801 l 292 306 m 314 1221 q 344 1280 314 1247 q 399 1313 374 1313 q 456 1281 425 1313 q 486 1221 486 1249 q 456 1163 486 1194 q 399 1131 425 1131 q 344 1163 375 1131 q 314 1221 314 1194 m 576 1221 q 606 1280 576 1247 q 661 1313 636 1313 q 718 1281 688 1313 q 749 1221 749 1249 q 718 1163 749 1194 q 661 1131 688 1131 q 607 1163 638 1131 q 576 1221 576 1194 z "},"Ù":{"ha":1026,"x_min":33,"x_max":958,"o":"m 292 306 q 361 132 292 196 q 536 68 431 68 q 711 132 642 68 q 781 306 781 196 l 781 813 q 763 901 781 876 q 692 942 744 926 l 660 950 l 676 997 l 940 997 l 958 975 l 940 950 q 892 853 906 904 q 878 718 878 801 l 878 306 q 778 61 878 142 q 518 -19 678 -19 q 255 61 356 -19 q 154 306 154 142 l 154 813 q 136 901 154 876 q 65 942 118 926 l 33 950 l 50 997 l 354 997 l 372 975 l 354 950 q 306 853 319 904 q 292 718 292 801 l 292 306 m 610 1097 l 453 1175 q 393 1220 411 1196 q 375 1275 375 1244 q 391 1327 375 1304 q 433 1363 407 1350 l 650 1146 l 610 1097 z "},"V":{"ha":947,"x_min":7,"x_max":926,"o":"m 403 0 l 132 806 q 85 903 111 869 q 7 975 58 936 l 25 997 l 338 997 l 354 950 l 322 942 q 274 919 289 933 q 260 881 260 906 q 275 813 260 858 l 501 115 l 696 719 q 722 849 722 803 q 660 942 719 925 l 628 950 l 644 997 l 908 997 l 926 975 l 906 950 q 829 811 854 889 l 561 0 l 403 0 z "},"W":{"ha":1510,"x_min":7,"x_max":1489,"o":"m 965 0 l 761 606 l 561 0 l 403 0 l 132 806 q 85 903 111 869 q 7 975 58 936 l 25 997 l 338 997 l 354 950 l 322 942 q 274 919 289 933 q 260 881 260 906 q 275 813 260 858 l 501 115 l 708 761 l 694 806 q 647 903 674 869 q 569 975 621 936 l 588 997 l 900 997 l 917 950 l 885 942 q 837 919 851 933 q 822 881 822 906 q 838 813 822 858 l 1064 115 l 1258 719 q 1285 849 1285 803 q 1222 942 1282 925 l 1190 950 l 1207 997 l 1471 997 l 1489 975 l 1468 950 q 1392 811 1417 889 l 1124 0 l 965 0 z "},"X":{"ha":944,"x_min":14,"x_max":931,"o":"m 633 810 q 657 853 651 838 q 663 888 663 869 q 644 950 663 910 l 632 975 l 658 997 l 914 997 l 931 950 l 899 942 q 839 916 864 932 q 790 867 814 900 l 547 515 l 797 161 q 858 81 833 110 q 918 22 882 51 l 900 0 l 571 0 l 554 47 l 586 56 q 640 115 640 71 q 610 197 640 151 l 458 410 l 311 188 q 288 144 293 160 q 282 110 282 128 q 300 47 282 88 l 313 22 l 286 0 l 31 0 l 14 47 l 46 56 q 106 81 81 65 q 154 131 131 97 l 403 490 l 165 828 q 39 975 93 928 l 57 997 l 386 997 l 403 950 l 371 942 q 317 882 317 926 q 347 800 317 846 l 490 596 l 633 810 z "},"Y":{"ha":869,"x_min":7,"x_max":835,"o":"m 610 811 q 626 868 626 843 q 609 915 626 896 q 568 942 592 935 l 536 950 l 553 997 l 817 997 l 835 975 l 814 950 q 715 803 765 892 l 500 421 l 500 185 q 519 96 500 122 q 592 56 539 69 l 624 47 l 607 0 l 303 0 l 285 22 l 303 47 q 353 147 338 96 q 368 279 368 197 l 368 410 l 146 800 q 79 904 108 867 q 7 975 50 942 l 25 997 l 338 997 l 354 950 l 322 942 q 274 919 289 933 q 260 881 260 906 q 279 833 260 865 q 303 793 299 800 l 453 531 l 610 811 z "},"Ý":{"ha":869,"x_min":7,"x_max":835,"o":"m 610 811 q 626 868 626 843 q 609 915 626 896 q 568 942 592 935 l 536 950 l 553 997 l 817 997 l 835 975 l 814 950 q 715 803 765 892 l 500 421 l 500 185 q 519 96 500 122 q 592 56 539 69 l 624 47 l 607 0 l 303 0 l 285 22 l 303 47 q 353 147 338 96 q 368 279 368 197 l 368 410 l 146 800 q 79 904 108 867 q 7 975 50 942 l 25 997 l 338 997 l 354 950 l 322 942 q 274 919 289 933 q 260 881 260 906 q 279 833 260 865 q 303 793 299 800 l 453 531 l 610 811 m 579 1363 q 622 1327 606 1350 q 638 1275 638 1304 q 619 1220 638 1244 q 560 1175 601 1196 l 403 1097 l 363 1146 l 579 1363 z "},"Ÿ":{"ha":869,"x_min":7,"x_max":835,"o":"m 610 811 q 626 868 626 843 q 609 915 626 896 q 568 942 592 935 l 536 950 l 553 997 l 817 997 l 835 975 l 814 950 q 715 803 765 892 l 500 421 l 500 185 q 519 96 500 122 q 592 56 539 69 l 624 47 l 607 0 l 303 0 l 285 22 l 303 47 q 353 147 338 96 q 368 279 368 197 l 368 410 l 146 800 q 79 904 108 867 q 7 975 50 942 l 25 997 l 338 997 l 354 950 l 322 942 q 274 919 289 933 q 260 881 260 906 q 279 833 260 865 q 303 793 299 800 l 453 531 l 610 811 m 254 1221 q 284 1280 254 1247 q 339 1313 314 1313 q 396 1281 365 1313 q 426 1221 426 1249 q 396 1163 426 1194 q 339 1131 365 1131 q 285 1163 315 1131 q 254 1221 254 1194 m 517 1221 q 547 1280 517 1247 q 601 1313 576 1313 q 658 1281 628 1313 q 689 1221 689 1249 q 658 1163 689 1194 q 601 1131 628 1131 q 547 1163 578 1131 q 517 1221 517 1194 z "},"Z":{"ha":819,"x_min":28,"x_max":792,"o":"m 79 779 l 79 1026 l 101 1044 l 126 1026 q 285 997 165 997 l 792 997 l 243 79 l 557 79 q 635 90 607 79 q 678 126 663 100 q 708 203 694 151 l 717 235 l 764 218 l 764 -19 l 736 -35 l 725 -19 q 667 0 710 0 l 28 0 l 579 918 l 286 918 q 208 908 236 918 q 165 872 181 897 q 135 794 149 846 l 126 763 l 79 779 z "},"Ž":{"ha":819,"x_min":28,"x_max":792,"o":"m 79 779 l 79 1026 l 101 1044 l 126 1026 q 285 997 165 997 l 792 997 l 243 79 l 557 79 q 635 90 607 79 q 678 126 663 100 q 708 203 694 151 l 717 235 l 764 218 l 764 -19 l 736 -35 l 725 -19 q 667 0 710 0 l 28 0 l 579 918 l 286 918 q 208 908 236 918 q 165 872 181 897 q 135 794 149 846 l 126 763 l 79 779 m 417 1110 q 339 1189 389 1126 q 244 1329 289 1251 l 290 1368 l 435 1251 l 581 1368 l 625 1329 q 531 1189 582 1253 q 454 1110 479 1125 l 417 1110 z "},"a":{"ha":839,"x_min":63,"x_max":818,"o":"m 557 128 q 440 14 500 47 q 311 -19 381 -19 q 188 19 244 -19 q 97 133 131 57 q 63 318 63 210 q 106 526 63 438 q 231 661 150 614 q 422 708 313 708 q 575 690 476 708 q 700 674 658 676 l 715 656 l 699 631 q 685 605 689 617 q 681 576 681 593 l 681 122 q 722 79 681 79 q 792 104 757 79 l 818 68 q 740 4 782 28 q 664 -19 699 -19 q 582 15 607 -19 q 557 128 557 50 m 208 344 q 253 150 208 213 q 367 88 299 88 q 471 119 422 88 q 557 214 519 150 l 557 589 q 421 632 493 632 q 264 556 319 632 q 208 344 208 481 z "},"á":{"ha":839,"x_min":63,"x_max":818,"o":"m 557 128 q 440 14 500 47 q 311 -19 381 -19 q 188 19 244 -19 q 97 133 131 57 q 63 318 63 210 q 106 526 63 438 q 231 661 150 614 q 422 708 313 708 q 575 690 476 708 q 700 674 658 676 l 715 656 l 699 631 q 685 605 689 617 q 681 576 681 593 l 681 122 q 722 79 681 79 q 792 104 757 79 l 818 68 q 740 4 782 28 q 664 -19 699 -19 q 582 15 607 -19 q 557 128 557 50 m 208 344 q 253 150 208 213 q 367 88 299 88 q 471 119 422 88 q 557 214 519 150 l 557 589 q 421 632 493 632 q 264 556 319 632 q 208 344 208 481 m 499 1056 q 541 1020 525 1043 q 557 968 557 997 q 539 913 557 938 q 479 868 521 889 l 322 790 l 282 839 l 499 1056 z "},"â":{"ha":839,"x_min":63,"x_max":818,"o":"m 557 128 q 440 14 500 47 q 311 -19 381 -19 q 188 19 244 -19 q 97 133 131 57 q 63 318 63 210 q 106 526 63 438 q 231 661 150 614 q 422 708 313 708 q 575 690 476 708 q 700 674 658 676 l 715 656 l 699 631 q 685 605 689 617 q 681 576 681 593 l 681 122 q 722 79 681 79 q 792 104 757 79 l 818 68 q 740 4 782 28 q 664 -19 699 -19 q 582 15 607 -19 q 557 128 557 50 m 208 344 q 253 150 208 213 q 367 88 299 88 q 471 119 422 88 q 557 214 519 150 l 557 589 q 421 632 493 632 q 264 556 319 632 q 208 344 208 481 m 439 1049 q 515 969 464 1033 q 610 829 567 906 l 565 790 l 419 906 l 275 790 l 229 829 q 324 969 274 907 q 401 1049 374 1032 l 439 1049 z "},"ä":{"ha":839,"x_min":63,"x_max":818,"o":"m 557 128 q 440 14 500 47 q 311 -19 381 -19 q 188 19 244 -19 q 97 133 131 57 q 63 318 63 210 q 106 526 63 438 q 231 661 150 614 q 422 708 313 708 q 575 690 476 708 q 700 674 658 676 l 715 656 l 699 631 q 685 605 689 617 q 681 576 681 593 l 681 122 q 722 79 681 79 q 792 104 757 79 l 818 68 q 740 4 782 28 q 664 -19 699 -19 q 582 15 607 -19 q 557 128 557 50 m 208 344 q 253 150 208 213 q 367 88 299 88 q 471 119 422 88 q 557 214 519 150 l 557 589 q 421 632 493 632 q 264 556 319 632 q 208 344 208 481 m 201 914 q 231 973 201 940 q 286 1006 261 1006 q 343 974 313 1006 q 374 914 374 942 q 343 856 374 888 q 286 824 313 824 q 232 856 263 824 q 201 914 201 888 m 464 914 q 494 973 464 940 q 549 1006 524 1006 q 606 974 575 1006 q 636 914 636 942 q 606 856 636 888 q 549 824 575 824 q 494 856 525 824 q 464 914 464 888 z "},"à":{"ha":839,"x_min":63,"x_max":818,"o":"m 557 128 q 440 14 500 47 q 311 -19 381 -19 q 188 19 244 -19 q 97 133 131 57 q 63 318 63 210 q 106 526 63 438 q 231 661 150 614 q 422 708 313 708 q 575 690 476 708 q 700 674 658 676 l 715 656 l 699 631 q 685 605 689 617 q 681 576 681 593 l 681 122 q 722 79 681 79 q 792 104 757 79 l 818 68 q 740 4 782 28 q 664 -19 699 -19 q 582 15 607 -19 q 557 128 557 50 m 208 344 q 253 150 208 213 q 367 88 299 88 q 471 119 422 88 q 557 214 519 150 l 557 589 q 421 632 493 632 q 264 556 319 632 q 208 344 208 481 m 517 790 l 360 868 q 300 913 318 889 q 282 968 282 938 q 298 1020 282 997 q 340 1056 314 1043 l 557 839 l 517 790 z "},"å":{"ha":839,"x_min":63,"x_max":818,"o":"m 557 128 q 440 14 500 47 q 311 -19 381 -19 q 188 19 244 -19 q 97 133 131 57 q 63 318 63 210 q 106 526 63 438 q 231 661 150 614 q 422 708 313 708 q 575 690 476 708 q 700 674 658 676 l 715 656 l 699 631 q 685 605 689 617 q 681 576 681 593 l 681 122 q 722 79 681 79 q 792 104 757 79 l 818 68 q 740 4 782 28 q 664 -19 699 -19 q 582 15 607 -19 q 557 128 557 50 m 208 344 q 253 150 208 213 q 367 88 299 88 q 471 119 422 88 q 557 214 519 150 l 557 589 q 421 632 493 632 q 264 556 319 632 q 208 344 208 481 m 261 914 q 301 1021 261 979 q 417 1063 342 1063 q 535 1021 494 1063 q 576 914 576 979 q 535 808 576 849 q 417 767 494 767 q 301 808 342 767 q 261 914 261 849 m 358 914 q 374 856 358 879 q 417 833 389 833 q 462 856 446 833 q 478 914 478 879 q 462 972 478 949 q 417 994 446 994 q 374 972 389 994 q 358 914 358 949 z "},"ã":{"ha":839,"x_min":63,"x_max":818,"o":"m 557 128 q 440 14 500 47 q 311 -19 381 -19 q 188 19 244 -19 q 97 133 131 57 q 63 318 63 210 q 106 526 63 438 q 231 661 150 614 q 422 708 313 708 q 575 690 476 708 q 700 674 658 676 l 715 656 l 699 631 q 685 605 689 617 q 681 576 681 593 l 681 122 q 722 79 681 79 q 792 104 757 79 l 818 68 q 740 4 782 28 q 664 -19 699 -19 q 582 15 607 -19 q 557 128 557 50 m 208 344 q 253 150 208 213 q 367 88 299 88 q 471 119 422 88 q 557 214 519 150 l 557 589 q 421 632 493 632 q 264 556 319 632 q 208 344 208 481 m 644 961 q 553 863 600 899 q 467 826 506 826 q 426 834 444 826 q 389 854 408 842 q 360 870 371 865 q 335 875 349 875 q 242 821 296 875 l 193 864 q 285 963 239 926 q 372 999 332 999 q 409 992 393 999 q 447 972 425 985 q 478 956 467 961 q 503 950 489 950 q 597 1004 542 950 l 644 961 z "},"æ":{"ha":1201,"x_min":63,"x_max":1129,"o":"m 353 708 q 499 675 433 708 q 607 582 565 642 q 726 676 654 643 q 889 708 799 708 q 1019 680 965 708 q 1099 605 1072 651 q 1125 504 1125 558 q 1094 392 1125 446 q 1003 303 1063 338 q 860 269 943 269 q 761 286 815 269 q 707 335 707 303 q 713 356 707 346 q 728 365 719 365 q 756 356 732 365 q 817 347 779 347 q 947 394 900 347 q 993 506 993 442 q 958 599 993 560 q 861 639 924 639 q 722 560 772 639 q 672 336 672 482 q 725 142 672 213 q 878 72 778 72 q 1081 151 1000 72 q 1093 157 1086 157 q 1117 144 1104 157 q 1129 117 1129 131 q 1124 104 1129 110 q 1001 13 1072 44 q 849 -19 931 -19 q 681 24 753 -19 q 569 147 608 68 q 464 24 533 68 q 299 -19 394 -19 q 169 9 222 -19 q 89 84 115 38 q 63 185 63 131 q 94 301 63 246 q 185 390 125 356 q 328 425 244 425 q 435 408 376 425 q 494 360 494 392 q 488 339 494 349 q 474 329 482 329 q 441 338 468 329 q 371 347 414 347 q 241 299 288 347 q 194 183 194 250 q 229 93 194 131 q 326 56 264 56 q 476 133 422 56 q 529 353 529 210 q 476 547 529 476 q 324 617 424 617 q 210 601 250 617 q 147 570 169 586 q 118 554 124 554 q 94 567 107 554 q 82 594 82 581 q 119 638 82 610 q 217 687 156 665 q 353 708 279 708 z "},"b":{"ha":819,"x_min":35,"x_max":757,"o":"m 418 631 q 357 622 381 631 q 329 613 333 613 q 315 622 321 613 q 308 643 308 632 q 321 668 308 660 q 461 708 385 708 q 615 665 547 708 q 719 546 682 622 q 757 372 757 469 q 710 172 757 261 q 581 31 663 82 q 396 -19 499 -19 q 246 4 315 -19 q 136 68 176 28 l 136 936 q 130 960 136 953 q 108 967 124 967 l 47 967 l 35 1003 q 126 1063 75 1039 q 218 1086 178 1086 q 250 1074 238 1086 q 263 1042 263 1061 l 263 103 q 330 69 296 79 q 408 58 364 58 q 556 135 501 58 q 610 344 610 213 q 585 493 610 428 q 518 594 561 558 q 418 631 475 631 z "},"c":{"ha":707,"x_min":63,"x_max":651,"o":"m 604 143 q 617 147 608 147 q 640 135 628 147 q 651 108 651 122 q 647 96 651 100 q 534 10 599 40 q 397 -19 469 -19 q 225 27 301 -19 q 106 156 149 74 q 63 343 63 239 q 104 535 63 453 q 222 663 146 618 q 399 708 297 708 q 574 656 506 708 q 643 522 643 604 q 605 424 643 463 q 507 386 567 386 q 481 401 481 386 q 490 421 481 406 q 507 458 500 436 q 514 515 514 481 q 478 603 514 571 q 383 636 443 636 q 256 558 304 636 q 207 354 207 481 q 265 149 207 225 q 421 74 322 74 q 604 143 521 74 z "},"ç":{"ha":707,"x_min":63,"x_max":651,"o":"m 617 147 q 640 135 628 147 q 651 108 651 122 q 647 96 651 100 q 534 10 599 40 q 397 -19 469 -19 q 363 -18 374 -19 l 301 -97 q 354 -92 325 -92 q 466 -132 421 -92 q 511 -249 511 -172 q 486 -329 511 -292 q 418 -388 461 -367 q 322 -410 375 -410 q 216 -381 261 -410 q 171 -303 171 -353 q 197 -244 171 -267 q 260 -222 222 -222 q 277 -226 271 -222 q 283 -236 283 -231 q 274 -256 283 -240 q 264 -297 264 -271 q 281 -336 264 -321 q 321 -351 297 -351 q 385 -320 361 -351 q 408 -246 408 -289 q 384 -174 408 -204 q 315 -143 360 -143 q 239 -167 278 -143 l 211 -142 l 313 -10 q 131 115 200 18 q 63 343 63 211 q 104 535 63 453 q 222 663 146 618 q 399 708 297 708 q 574 656 506 708 q 643 522 643 604 q 605 424 643 463 q 507 386 567 386 q 481 401 481 386 q 490 421 481 406 q 507 458 500 436 q 514 515 514 481 q 478 603 514 571 q 383 636 443 636 q 256 558 304 636 q 207 354 207 481 q 265 149 207 225 q 421 74 322 74 q 604 143 521 74 q 617 147 608 147 z "},"d":{"ha":839,"x_min":63,"x_max":818,"o":"m 681 122 q 722 79 681 79 q 792 104 757 79 l 818 68 q 740 4 782 28 q 664 -19 699 -19 q 582 15 607 -19 q 557 128 557 50 q 440 14 500 47 q 311 -19 381 -19 q 188 19 244 -19 q 97 133 131 57 q 63 318 63 210 q 106 526 63 438 q 231 661 150 614 q 422 708 313 708 q 554 690 494 708 l 554 936 q 548 960 554 953 q 526 967 542 967 l 465 967 l 453 1003 q 545 1063 493 1039 q 636 1086 597 1086 q 668 1074 656 1086 q 681 1042 681 1061 l 681 122 m 208 344 q 253 150 208 213 q 367 88 299 88 q 471 119 422 88 q 557 214 519 150 l 557 589 q 421 632 493 632 q 264 556 319 632 q 208 344 208 481 z "},"ð":{"ha":811,"x_min":60,"x_max":776,"o":"m 776 1043 q 771 963 776 986 q 747 931 765 940 l 632 874 q 722 603 693 754 q 751 331 751 453 q 709 146 751 225 q 588 24 667 67 q 406 -19 510 -19 q 222 24 300 -19 q 102 146 144 67 q 60 331 60 225 q 153 586 60 492 q 406 681 246 681 q 599 597 524 681 q 535 825 574 731 l 397 756 q 403 835 397 811 q 426 868 408 860 l 497 903 q 418 1000 461 965 q 328 1035 375 1035 q 249 1002 278 1035 q 221 922 221 969 q 234 855 221 881 q 264 812 247 829 q 281 790 281 794 q 258 776 281 776 q 144 820 186 776 q 103 924 103 864 q 128 1008 103 968 q 204 1073 153 1049 q 329 1097 256 1097 q 588 949 481 1097 l 776 1043 m 422 56 q 568 126 514 56 q 622 318 622 197 q 594 469 622 403 q 516 572 567 535 q 401 608 465 608 q 258 533 311 608 q 204 331 204 458 q 232 186 204 249 q 310 90 260 124 q 422 56 360 56 z "},"e":{"ha":735,"x_min":63,"x_max":663,"o":"m 657 104 q 535 13 606 44 q 382 -19 464 -19 q 214 25 286 -19 q 102 150 142 69 q 63 336 63 231 q 107 531 63 447 q 233 662 151 615 q 422 708 314 708 q 552 680 499 708 q 632 605 606 651 q 658 504 658 558 q 627 392 658 446 q 536 303 596 338 q 393 269 476 269 q 294 286 349 269 q 240 335 240 303 q 247 356 240 346 q 261 365 253 365 q 289 356 265 365 q 350 347 313 347 q 480 394 433 347 q 526 506 526 442 q 492 599 526 560 q 394 639 457 639 q 256 560 306 639 q 206 336 206 482 q 258 142 206 213 q 411 72 311 72 q 614 151 533 72 q 626 157 619 157 q 650 144 638 157 q 663 117 663 131 q 657 104 663 110 z "},"é":{"ha":735,"x_min":63,"x_max":663,"o":"m 657 104 q 535 13 606 44 q 382 -19 464 -19 q 214 25 286 -19 q 102 150 142 69 q 63 336 63 231 q 107 531 63 447 q 233 662 151 615 q 422 708 314 708 q 552 680 499 708 q 632 605 606 651 q 658 504 658 558 q 627 392 658 446 q 536 303 596 338 q 393 269 476 269 q 294 286 349 269 q 240 335 240 303 q 247 356 240 346 q 261 365 253 365 q 289 356 265 365 q 350 347 313 347 q 480 394 433 347 q 526 506 526 442 q 492 599 526 560 q 394 639 457 639 q 256 560 306 639 q 206 336 206 482 q 258 142 206 213 q 411 72 311 72 q 614 151 533 72 q 626 157 619 157 q 650 144 638 157 q 663 117 663 131 q 657 104 663 110 m 446 1056 q 488 1020 472 1043 q 504 968 504 997 q 486 913 504 938 q 426 868 468 889 l 269 790 l 229 839 l 446 1056 z "},"ê":{"ha":735,"x_min":63,"x_max":663,"o":"m 657 104 q 535 13 606 44 q 382 -19 464 -19 q 214 25 286 -19 q 102 150 142 69 q 63 336 63 231 q 107 531 63 447 q 233 662 151 615 q 422 708 314 708 q 552 680 499 708 q 632 605 606 651 q 658 504 658 558 q 627 392 658 446 q 536 303 596 338 q 393 269 476 269 q 294 286 349 269 q 240 335 240 303 q 247 356 240 346 q 261 365 253 365 q 289 356 265 365 q 350 347 313 347 q 480 394 433 347 q 526 506 526 442 q 492 599 526 560 q 394 639 457 639 q 256 560 306 639 q 206 336 206 482 q 258 142 206 213 q 411 72 311 72 q 614 151 533 72 q 626 157 619 157 q 650 144 638 157 q 663 117 663 131 q 657 104 663 110 m 386 1049 q 463 969 411 1033 q 557 829 514 906 l 513 790 l 367 906 l 222 790 l 176 829 q 271 969 221 907 q 349 1049 321 1032 l 386 1049 z "},"ë":{"ha":735,"x_min":63,"x_max":663,"o":"m 657 104 q 535 13 606 44 q 382 -19 464 -19 q 214 25 286 -19 q 102 150 142 69 q 63 336 63 231 q 107 531 63 447 q 233 662 151 615 q 422 708 314 708 q 552 680 499 708 q 632 605 606 651 q 658 504 658 558 q 627 392 658 446 q 536 303 596 338 q 393 269 476 269 q 294 286 349 269 q 240 335 240 303 q 247 356 240 346 q 261 365 253 365 q 289 356 265 365 q 350 347 313 347 q 480 394 433 347 q 526 506 526 442 q 492 599 526 560 q 394 639 457 639 q 256 560 306 639 q 206 336 206 482 q 258 142 206 213 q 411 72 311 72 q 614 151 533 72 q 626 157 619 157 q 650 144 638 157 q 663 117 663 131 q 657 104 663 110 m 150 914 q 180 973 150 940 q 235 1006 210 1006 q 292 974 261 1006 q 322 914 322 942 q 292 856 322 888 q 235 824 261 824 q 181 856 211 824 q 150 914 150 888 m 413 914 q 442 973 413 940 q 497 1006 472 1006 q 554 974 524 1006 q 585 914 585 942 q 554 856 585 888 q 497 824 524 824 q 443 856 474 824 q 413 914 413 888 z "},"è":{"ha":735,"x_min":63,"x_max":663,"o":"m 657 104 q 535 13 606 44 q 382 -19 464 -19 q 214 25 286 -19 q 102 150 142 69 q 63 336 63 231 q 107 531 63 447 q 233 662 151 615 q 422 708 314 708 q 552 680 499 708 q 632 605 606 651 q 658 504 658 558 q 627 392 658 446 q 536 303 596 338 q 393 269 476 269 q 294 286 349 269 q 240 335 240 303 q 247 356 240 346 q 261 365 253 365 q 289 356 265 365 q 350 347 313 347 q 480 394 433 347 q 526 506 526 442 q 492 599 526 560 q 394 639 457 639 q 256 560 306 639 q 206 336 206 482 q 258 142 206 213 q 411 72 311 72 q 614 151 533 72 q 626 157 619 157 q 650 144 638 157 q 663 117 663 131 q 657 104 663 110 m 464 790 l 307 868 q 247 913 265 889 q 229 968 229 938 q 245 1020 229 997 q 288 1056 261 1043 l 504 839 l 464 790 z "},"f":{"ha":464,"x_min":-146,"x_max":617,"o":"m 151 690 q 217 981 151 875 q 410 1086 282 1086 q 558 1043 500 1086 q 617 932 617 1000 q 578 834 617 872 q 481 796 540 796 q 454 811 454 796 q 464 831 454 815 q 481 868 474 846 q 488 925 488 890 q 463 997 488 969 q 394 1024 438 1024 q 305 963 333 1024 q 276 796 276 903 l 276 690 l 471 690 q 463 638 471 661 q 439 603 454 614 l 276 603 l 276 -18 q 213 -247 276 -162 q 26 -331 150 -331 q -97 -292 -49 -331 q -146 -189 -146 -254 q -107 -100 -146 -136 q -10 -64 -68 -64 q 17 -79 17 -64 q 6 -98 17 -83 q -14 -131 -6 -112 q -22 -179 -22 -150 q -1 -247 -22 -222 q 54 -271 21 -271 q 124 -234 96 -271 q 151 -125 151 -197 l 151 603 l 29 603 q 35 651 29 640 q 63 668 40 663 l 151 690 z "},"g":{"ha":836,"x_min":83,"x_max":736,"o":"m 411 -314 q 538 -243 497 -314 q 578 -53 578 -172 l 578 168 q 461 54 521 88 q 332 21 401 21 q 208 55 265 21 q 117 156 151 89 q 83 318 83 222 q 127 526 83 438 q 252 661 171 614 q 443 708 333 708 q 596 690 497 708 q 721 674 679 676 l 736 656 l 719 631 q 706 605 710 617 q 701 576 701 593 l 701 -31 q 619 -294 701 -201 q 393 -386 536 -386 q 263 -358 317 -386 q 182 -284 208 -329 q 156 -187 156 -239 q 203 -69 156 -118 q 332 -19 250 -19 q 352 -24 346 -19 q 358 -35 358 -29 q 339 -61 358 -40 q 305 -111 319 -82 q 290 -185 290 -140 q 323 -277 290 -240 q 411 -314 356 -314 m 229 344 q 274 181 229 233 q 388 128 319 128 q 492 159 443 128 q 578 254 540 190 l 578 589 q 442 632 514 632 q 285 556 340 632 q 229 344 229 481 z "},"h":{"ha":888,"x_min":49,"x_max":860,"o":"m 150 936 q 144 960 150 953 q 122 967 138 967 l 61 967 l 49 1003 q 141 1063 89 1039 q 232 1086 193 1086 q 264 1074 251 1086 q 276 1042 276 1061 l 276 501 q 385 650 313 592 q 536 708 457 708 q 680 649 638 708 q 722 456 722 589 l 722 119 q 764 72 722 72 q 833 101 799 72 l 860 65 q 782 1 824 25 q 704 -22 740 -22 q 622 13 647 -22 q 597 125 597 47 l 597 456 q 570 565 597 529 q 478 600 543 600 q 373 553 418 600 q 302 419 328 506 q 276 222 276 333 q 286 118 276 157 q 321 43 296 79 l 338 21 l 321 0 l 78 0 l 63 43 l 92 50 q 138 80 126 58 q 150 154 150 101 l 150 936 z "},"i":{"ha":433,"x_min":49,"x_max":413,"o":"m 128 914 q 158 973 128 940 q 213 1006 188 1006 q 269 974 239 1006 q 300 914 300 942 q 269 856 300 888 q 213 824 239 824 q 158 856 189 824 q 128 914 128 888 m 275 122 q 317 75 275 75 q 386 104 351 75 l 413 68 q 335 4 376 28 q 257 -19 293 -19 q 175 15 200 -19 q 150 128 150 50 l 150 558 q 144 582 150 575 q 122 589 138 589 l 61 589 l 49 625 q 140 685 89 661 q 232 708 192 708 q 264 696 251 708 q 276 664 276 683 l 275 122 z "},"ı":{"ha":433,"x_min":49,"x_max":413,"o":"m 275 122 q 317 75 275 75 q 386 104 351 75 l 413 68 q 335 4 376 28 q 257 -19 293 -19 q 175 15 200 -19 q 150 128 150 50 l 150 558 q 144 582 150 575 q 122 589 138 589 l 61 589 l 49 625 q 140 685 89 661 q 232 708 192 708 q 264 696 251 708 q 276 664 276 683 l 275 122 z "},"í":{"ha":433,"x_min":49,"x_max":413,"o":"m 275 122 q 317 75 275 75 q 386 104 351 75 l 413 68 q 335 4 376 28 q 257 -19 293 -19 q 175 15 200 -19 q 150 128 150 50 l 150 558 q 144 582 150 575 q 122 589 138 589 l 61 589 l 49 625 q 140 685 89 661 q 232 708 192 708 q 264 696 251 708 q 276 664 276 683 l 275 122 m 296 1056 q 338 1020 322 1043 q 354 968 354 997 q 336 913 354 938 q 276 868 318 889 l 119 790 l 79 839 l 296 1056 z "},"î":{"ha":433,"x_min":26,"x_max":413,"o":"m 275 122 q 317 75 275 75 q 386 104 351 75 l 413 68 q 335 4 376 28 q 257 -19 293 -19 q 175 15 200 -19 q 150 128 150 50 l 150 558 q 144 582 150 575 q 122 589 138 589 l 61 589 l 49 625 q 140 685 89 661 q 232 708 192 708 q 264 696 251 708 q 276 664 276 683 l 275 122 m 236 1049 q 313 969 261 1033 q 407 829 364 906 l 363 790 l 217 906 l 72 790 l 26 829 q 121 969 71 907 q 199 1049 171 1032 l 236 1049 z "},"ï":{"ha":433,"x_min":0,"x_max":435,"o":"m 275 122 q 317 75 275 75 q 386 104 351 75 l 413 68 q 335 4 376 28 q 257 -19 293 -19 q 175 15 200 -19 q 150 128 150 50 l 150 558 q 144 582 150 575 q 122 589 138 589 l 61 589 l 49 625 q 140 685 89 661 q 232 708 192 708 q 264 696 251 708 q 276 664 276 683 l 275 122 m 0 914 q 30 973 0 940 q 85 1006 60 1006 q 142 974 111 1006 q 172 914 172 942 q 142 856 172 888 q 85 824 111 824 q 31 856 61 824 q 0 914 0 888 m 263 914 q 292 973 263 940 q 347 1006 322 1006 q 404 974 374 1006 q 435 914 435 942 q 404 856 435 888 q 347 824 374 824 q 293 856 324 824 q 263 914 263 888 z "},"ì":{"ha":433,"x_min":49,"x_max":413,"o":"m 275 122 q 317 75 275 75 q 386 104 351 75 l 413 68 q 335 4 376 28 q 257 -19 293 -19 q 175 15 200 -19 q 150 128 150 50 l 150 558 q 144 582 150 575 q 122 589 138 589 l 61 589 l 49 625 q 140 685 89 661 q 232 708 192 708 q 264 696 251 708 q 276 664 276 683 l 275 122 m 314 790 l 157 868 q 97 913 115 889 q 79 968 79 938 q 95 1020 79 997 q 138 1056 111 1043 l 354 839 l 314 790 z "},"j":{"ha":404,"x_min":-154,"x_max":293,"o":"m 121 914 q 151 973 121 940 q 206 1006 181 1006 q 263 974 232 1006 q 293 914 293 942 q 263 856 293 888 q 206 824 232 824 q 151 856 182 824 q 121 914 121 888 m 143 558 q 137 582 143 575 q 115 589 131 589 l 54 589 l 42 625 q 134 685 82 661 q 225 708 186 708 q 257 696 244 708 q 269 664 269 683 l 269 -74 q 206 -302 269 -218 q 18 -386 143 -386 q -106 -348 -57 -386 q -154 -244 -154 -310 q -115 -156 -154 -192 q -18 -119 -76 -119 q 8 -135 8 -119 q -3 -153 8 -139 q -22 -187 -14 -168 q -31 -235 -31 -206 q -9 -302 -31 -278 q 46 -326 13 -326 q 115 -290 88 -326 q 143 -181 143 -253 l 143 558 z "},"k":{"ha":811,"x_min":49,"x_max":783,"o":"m 351 328 q 325 357 325 335 q 330 376 325 368 q 346 383 335 383 q 374 377 350 383 q 435 371 397 371 q 522 392 486 371 q 576 446 558 413 q 594 514 594 479 q 570 584 594 556 q 501 613 546 613 q 382 564 433 613 q 303 426 331 515 q 276 222 276 338 q 286 116 276 156 q 321 43 296 76 l 338 21 l 321 0 l 78 0 l 63 43 l 92 50 q 138 80 126 58 q 150 154 150 101 l 150 936 q 144 960 150 953 q 122 967 138 967 l 61 967 l 49 1003 q 141 1063 89 1039 q 232 1086 193 1086 q 264 1074 251 1086 q 276 1042 276 1061 l 276 501 q 381 651 311 593 q 528 708 451 708 q 669 656 619 708 q 719 526 719 603 q 695 431 719 478 q 624 352 671 385 q 514 313 578 319 l 622 107 q 647 76 633 85 q 681 68 661 68 q 718 78 699 68 q 754 104 738 88 l 783 68 q 635 -19 719 -19 q 565 -3 593 -19 q 516 43 536 14 q 467 128 496 72 l 364 324 l 351 328 z "},"l":{"ha":419,"x_min":35,"x_max":399,"o":"m 261 122 q 303 75 261 75 q 372 104 338 75 l 399 68 q 321 4 363 28 q 243 -19 279 -19 q 161 15 186 -19 q 136 128 136 50 l 136 936 q 130 960 136 953 q 108 967 124 967 l 47 967 l 35 1003 q 126 1063 75 1039 q 218 1086 178 1086 q 250 1074 238 1086 q 263 1042 263 1061 l 261 122 z "},"ł":{"ha":419,"x_min":-7,"x_max":415,"o":"m 303 75 q 372 104 338 75 l 399 68 q 321 4 363 28 q 243 -19 279 -19 q 161 15 186 -19 q 136 128 136 50 l 136 411 l -7 339 q -1 427 -7 400 q 26 464 6 454 l 136 519 l 136 936 q 130 960 136 953 q 108 967 124 967 l 47 967 l 35 1003 q 126 1063 75 1039 q 218 1086 178 1086 q 250 1074 238 1086 q 263 1042 263 1061 l 261 582 l 415 658 q 409 570 415 597 q 382 533 403 543 l 261 474 l 261 122 q 303 75 261 75 z "},"m":{"ha":1307,"x_min":56,"x_max":1279,"o":"m 283 222 q 293 118 283 157 q 328 43 303 79 l 344 21 l 328 0 l 85 0 l 69 43 l 99 50 q 145 80 133 58 q 157 154 157 101 l 157 544 q 151 568 157 561 q 129 575 144 575 l 68 575 l 56 611 q 148 671 96 647 q 239 694 200 694 q 271 682 258 694 q 283 650 283 669 l 283 501 q 389 651 319 593 q 535 708 458 708 q 663 658 619 708 q 713 501 706 608 q 818 651 749 593 q 964 708 888 708 q 1099 649 1057 708 q 1142 458 1142 589 l 1142 122 q 1183 75 1142 75 q 1253 104 1215 75 l 1279 68 q 1201 4 1243 28 q 1124 -19 1160 -19 q 1042 15 1067 -19 q 1017 128 1017 50 l 1017 458 q 914 600 1017 600 q 811 555 856 600 q 740 428 767 510 q 713 239 714 346 l 713 222 q 724 108 713 150 q 774 21 736 65 l 757 0 l 588 0 l 588 458 q 485 600 588 600 q 380 553 425 600 q 309 419 335 506 q 283 222 283 333 z "},"n":{"ha":894,"x_min":56,"x_max":867,"o":"m 283 222 q 293 118 283 157 q 328 43 303 79 l 344 21 l 328 0 l 85 0 l 69 43 l 99 50 q 145 80 133 58 q 157 154 157 101 l 157 544 q 151 568 157 561 q 129 575 144 575 l 68 575 l 56 611 q 148 671 96 647 q 239 694 200 694 q 271 682 258 694 q 283 650 283 669 l 283 501 q 392 650 319 592 q 543 708 464 708 q 685 649 640 708 q 729 458 729 589 l 729 122 q 771 75 729 75 q 840 104 803 75 l 867 68 q 789 4 831 28 q 711 -19 747 -19 q 629 15 654 -19 q 604 128 604 50 l 604 458 q 485 600 604 600 q 380 553 425 600 q 309 419 335 506 q 283 222 283 333 z "},"ñ":{"ha":894,"x_min":56,"x_max":867,"o":"m 283 222 q 293 118 283 157 q 328 43 303 79 l 344 21 l 328 0 l 85 0 l 69 43 l 99 50 q 145 80 133 58 q 157 154 157 101 l 157 544 q 151 568 157 561 q 129 575 144 575 l 68 575 l 56 611 q 148 671 96 647 q 239 694 200 694 q 271 682 258 694 q 283 650 283 669 l 283 501 q 392 650 319 592 q 543 708 464 708 q 685 649 640 708 q 729 458 729 589 l 729 122 q 771 75 729 75 q 840 104 803 75 l 867 68 q 789 4 831 28 q 711 -19 747 -19 q 629 15 654 -19 q 604 128 604 50 l 604 458 q 485 600 604 600 q 380 553 425 600 q 309 419 335 506 q 283 222 283 333 m 672 961 q 581 863 628 899 q 494 826 533 826 q 454 834 472 826 q 417 854 436 842 q 388 870 399 865 q 363 875 376 875 q 269 821 324 875 l 221 864 q 313 963 267 926 q 400 999 360 999 q 437 992 421 999 q 475 972 453 985 q 506 956 494 961 q 531 950 517 950 q 625 1004 569 950 l 672 961 z "},"o":{"ha":803,"x_min":63,"x_max":740,"o":"m 63 344 q 103 538 63 456 q 222 664 144 619 q 401 708 299 708 q 581 664 504 708 q 699 538 657 619 q 740 344 740 456 q 699 152 740 235 q 581 25 657 69 q 401 -19 504 -19 q 222 25 299 -19 q 103 152 144 69 q 63 344 63 235 m 594 340 q 576 474 594 406 q 516 589 558 542 q 406 636 474 636 q 302 599 347 636 q 232 496 257 563 q 207 343 207 429 q 258 133 207 211 q 397 56 310 56 q 499 91 454 56 q 569 191 544 126 q 594 340 594 256 z "},"ó":{"ha":803,"x_min":63,"x_max":740,"o":"m 63 344 q 103 538 63 456 q 222 664 144 619 q 401 708 299 708 q 581 664 504 708 q 699 538 657 619 q 740 344 740 456 q 699 152 740 235 q 581 25 657 69 q 401 -19 504 -19 q 222 25 299 -19 q 103 152 144 69 q 63 344 63 235 m 594 340 q 576 474 594 406 q 516 589 558 542 q 406 636 474 636 q 302 599 347 636 q 232 496 257 563 q 207 343 207 429 q 258 133 207 211 q 397 56 310 56 q 499 91 454 56 q 569 191 544 126 q 594 340 594 256 m 510 1056 q 552 1020 536 1043 q 568 968 568 997 q 550 913 568 938 q 490 868 532 889 l 333 790 l 293 839 l 510 1056 z "},"ô":{"ha":803,"x_min":63,"x_max":740,"o":"m 63 344 q 103 538 63 456 q 222 664 144 619 q 401 708 299 708 q 581 664 504 708 q 699 538 657 619 q 740 344 740 456 q 699 152 740 235 q 581 25 657 69 q 401 -19 504 -19 q 222 25 299 -19 q 103 152 144 69 q 63 344 63 235 m 594 340 q 576 474 594 406 q 516 589 558 542 q 406 636 474 636 q 302 599 347 636 q 232 496 257 563 q 207 343 207 429 q 258 133 207 211 q 397 56 310 56 q 499 91 454 56 q 569 191 544 126 q 594 340 594 256 m 424 1049 q 500 969 449 1033 q 594 829 551 906 l 550 790 l 404 906 l 260 790 l 214 829 q 308 969 258 907 q 386 1049 358 1032 l 424 1049 z "},"ö":{"ha":803,"x_min":63,"x_max":740,"o":"m 63 344 q 103 538 63 456 q 222 664 144 619 q 401 708 299 708 q 581 664 504 708 q 699 538 657 619 q 740 344 740 456 q 699 152 740 235 q 581 25 657 69 q 401 -19 504 -19 q 222 25 299 -19 q 103 152 144 69 q 63 344 63 235 m 594 340 q 576 474 594 406 q 516 589 558 542 q 406 636 474 636 q 302 599 347 636 q 232 496 257 563 q 207 343 207 429 q 258 133 207 211 q 397 56 310 56 q 499 91 454 56 q 569 191 544 126 q 594 340 594 256 m 188 914 q 217 973 188 940 q 272 1006 247 1006 q 329 974 299 1006 q 360 914 360 942 q 329 856 360 888 q 272 824 299 824 q 218 856 249 824 q 188 914 188 888 m 450 914 q 480 973 450 940 q 535 1006 510 1006 q 592 974 561 1006 q 622 914 622 942 q 592 856 622 888 q 535 824 561 824 q 481 856 511 824 q 450 914 450 888 z "},"ò":{"ha":803,"x_min":63,"x_max":740,"o":"m 63 344 q 103 538 63 456 q 222 664 144 619 q 401 708 299 708 q 581 664 504 708 q 699 538 657 619 q 740 344 740 456 q 699 152 740 235 q 581 25 657 69 q 401 -19 504 -19 q 222 25 299 -19 q 103 152 144 69 q 63 344 63 235 m 594 340 q 576 474 594 406 q 516 589 558 542 q 406 636 474 636 q 302 599 347 636 q 232 496 257 563 q 207 343 207 429 q 258 133 207 211 q 397 56 310 56 q 499 91 454 56 q 569 191 544 126 q 594 340 594 256 m 490 790 l 333 868 q 274 913 292 889 q 256 968 256 938 q 272 1020 256 997 q 314 1056 288 1043 l 531 839 l 490 790 z "},"ø":{"ha":803,"x_min":63,"x_max":740,"o":"m 560 675 q 693 549 646 633 q 740 344 740 464 q 699 152 740 235 q 581 25 657 69 q 401 -19 504 -19 q 315 -11 357 -19 l 286 -94 l 213 -94 l 250 11 q 112 138 161 51 q 63 344 63 225 q 103 538 63 456 q 222 664 144 619 q 401 708 299 708 q 493 699 453 708 l 524 785 l 599 785 l 560 675 m 207 343 q 226 203 207 264 q 282 104 246 142 l 467 624 q 406 636 440 636 q 302 599 347 636 q 232 496 257 563 q 207 343 207 429 m 397 56 q 499 91 454 56 q 569 191 544 126 q 594 340 594 256 q 578 469 594 404 q 525 578 561 535 l 343 65 q 397 56 367 56 z "},"õ":{"ha":803,"x_min":63,"x_max":740,"o":"m 63 344 q 103 538 63 456 q 222 664 144 619 q 401 708 299 708 q 581 664 504 708 q 699 538 657 619 q 740 344 740 456 q 699 152 740 235 q 581 25 657 69 q 401 -19 504 -19 q 222 25 299 -19 q 103 152 144 69 q 63 344 63 235 m 594 340 q 576 474 594 406 q 516 589 558 542 q 406 636 474 636 q 302 599 347 636 q 232 496 257 563 q 207 343 207 429 q 258 133 207 211 q 397 56 310 56 q 499 91 454 56 q 569 191 544 126 q 594 340 594 256 m 631 961 q 539 863 586 899 q 453 826 492 826 q 413 834 431 826 q 375 854 394 842 q 346 870 357 865 q 321 875 335 875 q 228 821 282 875 l 179 864 q 272 963 225 926 q 358 999 318 999 q 395 992 379 999 q 433 972 411 985 q 464 956 453 961 q 489 950 475 950 q 583 1004 528 950 l 631 961 z "},"œ":{"ha":1269,"x_min":63,"x_max":1197,"o":"m 1161 157 q 1185 144 1172 157 q 1197 117 1197 131 q 1192 104 1197 110 q 917 -19 1068 -19 q 773 12 836 -19 q 667 100 710 43 q 553 11 621 42 q 401 -19 486 -19 q 222 25 299 -19 q 103 152 144 69 q 63 344 63 235 q 103 538 63 456 q 222 664 144 619 q 401 708 299 708 q 559 676 490 708 q 674 581 628 643 q 794 675 721 642 q 957 708 867 708 q 1087 680 1033 708 q 1167 605 1140 651 q 1193 504 1193 558 q 1162 392 1193 446 q 1071 303 1131 338 q 928 269 1011 269 q 829 286 883 269 q 775 335 775 303 q 781 356 775 346 q 796 365 788 365 q 824 356 800 365 q 885 347 847 347 q 1015 394 968 347 q 1061 506 1061 442 q 1026 599 1061 560 q 929 639 992 639 q 790 560 840 639 q 740 336 740 482 q 793 142 740 213 q 946 72 846 72 q 1149 151 1069 72 q 1161 157 1154 157 m 397 56 q 499 91 454 56 q 569 191 544 126 q 594 340 594 256 q 576 474 594 406 q 516 589 558 542 q 406 636 474 636 q 302 599 347 636 q 232 496 257 563 q 207 343 207 429 q 258 133 207 211 q 397 56 310 56 z "},"p":{"ha":826,"x_min":42,"x_max":764,"o":"m 268 621 q 468 708 358 708 q 622 665 554 708 q 726 546 689 622 q 764 372 764 469 q 724 172 764 261 q 615 31 685 82 q 458 -19 546 -19 q 319 18 376 -19 q 307 43 307 26 q 312 67 307 57 q 328 78 317 78 q 359 67 333 78 q 426 56 385 56 q 524 93 481 56 q 592 197 568 131 q 617 344 617 263 q 592 485 617 424 q 524 582 568 547 q 424 617 481 617 q 268 563 339 617 l 268 -215 q 280 -290 268 -268 q 326 -319 292 -311 l 356 -326 l 340 -369 l 99 -369 l 82 -349 l 99 -326 q 133 -251 124 -290 q 143 -147 143 -212 l 143 529 q 137 561 143 551 q 114 575 131 571 l 42 590 l 42 636 q 126 674 64 656 q 235 692 189 692 q 268 628 268 692 l 268 621 z "},"þ":{"ha":826,"x_min":42,"x_max":764,"o":"m 268 621 q 468 708 358 708 q 622 665 554 708 q 726 546 689 622 q 764 372 764 469 q 724 172 764 261 q 615 31 685 82 q 458 -19 546 -19 q 319 18 376 -19 q 307 43 307 26 q 312 67 307 57 q 328 78 317 78 q 359 67 333 78 q 426 56 385 56 q 524 93 481 56 q 592 197 568 131 q 617 344 617 263 q 592 485 617 424 q 524 582 568 547 q 424 617 481 617 q 268 563 339 617 l 268 -215 q 280 -290 268 -268 q 326 -319 292 -311 l 356 -326 l 340 -369 l 99 -369 l 82 -349 l 99 -326 q 133 -251 124 -290 q 143 -147 143 -212 l 143 924 q 137 956 143 946 q 114 969 131 965 l 42 985 l 42 1031 q 126 1068 64 1050 q 235 1086 189 1086 q 268 1022 268 1086 l 268 621 z "},"q":{"ha":818,"x_min":63,"x_max":731,"o":"m 683 -164 q 690 -265 683 -231 q 717 -326 697 -299 l 731 -349 l 714 -369 l 456 -369 l 456 -324 l 499 -304 q 544 -268 532 -289 q 557 -203 557 -247 l 557 128 q 440 14 500 47 q 311 -19 381 -19 q 188 19 244 -19 q 97 133 131 57 q 63 318 63 210 q 106 526 63 438 q 231 661 150 614 q 422 708 313 708 q 576 690 478 708 q 703 674 664 676 l 718 656 l 701 631 q 688 603 692 614 q 683 576 683 592 l 683 -164 m 208 344 q 253 150 208 213 q 367 88 299 88 q 471 119 422 88 q 557 214 519 150 l 557 589 q 421 632 493 632 q 264 556 319 632 q 208 344 208 481 z "},"r":{"ha":607,"x_min":56,"x_max":607,"o":"m 292 501 q 365 651 315 594 q 472 708 414 708 q 569 670 531 708 q 607 567 607 632 q 568 478 607 514 q 471 442 529 442 q 444 457 444 442 q 456 478 444 461 q 476 513 468 494 q 483 553 483 531 q 470 592 483 578 q 438 607 457 607 q 369 567 404 607 q 308 440 333 528 q 283 217 283 351 q 293 116 283 154 q 328 43 303 78 l 344 21 l 328 0 l 85 0 l 69 43 l 99 50 q 145 80 133 58 q 157 154 157 101 l 157 544 q 151 568 157 561 q 129 575 144 575 l 68 575 l 56 611 q 148 671 96 647 q 239 694 200 694 q 271 682 258 694 q 283 650 283 669 l 283 501 l 292 501 z "},"s":{"ha":668,"x_min":75,"x_max":592,"o":"m 335 49 q 428 80 392 49 q 465 161 465 111 q 427 233 465 206 q 314 293 389 261 q 201 347 246 321 q 124 416 156 374 q 92 521 92 458 q 163 656 92 604 q 344 708 235 708 q 508 669 443 708 q 574 565 574 631 q 541 478 574 513 q 457 444 508 444 q 428 463 428 444 q 438 491 428 468 q 449 540 449 514 q 414 617 449 592 q 335 642 379 642 q 245 613 278 642 q 213 540 213 585 q 253 458 213 489 q 375 393 294 426 q 486 341 442 365 q 561 279 531 317 q 592 189 592 242 q 517 38 592 94 q 317 -19 442 -19 q 143 28 211 -19 q 75 154 75 75 q 107 232 75 201 q 190 263 139 263 q 219 246 219 263 q 211 220 219 242 q 203 168 203 199 q 244 79 203 110 q 335 49 285 49 z "},"š":{"ha":643,"x_min":75,"x_max":592,"o":"m 335 49 q 428 80 392 49 q 465 161 465 111 q 427 233 465 206 q 314 293 389 261 q 201 347 246 321 q 124 416 156 374 q 92 521 92 458 q 163 656 92 604 q 344 708 235 708 q 508 669 443 708 q 574 565 574 631 q 541 478 574 513 q 457 444 508 444 q 428 463 428 444 q 438 491 428 468 q 449 540 449 514 q 414 617 449 592 q 335 642 379 642 q 245 613 278 642 q 213 540 213 585 q 253 458 213 489 q 375 393 294 426 q 486 341 442 365 q 561 279 531 317 q 592 189 592 242 q 517 38 592 94 q 317 -19 442 -19 q 143 28 211 -19 q 75 154 75 75 q 107 232 75 201 q 190 263 139 263 q 219 246 219 263 q 211 220 219 242 q 203 168 203 199 q 244 79 203 110 q 335 49 285 49 m 303 803 q 225 882 275 819 q 131 1022 175 944 l 176 1061 l 321 944 l 467 1061 l 511 1022 q 417 882 468 946 q 340 803 365 818 l 303 803 z "},"ß":{"ha":882,"x_min":18,"x_max":857,"o":"m 606 50 q 696 78 657 50 q 735 163 735 106 q 699 256 735 215 q 597 331 664 296 l 493 383 q 410 455 436 419 q 385 549 385 490 q 406 619 385 583 q 468 707 426 654 q 542 816 518 772 q 567 908 567 860 q 534 990 567 965 q 453 1014 501 1014 q 319 943 363 1014 q 276 753 276 872 l 276 279 q 290 144 276 196 q 339 47 304 93 l 357 22 l 339 0 l 35 0 l 18 47 l 50 56 q 121 96 103 71 q 139 185 139 121 l 139 731 q 183 924 139 843 q 305 1045 226 1004 q 486 1086 383 1086 q 635 1040 576 1086 q 693 908 693 994 q 668 823 693 861 q 593 732 643 785 q 529 654 550 685 q 508 589 508 624 q 526 528 508 554 q 582 483 543 503 l 681 433 q 857 201 857 343 q 825 91 857 142 q 735 10 793 40 q 604 -19 678 -19 q 444 15 510 -19 q 432 43 432 24 q 437 67 432 57 q 453 78 442 78 q 481 71 463 78 q 606 50 540 50 z "},"t":{"ha":474,"x_min":15,"x_max":444,"o":"m 444 690 q 436 638 444 661 q 413 603 428 614 l 264 603 l 264 156 q 276 94 264 113 q 317 76 289 76 q 411 121 358 76 l 438 85 q 351 9 401 38 q 257 -19 301 -19 q 169 16 200 -19 q 138 114 138 51 l 138 603 l 15 603 q 21 651 15 640 q 49 668 26 663 q 153 731 122 688 q 199 844 185 775 q 213 872 203 867 q 264 878 224 878 l 264 690 l 444 690 z "},"u":{"ha":878,"x_min":42,"x_max":850,"o":"m 715 122 q 756 79 715 79 q 824 104 788 79 l 850 68 q 776 5 818 29 q 697 -19 733 -19 q 616 13 642 -19 q 590 114 590 44 q 495 17 558 53 q 356 -19 432 -19 q 199 41 256 -19 q 143 211 143 101 l 143 558 q 115 589 143 589 l 54 589 l 42 625 q 130 685 78 661 q 225 708 182 708 q 257 696 244 708 q 269 664 269 683 l 269 243 q 303 117 269 160 q 403 74 338 74 q 548 154 496 74 q 600 376 600 235 q 588 537 600 479 q 546 647 576 594 l 529 669 l 546 690 l 715 708 l 715 122 z "},"ú":{"ha":853,"x_min":42,"x_max":850,"o":"m 715 122 q 756 79 715 79 q 824 104 788 79 l 850 68 q 776 5 818 29 q 697 -19 733 -19 q 616 13 642 -19 q 590 114 590 44 q 495 17 558 53 q 356 -19 432 -19 q 199 41 256 -19 q 143 211 143 101 l 143 558 q 115 589 143 589 l 54 589 l 42 625 q 130 685 78 661 q 225 708 182 708 q 257 696 244 708 q 269 664 269 683 l 269 243 q 303 117 269 160 q 403 74 338 74 q 548 154 496 74 q 600 376 600 235 q 588 537 600 479 q 546 647 576 594 l 529 669 l 546 690 l 715 708 l 715 122 m 544 1056 q 587 1020 571 1043 q 603 968 603 997 q 585 913 603 938 q 525 868 567 889 l 368 790 l 328 839 l 544 1056 z "},"û":{"ha":853,"x_min":42,"x_max":850,"o":"m 715 122 q 756 79 715 79 q 824 104 788 79 l 850 68 q 776 5 818 29 q 697 -19 733 -19 q 616 13 642 -19 q 590 114 590 44 q 495 17 558 53 q 356 -19 432 -19 q 199 41 256 -19 q 143 211 143 101 l 143 558 q 115 589 143 589 l 54 589 l 42 625 q 130 685 78 661 q 225 708 182 708 q 257 696 244 708 q 269 664 269 683 l 269 243 q 303 117 269 160 q 403 74 338 74 q 548 154 496 74 q 600 376 600 235 q 588 537 600 479 q 546 647 576 594 l 529 669 l 546 690 l 715 708 l 715 122 m 446 1049 q 522 969 471 1033 q 617 829 574 906 l 572 790 l 426 906 l 282 790 l 236 829 q 331 969 281 907 q 408 1049 381 1032 l 446 1049 z "},"ü":{"ha":853,"x_min":42,"x_max":850,"o":"m 715 122 q 756 79 715 79 q 824 104 788 79 l 850 68 q 776 5 818 29 q 697 -19 733 -19 q 616 13 642 -19 q 590 114 590 44 q 495 17 558 53 q 356 -19 432 -19 q 199 41 256 -19 q 143 211 143 101 l 143 558 q 115 589 143 589 l 54 589 l 42 625 q 130 685 78 661 q 225 708 182 708 q 257 696 244 708 q 269 664 269 683 l 269 243 q 303 117 269 160 q 403 74 338 74 q 548 154 496 74 q 600 376 600 235 q 588 537 600 479 q 546 647 576 594 l 529 669 l 546 690 l 715 708 l 715 122 m 208 914 q 238 973 208 940 q 293 1006 268 1006 q 350 974 319 1006 q 381 914 381 942 q 350 856 381 888 q 293 824 319 824 q 239 856 269 824 q 208 914 208 888 m 471 914 q 501 973 471 940 q 556 1006 531 1006 q 613 974 582 1006 q 643 914 643 942 q 613 856 643 888 q 556 824 582 824 q 501 856 532 824 q 471 914 471 888 z "},"ù":{"ha":853,"x_min":42,"x_max":850,"o":"m 715 122 q 756 79 715 79 q 824 104 788 79 l 850 68 q 776 5 818 29 q 697 -19 733 -19 q 616 13 642 -19 q 590 114 590 44 q 495 17 558 53 q 356 -19 432 -19 q 199 41 256 -19 q 143 211 143 101 l 143 558 q 115 589 143 589 l 54 589 l 42 625 q 130 685 78 661 q 225 708 182 708 q 257 696 244 708 q 269 664 269 683 l 269 243 q 303 117 269 160 q 403 74 338 74 q 548 154 496 74 q 600 376 600 235 q 588 537 600 479 q 546 647 576 594 l 529 669 l 546 690 l 715 708 l 715 122 m 511 790 l 354 868 q 294 913 313 889 q 276 968 276 938 q 292 1020 276 997 q 335 1056 308 1043 l 551 839 l 511 790 z "},"v":{"ha":768,"x_min":0,"x_max":678,"o":"m 388 71 q 519 169 474 71 q 564 408 564 268 q 549 538 564 475 q 503 649 533 600 l 489 671 l 506 689 l 671 708 q 678 561 678 622 q 636 245 678 376 q 524 47 594 114 q 372 -19 454 -19 q 256 8 300 -19 q 186 95 213 35 q 144 264 160 156 l 101 558 q 93 583 99 576 q 74 589 88 589 l 13 589 l 0 625 q 86 685 36 661 q 175 708 136 708 q 219 664 213 708 l 282 231 q 318 108 294 144 q 388 71 342 71 z "},"w":{"ha":1129,"x_min":0,"x_max":1046,"o":"m 388 71 q 467 119 432 71 q 520 245 501 167 q 539 410 539 324 q 524 539 539 476 q 478 650 508 601 l 464 672 l 481 690 l 643 708 q 650 561 650 622 q 643 425 650 497 l 672 231 q 710 108 685 144 q 783 71 735 71 q 863 119 828 71 q 916 245 897 167 q 935 410 935 324 q 919 539 935 476 q 874 650 904 601 l 860 672 l 876 690 l 1039 708 q 1046 561 1046 622 q 1008 245 1046 376 q 908 47 971 114 q 774 -19 846 -19 q 648 20 693 -19 q 578 156 603 60 q 487 25 540 69 q 372 -19 433 -19 q 256 8 300 -19 q 186 95 213 35 q 144 264 160 156 l 101 558 q 93 583 99 576 q 74 589 88 589 l 13 589 l 0 625 q 86 685 36 661 q 175 708 136 708 q 219 664 213 708 l 282 231 q 318 108 294 144 q 388 71 342 71 z "},"x":{"ha":768,"x_min":28,"x_max":740,"o":"m 657 588 q 444 371 499 429 l 599 107 q 625 76 611 85 q 657 68 639 68 q 710 86 682 68 l 740 44 q 611 -19 681 -19 q 463 78 518 -19 l 350 269 q 228 88 228 128 q 254 43 228 65 l 281 21 l 264 0 l 49 0 l 33 29 l 64 60 q 321 321 253 249 l 169 582 q 143 613 157 604 q 111 621 129 621 q 58 603 86 621 l 28 644 q 157 708 88 708 q 306 611 250 708 l 414 422 q 536 603 536 561 q 510 647 536 625 l 483 669 l 500 690 l 715 690 l 731 661 l 657 588 z "},"y":{"ha":847,"x_min":42,"x_max":713,"o":"m 404 -386 q 274 -358 328 -386 q 193 -284 219 -329 q 167 -187 167 -239 q 214 -69 167 -118 q 343 -19 261 -19 q 363 -24 357 -19 q 369 -35 369 -29 q 350 -61 369 -40 q 316 -111 331 -82 q 301 -185 301 -140 q 334 -277 301 -240 q 422 -314 367 -314 q 549 -243 508 -314 q 589 -53 589 -172 l 589 153 q 493 56 557 92 q 353 21 429 21 q 199 81 254 21 q 143 251 143 142 l 143 560 q 137 583 143 576 q 115 590 131 590 l 54 590 l 42 626 q 130 686 78 663 q 225 710 182 710 q 257 697 244 710 q 269 665 269 685 l 269 283 q 303 157 269 200 q 400 114 336 114 q 545 184 493 114 q 597 378 597 254 q 588 547 597 492 q 543 649 578 603 l 526 671 l 543 692 l 713 710 l 713 -31 q 630 -294 713 -201 q 404 -386 547 -386 z "},"ý":{"ha":847,"x_min":42,"x_max":713,"o":"m 404 -386 q 274 -358 328 -386 q 193 -284 219 -329 q 167 -187 167 -239 q 214 -69 167 -118 q 343 -19 261 -19 q 363 -24 357 -19 q 369 -35 369 -29 q 350 -61 369 -40 q 316 -111 331 -82 q 301 -185 301 -140 q 334 -277 301 -240 q 422 -314 367 -314 q 549 -243 508 -314 q 589 -53 589 -172 l 589 153 q 493 56 557 92 q 353 21 429 21 q 199 81 254 21 q 143 251 143 142 l 143 560 q 137 583 143 576 q 115 590 131 590 l 54 590 l 42 626 q 130 686 78 663 q 225 710 182 710 q 257 697 244 710 q 269 665 269 685 l 269 283 q 303 157 269 200 q 400 114 336 114 q 545 184 493 114 q 597 378 597 254 q 588 547 597 492 q 543 649 578 603 l 526 671 l 543 692 l 713 710 l 713 -31 q 630 -294 713 -201 q 404 -386 547 -386 m 544 1056 q 587 1020 571 1043 q 603 968 603 997 q 585 913 603 938 q 525 868 567 889 l 368 790 l 328 839 l 544 1056 z "},"ÿ":{"ha":847,"x_min":42,"x_max":713,"o":"m 404 -386 q 274 -358 328 -386 q 193 -284 219 -329 q 167 -187 167 -239 q 214 -69 167 -118 q 343 -19 261 -19 q 363 -24 357 -19 q 369 -35 369 -29 q 350 -61 369 -40 q 316 -111 331 -82 q 301 -185 301 -140 q 334 -277 301 -240 q 422 -314 367 -314 q 549 -243 508 -314 q 589 -53 589 -172 l 589 153 q 493 56 557 92 q 353 21 429 21 q 199 81 254 21 q 143 251 143 142 l 143 560 q 137 583 143 576 q 115 590 131 590 l 54 590 l 42 626 q 130 686 78 663 q 225 710 182 710 q 257 697 244 710 q 269 665 269 685 l 269 283 q 303 157 269 200 q 400 114 336 114 q 545 184 493 114 q 597 378 597 254 q 588 547 597 492 q 543 649 578 603 l 526 671 l 543 692 l 713 710 l 713 -31 q 630 -294 713 -201 q 404 -386 547 -386 m 206 914 q 235 973 206 940 q 290 1006 265 1006 q 347 974 317 1006 q 378 914 378 942 q 347 856 378 888 q 290 824 317 824 q 236 856 267 824 q 206 914 206 888 m 468 914 q 498 973 468 940 q 553 1006 528 1006 q 610 974 579 1006 q 640 914 640 942 q 610 856 640 888 q 553 824 579 824 q 499 856 529 824 q 468 914 468 888 z "},"z":{"ha":665,"x_min":46,"x_max":619,"o":"m 435 81 q 509 92 488 81 q 539 139 531 104 l 556 213 l 599 197 l 599 -17 l 582 -33 q 517 -7 553 -14 q 417 0 482 0 l 61 0 l 46 43 l 436 610 l 228 610 q 153 598 175 610 q 124 551 132 586 l 107 478 l 64 493 l 64 707 l 81 724 q 145 697 110 704 q 246 690 181 690 l 592 690 q 619 631 619 667 l 582 608 l 217 81 l 435 81 z "},"ž":{"ha":665,"x_min":46,"x_max":619,"o":"m 435 81 q 509 92 488 81 q 539 139 531 104 l 556 213 l 599 197 l 599 -17 l 582 -33 q 517 -7 553 -14 q 417 0 482 0 l 61 0 l 46 43 l 436 610 l 228 610 q 153 598 175 610 q 124 551 132 586 l 107 478 l 64 493 l 64 707 l 81 724 q 145 697 110 704 q 246 690 181 690 l 592 690 q 619 631 619 667 l 582 608 l 217 81 l 435 81 m 322 803 q 244 882 294 819 q 150 1022 194 944 l 196 1061 l 340 944 l 486 1061 l 531 1022 q 436 882 488 946 q 360 803 385 818 l 322 803 z "},"ﬁ":{"ha":856,"x_min":-146,"x_max":807,"o":"m 276 -18 q 213 -247 276 -162 q 26 -331 150 -331 q -97 -292 -49 -331 q -146 -189 -146 -254 q -107 -100 -146 -136 q -10 -64 -68 -64 q 17 -79 17 -64 q 6 -98 17 -83 q -14 -131 -6 -112 q -22 -179 -22 -150 q -1 -247 -22 -222 q 54 -271 21 -271 q 124 -234 96 -271 q 151 -125 151 -197 l 151 603 l 29 603 q 35 651 29 640 q 63 668 40 663 l 156 690 q 256 981 172 875 q 488 1086 340 1086 q 636 1043 578 1086 q 694 932 694 1000 q 656 834 694 872 q 558 796 617 796 q 532 811 532 796 q 542 831 532 815 q 558 868 551 846 q 565 925 565 890 q 541 997 565 971 q 472 1024 517 1024 q 324 935 371 1024 q 276 690 276 847 l 517 690 q 577 694 553 690 q 626 708 601 699 q 658 696 646 708 q 669 664 669 683 l 669 122 q 711 75 669 75 q 781 104 746 75 l 807 68 q 729 4 771 28 q 651 -19 688 -19 q 569 15 594 -19 q 544 128 544 50 l 544 572 q 538 596 544 589 q 517 603 532 603 l 276 603 l 276 -18 z "},"ﬂ":{"ha":869,"x_min":-146,"x_max":849,"o":"m 156 690 q 251 980 171 874 q 468 1086 331 1086 q 599 1043 540 1086 q 647 1070 622 1060 q 683 1081 671 1081 q 707 1070 701 1081 q 713 1036 713 1060 l 711 122 q 753 75 711 75 q 822 104 788 75 l 849 68 q 771 4 813 28 q 693 -19 729 -19 q 611 15 636 -19 q 586 128 586 50 l 586 861 q 553 979 586 935 q 451 1024 519 1024 q 319 935 361 1024 q 276 690 276 847 l 471 690 q 463 638 471 661 q 439 603 454 614 l 276 603 l 276 -18 q 213 -247 276 -162 q 26 -331 150 -331 q -97 -292 -49 -331 q -146 -189 -146 -254 q -107 -100 -146 -136 q -10 -64 -68 -64 q 17 -79 17 -64 q 6 -98 17 -83 q -14 -131 -6 -112 q -22 -179 -22 -150 q -1 -247 -22 -222 q 54 -271 21 -271 q 124 -234 96 -271 q 151 -125 151 -197 l 151 603 l 29 603 q 35 651 29 640 q 63 668 40 663 l 156 690 z "},"ª":{"ha":553,"x_min":63,"x_max":539,"o":"m 339 854 q 272 957 339 957 q 197 851 197 957 q 142 831 172 831 q 103 845 118 831 q 88 883 88 860 q 113 949 88 919 q 181 997 138 979 q 272 1015 224 1015 q 402 972 361 1015 q 443 836 443 929 l 443 607 q 463 583 443 583 q 513 604 482 583 l 539 568 q 478 519 510 538 q 421 501 447 501 q 365 519 385 501 q 340 575 346 536 q 280 521 317 540 q 197 501 243 501 q 101 537 139 501 q 63 628 63 572 q 117 740 63 699 q 264 781 171 781 q 339 775 310 781 l 339 854 m 238 578 q 310 617 282 578 q 339 719 338 657 q 285 725 324 725 q 203 703 232 725 q 175 642 175 682 q 191 594 175 611 q 238 578 207 578 z "},"º":{"ha":604,"x_min":56,"x_max":549,"o":"m 56 758 q 122 946 56 876 q 301 1015 188 1015 q 482 946 415 1015 q 549 758 549 876 q 482 572 549 642 q 301 501 415 501 q 122 572 189 501 q 56 758 56 642 m 174 758 q 212 619 174 672 q 308 567 250 567 q 397 616 364 567 q 429 750 429 665 q 391 897 429 840 q 293 953 353 953 q 206 901 238 953 q 174 758 174 849 z "},"А":{"ha":981,"x_min":-22,"x_max":965,"o":"m 618 47 l 650 56 q 698 78 683 64 q 713 117 713 92 q 697 185 713 139 l 631 379 l 310 379 l 276 278 q 244 132 244 182 q 264 47 244 85 l 276 22 l 250 0 l -6 0 l -22 47 l 10 56 q 90 96 65 71 q 138 185 115 121 l 356 813 q 371 881 371 858 q 356 919 371 906 q 308 942 342 933 l 276 950 l 293 997 l 561 997 l 840 192 q 889 94 863 128 q 965 22 915 61 l 947 0 l 635 0 l 618 47 m 339 465 l 601 465 l 468 854 l 339 465 z "},"Б":{"ha":864,"x_min":56,"x_max":821,"o":"m 676 299 q 649 408 676 358 q 572 485 622 457 q 458 514 522 514 q 397 508 422 514 q 364 501 371 501 q 349 510 354 501 q 344 533 344 519 q 383 570 344 558 q 479 582 422 582 q 660 542 582 582 q 779 436 738 503 q 821 292 821 369 q 735 78 821 156 q 461 0 650 0 l 74 0 l 56 47 l 88 56 q 143 79 125 67 q 169 116 161 92 q 176 185 176 140 l 176 718 q 163 853 176 801 q 115 950 149 904 l 97 975 l 115 997 l 540 997 q 640 1003 603 997 q 697 1025 678 1010 l 722 1043 l 746 1025 l 746 779 l 697 763 l 690 794 q 660 873 676 847 q 616 909 643 899 q 539 919 589 919 l 403 919 q 347 910 365 919 q 322 879 329 901 q 315 813 315 857 l 315 254 q 360 106 315 140 q 468 72 406 72 q 621 135 565 72 q 676 299 676 197 z "},"В":{"ha":904,"x_min":56,"x_max":828,"o":"m 776 743 q 740 603 776 665 q 631 506 703 540 q 776 413 724 475 q 828 274 828 350 q 742 74 828 147 q 467 0 656 0 l 79 0 l 63 47 l 94 56 q 165 96 147 71 q 183 185 183 121 l 183 871 q 176 897 183 889 q 153 904 169 904 l 72 904 l 56 956 q 213 998 115 979 q 400 1017 310 1017 q 683 940 590 1017 q 776 743 776 864 m 321 254 q 367 106 321 140 q 475 72 413 72 q 628 130 572 72 q 683 281 683 188 q 656 377 683 333 q 579 447 629 421 q 463 474 529 474 q 413 479 439 474 q 372 492 388 485 q 351 522 351 501 q 371 547 351 547 q 394 542 376 547 q 440 538 411 538 q 587 593 535 538 q 639 740 639 649 q 580 883 639 828 q 414 939 521 939 q 321 875 321 939 l 321 254 z "},"Г":{"ha":707,"x_min":56,"x_max":689,"o":"m 483 997 q 640 1025 600 997 l 667 1043 l 689 1025 l 689 779 l 640 763 l 633 794 q 606 872 622 846 q 561 909 589 899 q 482 919 533 919 l 363 919 q 306 910 325 919 q 281 879 288 901 q 274 813 274 857 l 274 185 q 281 116 274 140 q 307 79 289 92 q 363 56 325 67 l 396 47 l 379 0 l 74 0 l 56 22 l 74 47 q 123 145 108 94 q 138 279 138 196 l 138 718 q 123 852 138 800 q 74 950 108 904 l 56 975 l 74 997 l 483 997 z "},"Ѓ":{"ha":707,"x_min":56,"x_max":689,"o":"m 483 997 q 640 1025 600 997 l 667 1043 l 689 1025 l 689 779 l 640 763 l 633 794 q 606 872 622 846 q 561 909 589 899 q 482 919 533 919 l 363 919 q 306 910 325 919 q 281 879 288 901 q 274 813 274 857 l 274 185 q 281 116 274 140 q 307 79 289 92 q 363 56 325 67 l 396 47 l 379 0 l 74 0 l 56 22 l 74 47 q 123 145 108 94 q 138 279 138 196 l 138 718 q 123 852 138 800 q 74 950 108 904 l 56 975 l 74 997 l 483 997 m 561 1363 q 603 1327 588 1350 q 619 1275 619 1304 q 601 1220 619 1244 q 542 1175 583 1196 l 385 1097 l 344 1146 l 561 1363 z "},"Ґ":{"ha":726,"x_min":56,"x_max":708,"o":"m 447 997 q 548 1020 510 997 q 609 1089 586 1043 q 653 1213 632 1135 l 661 1244 l 708 1228 l 708 889 l 686 871 l 661 889 q 504 919 618 919 l 363 919 q 308 910 326 919 q 282 879 289 901 q 275 813 275 857 l 275 185 q 293 95 275 121 q 363 56 311 69 l 396 47 l 379 0 l 74 0 l 56 22 l 74 47 q 124 144 110 94 q 139 279 139 194 l 139 718 q 124 851 139 800 q 74 950 110 903 l 56 975 l 74 997 l 447 997 z "},"Д":{"ha":940,"x_min":1,"x_max":951,"o":"m 800 146 q 844 81 800 103 q 951 58 889 58 l 951 -251 l 904 -268 l 896 -235 q 851 -103 874 -153 q 789 -27 828 -54 q 689 0 750 0 l 264 0 q 165 -27 204 0 q 103 -103 126 -54 q 56 -235 79 -153 l 49 -268 l 1 -251 l 1 60 q 172 166 115 75 q 252 403 229 257 q 293 826 275 549 q 272 904 296 879 q 201 942 249 929 l 171 950 l 188 997 l 865 997 l 881 975 l 865 950 q 815 852 829 904 q 800 718 800 800 l 800 146 m 574 79 q 631 88 613 79 q 657 117 650 96 q 664 185 664 139 l 664 813 q 656 879 664 857 q 630 910 649 901 q 574 919 611 919 l 489 919 q 425 908 447 919 q 400 864 403 896 q 331 323 378 511 q 193 79 283 135 l 574 79 z "},"Е":{"ha":847,"x_min":63,"x_max":760,"o":"m 314 185 q 321 118 314 140 q 347 88 328 96 q 403 79 365 79 l 553 79 q 631 90 603 79 q 674 126 658 100 q 704 203 690 151 l 713 235 l 760 218 l 760 -19 l 732 -35 l 721 -19 q 663 0 706 0 l 78 0 l 63 44 l 92 53 q 160 92 143 68 q 176 175 176 115 l 176 718 q 163 853 176 801 q 114 950 149 904 l 96 975 l 114 997 l 539 997 q 697 1026 658 997 l 722 1044 l 744 1026 l 744 779 l 697 763 l 689 794 q 659 872 675 846 q 615 908 643 897 q 538 918 588 918 l 403 918 q 347 910 365 918 q 321 879 328 901 q 314 813 314 857 l 314 546 l 490 546 q 549 560 524 546 q 600 610 575 575 l 611 625 l 639 610 l 639 372 l 592 356 l 583 388 q 540 451 571 435 q 432 467 508 467 l 314 467 l 314 185 z "},"Ѐ":{"ha":847,"x_min":63,"x_max":760,"o":"m 314 185 q 321 118 314 140 q 347 88 328 96 q 403 79 365 79 l 553 79 q 631 90 603 79 q 674 126 658 100 q 704 203 690 151 l 713 235 l 760 218 l 760 -19 l 732 -35 l 721 -19 q 663 0 706 0 l 78 0 l 63 44 l 92 53 q 160 92 143 68 q 176 175 176 115 l 176 718 q 163 853 176 801 q 114 950 149 904 l 96 975 l 114 997 l 539 997 q 697 1026 658 997 l 722 1044 l 744 1026 l 744 779 l 697 763 l 689 794 q 659 872 675 846 q 615 908 643 897 q 538 918 588 918 l 403 918 q 347 910 365 918 q 321 879 328 901 q 314 813 314 857 l 314 546 l 490 546 q 549 560 524 546 q 600 610 575 575 l 611 625 l 639 610 l 639 372 l 592 356 l 583 388 q 540 451 571 435 q 432 467 508 467 l 314 467 l 314 185 m 490 1097 l 333 1175 q 274 1220 292 1196 q 256 1275 256 1244 q 272 1327 256 1304 q 314 1363 288 1350 l 531 1146 l 490 1097 z "},"Ё":{"ha":847,"x_min":63,"x_max":760,"o":"m 314 185 q 321 118 314 140 q 347 88 328 96 q 403 79 365 79 l 553 79 q 631 90 603 79 q 674 126 658 100 q 704 203 690 151 l 713 235 l 760 218 l 760 -19 l 732 -35 l 721 -19 q 663 0 706 0 l 78 0 l 63 44 l 92 53 q 160 92 143 68 q 176 175 176 115 l 176 718 q 163 853 176 801 q 114 950 149 904 l 96 975 l 114 997 l 539 997 q 697 1026 658 997 l 722 1044 l 744 1026 l 744 779 l 697 763 l 689 794 q 659 872 675 846 q 615 908 643 897 q 538 918 588 918 l 403 918 q 347 910 365 918 q 321 879 328 901 q 314 813 314 857 l 314 546 l 490 546 q 549 560 524 546 q 600 610 575 575 l 611 625 l 639 610 l 639 372 l 592 356 l 583 388 q 540 451 571 435 q 432 467 508 467 l 314 467 l 314 185 m 244 1221 q 274 1280 244 1247 q 329 1313 304 1313 q 386 1281 356 1313 q 417 1221 417 1249 q 386 1163 417 1194 q 329 1131 356 1131 q 275 1163 306 1131 q 244 1221 244 1194 m 507 1221 q 537 1280 507 1247 q 592 1313 567 1313 q 649 1281 618 1313 q 679 1221 679 1249 q 649 1163 679 1194 q 592 1131 618 1131 q 538 1163 568 1131 q 507 1221 507 1194 z "},"Ж":{"ha":1411,"x_min":14,"x_max":1397,"o":"m 604 496 q 597 481 604 482 q 514 438 547 464 q 458 369 481 413 l 333 117 q 255 14 299 47 q 147 -19 211 -19 q 14 36 68 -19 l 36 76 q 90 57 61 57 q 121 67 108 57 q 144 99 133 78 l 276 357 q 355 460 310 424 q 467 508 400 496 l 186 867 q 134 917 160 900 q 78 942 108 935 l 46 950 l 61 997 l 300 997 l 325 975 l 310 953 q 290 892 290 926 q 317 818 290 853 l 544 529 l 575 529 q 604 496 604 529 m 775 175 q 785 91 775 114 q 829 53 796 68 l 858 44 l 843 0 l 563 0 l 547 47 l 576 56 q 625 96 613 72 q 638 185 638 119 l 638 813 q 628 901 638 876 q 592 942 619 926 l 563 950 l 576 997 l 824 997 l 840 975 l 824 950 q 786 853 797 904 q 775 718 775 801 l 775 175 m 1397 36 q 1264 -19 1343 -19 q 1156 14 1200 -19 q 1078 117 1113 47 l 953 369 q 897 438 931 413 q 814 481 864 464 q 807 496 807 482 q 836 529 807 529 l 867 529 l 1094 818 q 1121 892 1121 853 q 1101 953 1121 926 l 1086 975 l 1111 997 l 1350 997 l 1365 950 l 1333 942 q 1277 917 1303 935 q 1225 867 1251 900 l 944 508 q 1056 460 1011 496 q 1135 357 1101 424 l 1267 99 q 1290 67 1278 78 q 1321 57 1303 57 q 1375 76 1350 57 l 1397 36 z "},"З":{"ha":751,"x_min":32,"x_max":718,"o":"m 125 1014 q 178 997 144 997 q 239 1004 200 997 q 374 1017 317 1017 q 522 990 454 1017 q 629 907 589 963 q 669 772 669 851 q 471 538 669 607 q 661 440 604 510 q 718 256 718 371 q 673 113 718 175 q 545 15 628 50 q 356 -19 463 -19 q 196 6 269 -19 q 77 83 122 32 q 32 206 32 133 q 72 311 32 271 q 172 351 113 351 q 195 349 189 351 q 201 335 201 346 q 185 300 201 331 q 169 217 169 269 q 215 100 169 140 q 351 60 260 60 q 510 114 453 60 q 567 265 567 168 q 513 429 567 364 q 349 494 458 494 q 297 490 319 494 q 265 486 275 486 q 253 494 258 486 q 249 514 249 501 q 267 542 249 533 q 331 561 285 551 q 479 631 440 582 q 518 765 518 681 q 474 893 518 847 q 356 939 431 939 q 210 900 261 939 q 132 753 158 861 l 125 722 l 79 738 l 79 1014 l 101 1031 l 125 1014 z "},"И":{"ha":1015,"x_min":15,"x_max":994,"o":"m 994 44 l 981 0 l 640 0 l 624 47 l 654 56 q 710 78 692 65 q 735 115 728 90 q 743 185 743 139 l 743 711 l 275 201 l 275 175 q 292 92 275 115 q 358 53 308 68 l 388 44 l 374 0 l 32 0 l 15 47 l 49 56 q 104 79 86 67 q 130 116 122 92 q 138 185 138 140 l 138 813 q 119 901 138 876 q 49 942 101 926 l 15 950 l 32 997 l 338 997 l 356 975 l 338 950 q 289 853 303 904 q 275 718 275 801 l 275 315 l 743 824 q 724 905 742 881 q 654 942 706 929 l 624 950 l 640 997 l 943 997 l 964 975 l 943 950 q 893 854 907 906 q 879 718 879 803 l 879 175 q 897 90 879 114 q 967 53 915 67 l 994 44 z "},"Й":{"ha":1015,"x_min":15,"x_max":994,"o":"m 994 44 l 981 0 l 640 0 l 624 47 l 654 56 q 710 78 692 65 q 735 115 728 90 q 743 185 743 139 l 743 711 l 275 201 l 275 175 q 292 92 275 115 q 358 53 308 68 l 388 44 l 374 0 l 32 0 l 15 47 l 49 56 q 104 79 86 67 q 130 116 122 92 q 138 185 138 140 l 138 813 q 119 901 138 876 q 49 942 101 926 l 15 950 l 32 997 l 338 997 l 356 975 l 338 950 q 289 853 303 904 q 275 718 275 801 l 275 315 l 743 824 q 724 905 742 881 q 654 942 706 929 l 624 950 l 640 997 l 943 997 l 964 975 l 943 950 q 893 854 907 906 q 879 718 879 803 l 879 175 q 897 90 879 114 q 967 53 915 67 l 994 44 m 263 1243 q 297 1315 263 1288 q 375 1342 331 1342 q 396 1335 388 1342 q 404 1322 404 1329 q 393 1299 404 1318 q 382 1249 382 1281 q 506 1172 382 1172 q 601 1192 571 1172 q 632 1246 632 1213 q 620 1299 632 1279 q 608 1322 608 1318 q 617 1336 608 1331 q 639 1342 625 1342 q 715 1315 683 1342 q 747 1243 747 1288 q 683 1147 747 1181 q 506 1114 618 1114 q 328 1147 393 1114 q 263 1243 263 1181 z "},"Ѝ":{"ha":1015,"x_min":15,"x_max":994,"o":"m 994 44 l 981 0 l 640 0 l 624 47 l 654 56 q 710 78 692 65 q 735 115 728 90 q 743 185 743 139 l 743 711 l 275 201 l 275 175 q 292 92 275 115 q 358 53 308 68 l 388 44 l 374 0 l 32 0 l 15 47 l 49 56 q 104 79 86 67 q 130 116 122 92 q 138 185 138 140 l 138 813 q 119 901 138 876 q 49 942 101 926 l 15 950 l 32 997 l 338 997 l 356 975 l 338 950 q 289 853 303 904 q 275 718 275 801 l 275 315 l 743 824 q 724 905 742 881 q 654 942 706 929 l 624 950 l 640 997 l 943 997 l 964 975 l 943 950 q 893 854 907 906 q 879 718 879 803 l 879 175 q 897 90 879 114 q 967 53 915 67 l 994 44 m 533 1097 l 376 1175 q 317 1220 335 1196 q 299 1275 299 1244 q 315 1327 299 1304 q 357 1363 331 1350 l 574 1146 l 533 1097 z "},"К":{"ha":917,"x_min":21,"x_max":903,"o":"m 281 175 q 297 92 281 115 q 364 53 314 68 l 393 44 l 379 0 l 38 0 l 21 47 l 54 56 q 110 79 92 67 q 135 116 128 92 q 143 185 143 140 l 143 813 q 125 901 143 876 q 54 942 107 926 l 21 950 l 38 997 l 343 997 l 361 975 l 343 950 q 294 853 308 904 q 281 718 281 801 l 281 175 m 903 36 q 769 -19 849 -19 q 662 15 706 -19 q 585 117 618 49 l 458 369 q 403 438 436 413 q 319 481 369 464 q 315 487 317 482 q 313 496 313 492 q 342 529 313 529 l 374 529 l 600 818 q 626 892 626 851 q 607 953 626 926 l 592 975 l 617 997 l 856 997 l 872 950 l 839 942 q 783 917 808 935 q 731 867 757 900 l 450 508 q 562 461 517 497 q 642 357 607 425 l 772 99 q 796 67 783 78 q 826 57 808 57 q 881 76 856 57 l 903 36 z "},"Ќ":{"ha":917,"x_min":21,"x_max":903,"o":"m 281 175 q 297 92 281 115 q 364 53 314 68 l 393 44 l 379 0 l 38 0 l 21 47 l 54 56 q 110 79 92 67 q 135 116 128 92 q 143 185 143 140 l 143 813 q 125 901 143 876 q 54 942 107 926 l 21 950 l 38 997 l 343 997 l 361 975 l 343 950 q 294 853 308 904 q 281 718 281 801 l 281 175 m 903 36 q 769 -19 849 -19 q 662 15 706 -19 q 585 117 618 49 l 458 369 q 403 438 436 413 q 319 481 369 464 q 315 487 317 482 q 313 496 313 492 q 342 529 313 529 l 374 529 l 600 818 q 626 892 626 851 q 607 953 626 926 l 592 975 l 617 997 l 856 997 l 872 950 l 839 942 q 783 917 808 935 q 731 867 757 900 l 450 508 q 562 461 517 497 q 642 357 607 425 l 772 99 q 796 67 783 78 q 826 57 808 57 q 881 76 856 57 l 903 36 m 638 1363 q 680 1327 664 1350 q 696 1275 696 1304 q 678 1220 696 1244 q 618 1175 660 1196 l 461 1097 l 421 1146 l 638 1363 z "},"Л":{"ha":936,"x_min":-22,"x_max":911,"o":"m 863 950 q 813 853 826 904 q 799 718 799 801 l 799 175 q 815 91 799 114 q 883 53 832 68 l 911 44 l 897 0 l 557 0 l 540 47 l 572 56 q 628 79 610 67 q 653 116 646 92 q 661 185 661 140 l 661 813 q 654 879 661 857 q 628 910 647 901 q 572 919 610 919 l 532 919 q 469 908 490 919 q 446 864 449 896 q 372 319 417 511 q 268 53 328 126 q 122 -19 208 -19 q 19 17 61 -19 q -22 119 -22 53 q -3 183 -22 160 q 44 206 17 206 q 72 194 63 206 q 89 156 82 182 q 143 90 103 90 q 235 161 197 90 q 300 388 272 232 q 353 811 328 544 q 333 902 358 871 q 254 943 307 933 l 221 950 l 239 997 l 863 997 l 879 975 l 863 950 z "},"М":{"ha":1279,"x_min":21,"x_max":1217,"o":"m 1121 269 q 1149 126 1128 183 q 1217 22 1171 68 l 1199 0 l 894 0 l 878 47 l 910 56 q 972 91 954 69 q 989 156 989 113 l 986 207 l 946 786 l 656 100 l 581 100 l 290 786 l 260 358 q 251 222 251 261 q 263 126 251 165 q 301 47 275 86 l 318 22 l 297 0 l 36 0 l 21 47 l 53 56 q 127 97 107 72 q 151 185 147 122 l 189 735 q 193 785 190 753 q 196 842 196 817 q 178 910 196 889 q 115 942 161 931 l 83 950 l 99 997 l 351 997 l 638 299 l 932 997 l 1132 997 l 1153 975 l 1136 950 q 1098 872 1110 911 q 1086 775 1086 832 q 1093 650 1086 754 l 1121 269 z "},"Н":{"ha":1082,"x_min":56,"x_max":1019,"o":"m 647 47 l 679 56 q 750 96 732 71 q 768 185 768 121 l 768 464 l 314 464 l 314 175 q 331 92 314 115 q 399 53 347 68 l 428 44 l 413 0 l 72 0 l 56 47 l 88 56 q 158 96 140 71 q 176 185 176 121 l 176 813 q 158 901 176 876 q 88 942 140 926 l 56 950 l 72 997 l 376 997 l 394 975 l 376 950 q 328 853 342 904 q 314 718 314 801 l 314 549 l 768 549 l 768 813 q 750 901 768 876 q 679 942 732 926 l 647 950 l 664 997 l 968 997 l 986 975 l 968 950 q 919 853 933 904 q 906 718 906 801 l 906 175 q 922 92 906 115 q 990 53 939 68 l 1019 44 l 1004 0 l 664 0 l 647 47 z "},"О":{"ha":1018,"x_min":49,"x_max":969,"o":"m 49 497 q 100 762 49 644 q 255 948 151 879 q 508 1017 358 1017 q 762 948 658 1017 q 917 762 865 879 q 969 497 969 644 q 917 233 969 350 q 762 49 865 117 q 508 -19 658 -19 q 255 49 358 -19 q 100 233 151 117 q 49 497 49 350 m 818 493 q 790 695 818 593 q 693 867 761 797 q 515 938 625 938 q 345 877 417 938 q 236 714 274 817 q 199 486 199 611 q 233 269 199 365 q 337 118 268 174 q 503 63 406 63 q 672 119 600 63 q 781 274 743 176 q 818 493 818 372 z "},"П":{"ha":933,"x_min":25,"x_max":908,"o":"m 332 919 q 276 910 294 919 q 250 879 257 901 q 243 813 243 857 l 243 185 q 251 116 243 140 q 276 79 258 92 q 332 56 294 67 l 365 47 l 349 0 l 43 0 l 25 22 l 43 47 q 92 145 78 94 q 107 279 107 196 l 107 718 q 92 852 107 800 q 43 950 78 904 l 25 975 l 43 997 l 857 997 l 875 975 l 857 950 q 807 853 821 904 q 793 718 793 801 l 793 175 q 810 92 793 115 q 878 53 826 68 l 908 44 l 893 0 l 554 0 l 536 47 l 567 56 q 623 79 604 67 q 649 116 642 92 q 657 185 657 140 l 657 813 q 649 879 657 857 q 623 910 642 901 q 567 919 604 919 l 332 919 z "},"Р":{"ha":828,"x_min":49,"x_max":800,"o":"m 314 279 q 328 144 314 194 q 376 47 342 93 l 394 22 l 376 0 l 72 0 l 56 47 l 88 56 q 158 96 140 69 q 176 185 176 122 l 176 871 q 169 897 176 889 q 146 904 163 904 l 65 904 l 49 956 q 206 998 108 979 q 394 1017 304 1017 q 700 924 600 1017 q 800 686 800 832 q 764 523 800 596 q 653 406 728 450 q 467 363 578 363 q 380 375 415 363 q 344 411 344 388 q 350 435 344 425 q 367 444 356 444 q 390 440 372 444 q 435 435 407 435 q 597 501 539 435 q 656 682 656 568 q 594 867 656 794 q 419 939 532 939 q 314 875 314 939 l 314 279 z "},"С":{"ha":857,"x_min":49,"x_max":821,"o":"m 497 1017 q 659 991 588 1017 q 770 919 731 965 q 810 813 810 872 q 767 696 810 742 q 661 650 725 650 q 632 667 632 650 q 644 690 632 671 q 665 734 656 710 q 674 793 674 758 q 625 899 674 858 q 497 939 576 939 q 329 875 394 939 q 235 711 264 811 q 206 497 206 611 q 242 285 206 381 q 347 133 279 189 q 506 76 415 76 q 660 109 594 76 q 767 201 725 142 q 776 207 771 207 q 805 194 789 207 q 821 168 821 181 q 817 157 821 164 q 493 -19 697 -19 q 249 49 349 -19 q 99 234 149 117 q 49 497 49 351 q 99 762 49 644 q 249 948 149 879 q 497 1017 350 1017 z "},"Т":{"ha":826,"x_min":28,"x_max":799,"o":"m 743 794 q 713 872 729 846 q 669 908 697 897 q 592 918 642 918 l 529 918 q 491 898 500 918 q 482 813 482 878 l 482 185 q 500 96 482 121 q 571 56 518 71 l 603 47 l 586 0 l 282 0 l 264 22 l 282 47 q 331 144 317 93 q 344 279 344 196 l 344 813 q 335 898 344 878 q 297 918 326 918 l 235 918 q 157 908 185 918 q 113 872 129 897 q 83 794 97 846 l 75 763 l 28 779 l 28 1026 l 50 1044 l 75 1026 q 233 997 114 997 l 593 997 q 751 1026 713 997 l 776 1044 l 799 1026 l 799 779 l 751 763 l 743 794 z "},"У":{"ha":832,"x_min":-49,"x_max":864,"o":"m 864 975 l 844 950 q 768 811 804 894 l 514 233 q 391 38 453 94 q 251 -19 329 -19 q 136 15 179 -19 q 93 108 93 50 q 127 197 93 158 q 211 236 161 236 q 240 218 240 236 q 231 187 240 214 q 221 132 221 160 q 235 83 221 101 q 274 65 249 65 q 344 103 313 65 q 418 238 375 142 l 440 288 l 114 800 q 28 918 63 879 q -49 975 -7 957 l -43 997 l 307 997 l 324 950 l 293 942 q 238 882 238 928 q 271 793 238 847 l 506 432 l 640 732 q 668 843 668 796 q 649 908 668 882 q 597 942 631 935 l 567 950 l 583 997 l 849 997 l 864 975 z "},"Ў":{"ha":832,"x_min":-49,"x_max":864,"o":"m 864 975 l 844 950 q 768 811 804 894 l 514 233 q 391 38 453 94 q 251 -19 329 -19 q 136 15 179 -19 q 93 108 93 50 q 127 197 93 158 q 211 236 161 236 q 240 218 240 236 q 231 187 240 214 q 221 132 221 160 q 235 83 221 101 q 274 65 249 65 q 344 103 313 65 q 418 238 375 142 l 440 288 l 114 800 q 28 918 63 879 q -49 975 -7 957 l -43 997 l 307 997 l 324 950 l 293 942 q 238 882 238 928 q 271 793 238 847 l 506 432 l 640 732 q 668 843 668 796 q 649 908 668 882 q 597 942 631 935 l 567 950 l 583 997 l 849 997 l 864 975 m 196 1243 q 230 1315 196 1288 q 308 1342 264 1342 q 329 1335 321 1342 q 338 1322 338 1329 q 326 1299 338 1318 q 315 1249 315 1281 q 439 1172 315 1172 q 535 1192 504 1172 q 565 1246 565 1213 q 553 1299 565 1279 q 542 1322 542 1318 q 550 1336 542 1331 q 572 1342 558 1342 q 649 1315 617 1342 q 681 1243 681 1288 q 616 1147 681 1181 q 439 1114 551 1114 q 261 1147 326 1114 q 196 1243 196 1181 z "},"Ф":{"ha":1131,"x_min":-10,"x_max":1142,"o":"m 444 228 q 464 204 464 225 q 410 161 464 161 q 218 201 315 161 q 56 324 121 240 q -10 529 -10 407 q 54 738 -10 650 q 233 874 118 826 q 497 924 347 921 q 487 1028 496 993 q 450 1072 478 1064 l 419 1081 l 435 1129 l 699 1129 l 715 1107 l 699 1081 q 663 1006 675 1039 q 643 922 650 974 q 910 872 799 919 q 1082 737 1022 824 q 1142 532 1142 650 q 1076 325 1142 408 q 914 201 1011 242 q 722 161 817 161 q 683 172 697 161 q 668 204 668 182 q 689 228 668 225 q 911 328 838 247 q 985 543 985 410 q 899 768 985 689 q 676 847 814 847 q 643 840 651 847 q 635 813 635 832 l 635 119 q 651 36 635 60 q 719 -3 668 13 l 750 -11 l 733 -56 l 393 -56 l 376 -7 l 410 0 q 480 41 463 17 q 497 129 497 65 l 497 813 q 489 841 497 833 q 456 847 481 849 q 233 763 317 840 q 149 538 149 685 q 222 328 149 408 q 444 228 296 247 z "},"Х":{"ha":944,"x_min":14,"x_max":931,"o":"m 633 810 q 657 853 651 838 q 663 888 663 869 q 644 950 663 910 l 632 975 l 658 997 l 914 997 l 931 950 l 899 942 q 839 916 864 932 q 790 867 814 900 l 547 515 l 797 161 q 858 81 833 110 q 918 22 882 51 l 900 0 l 571 0 l 554 47 l 586 56 q 640 115 640 71 q 610 197 640 151 l 458 410 l 311 188 q 288 144 293 160 q 282 110 282 128 q 300 47 282 88 l 313 22 l 286 0 l 31 0 l 14 47 l 46 56 q 106 81 81 65 q 154 131 131 97 l 403 490 l 165 828 q 39 975 93 928 l 57 997 l 386 997 l 403 950 l 371 942 q 317 882 317 926 q 347 800 317 846 l 490 596 l 633 810 z "},"Ч":{"ha":872,"x_min":14,"x_max":844,"o":"m 504 56 q 559 79 542 67 q 584 116 576 92 q 592 185 592 140 l 592 463 q 465 388 525 413 q 319 363 404 363 q 140 418 203 363 q 76 582 76 474 l 76 754 q 67 878 76 839 q 33 951 58 918 l 14 975 l 33 999 l 214 1018 l 214 618 q 254 501 214 538 q 376 464 294 464 q 497 488 450 464 q 592 558 543 513 l 592 813 q 574 901 592 876 q 504 942 557 926 l 469 950 l 488 997 l 792 997 l 810 975 l 792 950 q 744 853 757 904 q 731 718 731 801 l 731 175 q 747 91 731 114 q 814 53 764 68 l 844 44 l 828 0 l 488 0 l 469 47 l 504 56 z "},"Ц":{"ha":992,"x_min":18,"x_max":978,"o":"m 51 56 q 106 79 88 67 q 131 116 124 92 q 139 185 139 140 l 139 813 q 121 901 139 876 q 51 942 103 926 l 18 950 l 35 997 l 340 997 l 358 975 l 340 950 q 290 853 304 904 q 276 718 276 801 l 276 185 q 283 117 276 139 q 309 88 290 96 q 365 79 328 79 l 600 79 q 656 88 638 79 q 682 117 675 96 q 689 185 689 139 l 689 813 q 671 901 689 876 q 600 942 653 926 l 567 950 l 583 997 l 889 997 l 907 975 l 889 950 q 841 853 854 904 q 828 718 828 801 l 828 146 q 872 81 828 103 q 978 58 915 58 l 978 -251 l 929 -268 l 921 -235 q 871 -97 893 -143 q 813 -25 849 -50 q 715 0 776 0 l 35 0 l 18 47 l 51 56 z "},"Ш":{"ha":1531,"x_min":56,"x_max":1468,"o":"m 56 47 l 89 56 q 143 79 125 67 q 169 116 161 92 q 176 185 176 140 l 176 813 q 158 901 176 876 q 89 942 140 926 l 56 950 l 72 997 l 378 997 l 396 975 l 378 950 q 330 850 344 901 q 315 718 315 799 l 315 185 q 322 117 315 139 q 347 88 329 96 q 403 79 365 79 l 606 79 q 664 88 644 79 q 692 118 683 96 q 700 185 700 140 l 700 813 q 683 901 700 876 q 611 942 665 926 l 578 950 l 596 997 l 896 997 l 913 975 l 896 950 q 845 852 860 904 q 831 718 831 800 l 831 175 q 844 98 831 117 q 901 79 858 79 l 1129 79 q 1185 88 1167 79 q 1210 117 1203 96 q 1217 185 1217 139 l 1217 813 q 1199 901 1217 876 q 1129 942 1182 926 l 1096 950 l 1111 997 l 1417 997 l 1435 975 l 1417 950 q 1369 851 1383 901 q 1356 718 1356 800 l 1356 175 q 1372 90 1356 114 q 1439 53 1389 67 l 1468 44 l 1453 0 l 72 0 l 56 47 z "},"Щ":{"ha":1519,"x_min":56,"x_max":1506,"o":"m 89 56 q 143 79 125 67 q 169 116 161 92 q 176 185 176 140 l 176 813 q 158 901 176 876 q 89 942 140 926 l 56 950 l 72 997 l 378 997 l 396 975 l 378 950 q 330 850 344 901 q 315 718 315 799 l 315 185 q 322 117 315 139 q 347 88 329 96 q 403 79 365 79 l 606 79 q 664 88 644 79 q 692 118 683 96 q 700 185 700 140 l 700 813 q 683 901 700 876 q 611 942 665 926 l 578 950 l 596 997 l 896 997 l 913 975 l 896 950 q 845 852 860 904 q 831 718 831 800 l 831 175 q 844 98 831 117 q 901 79 858 79 l 1129 79 q 1185 88 1167 79 q 1210 117 1203 96 q 1217 185 1217 139 l 1217 813 q 1199 901 1217 876 q 1129 942 1182 926 l 1096 950 l 1111 997 l 1417 997 l 1435 975 l 1417 950 q 1369 851 1383 901 q 1356 718 1356 800 l 1356 146 q 1399 81 1356 103 q 1506 58 1443 58 l 1506 -251 l 1458 -268 l 1450 -235 q 1404 -103 1428 -153 q 1342 -27 1381 -54 q 1242 0 1303 0 l 72 0 l 56 47 l 89 56 z "},"Џ":{"ha":1039,"x_min":56,"x_max":976,"o":"m 56 47 l 89 56 q 143 79 125 67 q 169 116 161 92 q 176 185 176 140 l 176 813 q 158 901 176 876 q 89 942 140 926 l 56 950 l 72 997 l 378 997 l 396 975 l 378 950 q 328 853 342 904 q 314 718 314 801 l 314 185 q 321 117 314 139 q 347 88 328 96 q 403 79 365 79 l 638 79 q 694 88 675 79 q 719 117 713 96 q 726 185 726 139 l 726 813 q 708 901 726 876 q 638 942 690 926 l 604 950 l 621 997 l 926 997 l 944 975 l 926 950 q 878 853 892 904 q 865 718 865 801 l 865 175 q 882 91 865 114 q 949 53 899 68 l 976 44 l 963 0 l 594 0 l 594 -228 l 546 -246 l 539 -211 q 483 -72 514 -115 q 403 -14 453 -28 q 254 0 354 0 l 72 0 l 56 47 z "},"Ь":{"ha":851,"x_min":56,"x_max":821,"o":"m 314 254 q 360 106 314 140 q 468 72 406 72 q 621 135 565 72 q 676 299 676 197 q 649 408 676 358 q 571 485 621 457 q 456 514 521 514 q 394 508 418 514 q 364 501 369 501 q 349 510 354 501 q 344 533 344 519 q 383 570 344 558 q 479 582 422 582 q 660 542 582 582 q 779 436 738 503 q 821 292 821 369 q 735 78 821 156 q 460 0 649 0 l 72 0 l 56 47 l 89 56 q 158 95 140 69 q 176 185 176 121 l 176 813 q 158 901 176 875 q 89 942 140 928 l 56 950 l 72 997 l 378 997 l 396 975 l 378 950 q 328 851 343 903 q 314 718 314 800 l 314 254 z "},"Ъ":{"ha":1021,"x_min":28,"x_max":990,"o":"m 224 47 l 257 56 q 328 95 310 69 q 346 185 346 121 l 346 813 q 271 919 346 919 l 235 919 q 157 909 185 919 q 113 873 129 899 q 83 794 97 847 l 75 763 l 28 779 l 28 1025 l 51 1043 l 75 1025 q 134 1003 96 1010 q 233 997 172 997 l 546 997 l 564 975 l 546 950 q 497 851 511 903 q 482 718 482 800 l 482 254 q 528 106 482 140 q 636 72 574 72 q 790 135 735 72 q 846 299 846 197 q 818 408 846 358 q 740 485 790 457 q 624 514 689 514 q 562 508 586 514 q 532 501 538 501 q 519 510 524 501 q 514 533 514 519 q 553 570 514 558 q 649 582 592 582 q 829 542 751 582 q 949 436 907 503 q 990 292 990 369 q 903 78 990 156 q 628 0 817 0 l 242 0 l 224 47 z "},"Ы":{"ha":1300,"x_min":56,"x_max":1238,"o":"m 315 254 q 360 106 315 140 q 469 72 406 72 q 606 135 554 72 q 657 299 657 199 q 631 407 657 357 q 558 485 604 457 q 456 514 511 514 q 394 508 418 514 q 364 501 369 501 q 349 510 354 501 q 344 533 344 519 q 383 570 344 558 q 479 582 422 582 q 647 542 574 582 q 760 436 719 503 q 801 292 801 369 q 718 78 801 157 q 460 0 635 0 l 72 0 l 56 47 l 89 56 q 158 95 140 69 q 176 185 176 121 l 176 813 q 158 901 176 875 q 89 942 140 928 l 56 950 l 72 997 l 378 997 l 396 975 l 378 950 q 329 852 343 903 q 315 718 315 801 l 315 254 m 865 47 l 897 56 q 952 80 933 67 q 979 117 971 93 q 988 185 988 140 l 988 813 q 969 901 988 875 q 897 942 950 926 l 865 950 l 881 997 l 1188 997 l 1204 975 l 1188 950 q 1138 852 1153 904 q 1124 718 1124 800 l 1124 175 q 1140 92 1124 115 q 1207 53 1157 68 l 1238 44 l 1222 0 l 881 0 l 865 47 z "},"Љ":{"ha":1335,"x_min":-22,"x_max":1304,"o":"m 964 582 q 1144 542 1067 582 q 1263 437 1221 503 q 1304 292 1304 371 q 1219 78 1304 156 q 946 0 1133 0 l 556 0 l 539 47 l 572 56 q 643 95 625 69 q 661 185 661 121 l 661 813 q 654 879 661 857 q 628 910 647 901 q 572 919 610 919 l 532 919 q 469 908 490 919 q 446 864 449 896 q 372 319 417 511 q 268 53 328 126 q 122 -19 208 -19 q 19 17 61 -19 q -22 119 -22 53 q -3 183 -22 160 q 44 206 17 206 q 72 194 61 206 q 89 156 82 182 q 143 90 103 90 q 233 162 196 90 q 299 390 271 233 q 353 811 328 546 q 254 943 363 925 l 221 950 l 239 997 l 861 997 l 879 975 l 861 950 q 813 853 826 904 q 799 718 799 801 l 799 254 q 844 106 799 140 q 953 72 889 72 q 1106 135 1050 72 q 1161 299 1161 197 q 1133 408 1161 358 q 1055 485 1106 457 q 939 514 1004 514 q 878 508 901 514 q 849 501 854 501 q 829 533 829 501 q 868 570 829 558 q 964 582 907 582 z "},"Њ":{"ha":1444,"x_min":56,"x_max":1414,"o":"m 906 254 q 951 106 906 140 q 1063 72 997 72 q 1215 135 1160 72 q 1269 299 1269 197 q 1242 408 1269 358 q 1163 485 1214 457 q 1047 514 1113 514 q 986 508 1011 514 q 956 501 961 501 q 938 533 938 501 q 976 570 938 558 q 1072 582 1015 582 q 1253 542 1175 582 q 1372 436 1331 503 q 1414 292 1414 369 q 1327 78 1414 156 q 1051 0 1240 0 l 665 0 l 649 47 l 679 56 q 751 95 733 69 q 769 185 769 121 l 769 464 l 315 464 l 315 175 q 332 92 315 115 q 399 53 349 68 l 428 44 l 414 0 l 72 0 l 56 47 l 89 56 q 144 79 126 67 q 170 116 163 92 q 178 185 178 140 l 178 813 q 160 901 178 876 q 89 942 142 926 l 56 950 l 72 997 l 378 997 l 396 975 l 378 950 q 329 853 343 904 q 315 718 315 801 l 315 549 l 769 549 l 769 813 q 751 901 769 875 q 679 942 732 928 l 649 950 l 665 997 l 968 997 l 989 975 l 968 950 q 920 850 935 901 q 906 718 906 799 l 906 254 z "},"Ѕ":{"ha":794,"x_min":63,"x_max":725,"o":"m 406 58 q 535 100 486 58 q 585 215 585 142 q 554 317 585 275 q 478 385 524 358 q 356 446 433 411 q 213 519 267 486 q 122 608 160 553 q 85 747 85 664 q 119 880 85 818 q 221 979 153 942 q 388 1017 289 1017 q 549 991 478 1017 q 660 919 621 965 q 700 813 700 872 q 658 696 700 742 q 551 650 615 650 q 522 667 522 650 q 534 690 522 671 q 555 734 546 710 q 564 793 564 758 q 515 899 564 858 q 388 939 467 939 q 261 892 306 939 q 217 779 217 846 q 246 690 217 728 q 318 628 275 653 q 438 568 361 603 q 587 492 529 528 q 685 398 644 457 q 725 251 725 339 q 642 54 725 128 q 406 -19 560 -19 q 228 9 306 -19 q 106 88 150 38 q 63 204 63 139 q 108 321 63 275 q 221 367 153 367 q 243 362 236 367 q 250 350 250 357 q 238 327 250 346 q 215 283 225 308 q 206 224 206 258 q 261 104 206 150 q 406 58 317 58 z "},"Є":{"ha":856,"x_min":49,"x_max":819,"o":"m 808 813 q 767 697 808 742 q 661 651 725 651 q 631 668 631 651 q 643 692 631 672 q 665 735 656 711 q 674 793 674 760 q 625 899 674 858 q 497 940 576 940 q 284 822 356 940 q 204 535 213 704 l 640 535 q 607 447 640 474 l 206 447 q 252 258 214 342 q 356 125 290 174 q 504 76 421 76 q 660 110 593 76 q 767 200 726 143 q 775 207 771 207 q 804 194 789 207 q 819 168 819 182 l 817 156 q 492 -19 693 -19 q 247 49 347 -19 q 98 234 147 117 q 49 497 49 351 q 99 763 49 644 q 249 949 149 881 q 497 1017 350 1017 q 658 991 588 1017 q 769 919 729 965 q 808 813 808 872 z "},"Э":{"ha":842,"x_min":36,"x_max":793,"o":"m 793 497 q 744 234 793 351 q 598 49 696 117 q 357 -19 500 -19 q 199 6 272 -19 q 81 83 125 32 q 36 206 36 133 q 75 311 36 271 q 175 351 114 351 q 197 349 190 351 q 203 335 203 346 q 187 300 203 331 q 171 217 171 269 q 224 103 171 146 q 353 60 278 60 q 496 113 433 60 q 594 258 558 167 q 633 463 629 350 l 201 463 q 209 513 201 489 q 235 549 217 536 l 633 549 q 549 826 625 713 q 326 939 474 939 q 204 901 257 939 q 129 781 151 863 l 122 749 l 74 765 l 74 1014 l 97 1031 l 122 1014 q 146 1001 133 1004 q 175 997 158 997 q 208 1000 189 997 q 239 1004 228 1003 q 358 1017 314 1017 q 599 949 501 1017 q 744 763 696 881 q 793 497 793 646 z "},"І":{"ha":490,"x_min":56,"x_max":428,"o":"m 56 47 l 88 56 q 158 96 140 71 q 176 185 176 121 l 176 813 q 158 901 176 876 q 88 942 140 926 l 56 950 l 72 997 l 376 997 l 394 975 l 376 950 q 328 853 342 904 q 314 718 314 801 l 314 175 q 331 92 314 115 q 399 53 347 68 l 428 44 l 413 0 l 72 0 l 56 47 z "},"Ї":{"ha":490,"x_min":28,"x_max":463,"o":"m 56 47 l 88 56 q 158 96 140 71 q 176 185 176 121 l 176 813 q 158 901 176 876 q 88 942 140 926 l 56 950 l 72 997 l 376 997 l 394 975 l 376 950 q 328 853 342 904 q 314 718 314 801 l 314 175 q 331 92 314 115 q 399 53 347 68 l 428 44 l 413 0 l 72 0 l 56 47 m 28 1221 q 58 1280 28 1247 q 113 1313 88 1313 q 169 1281 139 1313 q 200 1221 200 1249 q 169 1163 200 1194 q 113 1131 139 1131 q 58 1163 89 1131 q 28 1221 28 1194 m 290 1221 q 320 1280 290 1247 q 375 1313 350 1313 q 432 1281 401 1313 q 463 1221 463 1249 q 432 1163 463 1194 q 375 1131 401 1131 q 321 1163 351 1131 q 290 1221 290 1194 z "},"Ј":{"ha":651,"x_min":-28,"x_max":596,"o":"m 378 813 q 360 901 378 876 q 289 942 342 926 l 257 950 l 274 997 l 578 997 l 596 975 l 578 950 q 529 853 543 904 q 515 718 515 801 l 515 328 q 438 64 515 147 q 225 -19 361 -19 q 86 9 143 -19 q 1 83 29 38 q -28 179 -28 128 q 19 298 -28 249 q 149 347 67 347 q 169 342 163 347 q 175 332 175 338 q 156 306 175 326 q 122 256 136 285 q 107 182 107 226 q 141 90 107 126 q 235 53 175 53 q 378 243 378 53 l 378 813 z "},"Ћ":{"ha":1068,"x_min":28,"x_max":1026,"o":"m 451 185 q 459 116 451 140 q 485 79 467 92 q 542 56 504 67 l 575 47 l 558 0 l 253 0 l 236 22 l 253 47 q 301 144 288 93 q 315 279 315 194 l 315 813 q 312 880 315 858 q 299 910 308 901 q 268 919 289 919 l 235 919 q 156 909 183 919 q 112 873 128 899 q 83 794 96 847 l 76 763 l 28 779 l 28 1025 l 53 1043 l 76 1025 q 135 1003 97 1010 q 233 997 172 997 l 596 997 q 753 1025 713 997 l 776 1043 l 801 1025 l 801 779 l 753 763 l 746 794 q 717 872 733 846 q 673 909 701 899 q 594 919 644 919 l 500 919 q 461 898 471 919 q 451 813 451 876 l 451 538 q 579 609 518 585 q 725 633 640 633 q 906 579 844 633 q 967 417 967 525 l 967 243 q 976 119 967 160 q 1008 46 985 79 l 1026 22 l 1008 -1 l 832 -21 l 832 379 q 791 497 832 460 q 668 533 750 533 q 547 508 593 533 q 451 438 500 483 l 451 185 z "},"Ю":{"ha":1447,"x_min":56,"x_max":1399,"o":"m 56 47 l 89 56 q 144 80 125 67 q 170 117 163 93 q 178 185 178 140 l 178 813 q 160 901 178 876 q 89 942 142 926 l 56 950 l 72 997 l 378 997 l 396 975 l 378 950 q 329 853 343 904 q 315 718 315 801 l 315 549 l 521 549 q 581 788 529 682 q 728 954 632 893 q 958 1015 824 1015 q 1201 947 1101 1015 q 1349 762 1300 879 q 1399 497 1399 644 q 1349 233 1399 350 q 1201 49 1300 117 q 958 -19 1101 -19 q 723 44 819 -19 q 576 216 626 107 q 519 464 525 325 l 315 464 l 315 175 q 332 92 315 115 q 399 53 349 68 l 428 44 l 414 0 l 72 0 l 56 47 m 967 938 q 806 877 874 938 q 704 713 739 817 q 669 485 669 610 q 701 269 669 365 q 797 117 733 172 q 953 61 861 61 q 1111 118 1044 61 q 1213 274 1178 175 q 1247 493 1247 372 q 1220 696 1247 594 q 1131 867 1193 797 q 967 938 1068 938 z "},"Я":{"ha":940,"x_min":14,"x_max":878,"o":"m 36 76 q 92 57 64 57 q 119 68 107 57 q 144 99 131 79 l 296 363 q 321 404 310 389 q 350 429 332 419 q 192 533 246 456 q 138 713 138 610 q 235 932 138 849 q 533 1015 332 1015 q 718 997 622 1015 q 878 954 814 978 l 860 901 l 779 901 q 756 894 763 901 q 749 869 749 888 l 749 185 q 767 95 749 121 q 839 56 785 69 l 868 47 l 853 0 l 550 0 l 533 22 l 550 47 q 598 146 583 96 q 613 279 613 196 l 613 875 q 590 919 613 900 q 504 939 568 939 q 339 874 397 939 q 281 707 281 808 q 336 551 281 610 q 492 492 392 492 q 537 496 519 492 q 560 500 554 500 q 579 468 579 500 q 554 435 579 444 q 495 406 514 419 q 460 367 476 393 l 335 143 q 276 51 300 83 q 220 -1 253 18 q 142 -19 188 -19 q 14 36 69 -19 l 36 76 z "},"Ђ":{"ha":1056,"x_min":28,"x_max":1028,"o":"m 1028 301 q 992 110 1028 199 q 894 -29 956 22 q 761 -81 832 -81 q 687 -56 714 -81 q 660 0 660 -32 q 665 23 660 15 q 679 31 671 31 q 707 19 688 31 q 744 8 726 8 q 806 40 775 8 q 858 133 838 71 q 878 283 878 194 q 826 474 878 410 q 678 539 775 539 q 482 501 594 539 l 482 185 q 491 96 482 119 q 526 56 500 72 l 560 47 l 543 0 l 283 0 l 267 22 l 283 47 q 332 144 318 93 q 346 279 346 194 l 346 813 q 342 880 346 858 q 329 910 339 901 q 299 919 319 919 l 235 919 q 158 909 185 919 q 114 873 131 899 q 83 794 97 847 l 76 763 l 28 779 l 28 1025 l 53 1043 l 76 1025 q 135 1003 97 1010 q 233 997 172 997 l 596 997 q 695 1003 657 997 q 753 1025 733 1010 l 778 1043 l 801 1025 l 801 779 l 753 763 l 746 794 q 715 873 732 847 q 672 909 699 899 q 594 919 644 919 l 531 919 q 492 898 501 919 q 482 813 482 876 l 482 582 q 725 636 613 636 q 946 551 864 636 q 1028 301 1028 467 z "},"Ѣ":{"ha":947,"x_min":28,"x_max":917,"o":"m 607 521 q 766 490 696 521 q 876 399 836 458 q 917 257 917 339 q 833 71 917 142 q 585 0 749 0 l 210 0 l 194 47 l 226 56 q 297 95 279 69 q 315 185 315 121 l 315 738 q 306 763 315 757 q 267 769 297 769 l 235 769 q 128 751 158 769 q 83 675 97 732 l 75 642 l 28 658 l 28 876 l 51 894 l 75 876 q 135 854 97 861 q 233 847 172 847 l 315 847 l 315 882 q 297 972 315 944 q 226 1011 278 1000 l 194 1018 l 210 1067 l 515 1067 l 533 1043 l 515 1018 q 474 940 488 979 q 456 847 460 900 l 567 847 q 724 876 686 847 l 747 894 l 772 876 l 772 658 l 724 642 l 717 675 q 669 751 700 732 q 565 769 639 769 l 501 769 q 463 763 472 769 q 453 738 453 757 l 453 254 q 488 108 453 150 q 593 65 524 65 q 735 113 686 65 q 785 251 785 161 q 729 403 785 349 q 582 458 674 458 q 525 452 547 458 q 497 446 503 446 q 484 455 489 446 q 479 476 479 464 q 516 510 479 499 q 607 521 553 521 z "},"Ѫ":{"ha":1411,"x_min":14,"x_max":1397,"o":"m 775 175 q 785 91 775 114 q 829 53 796 68 l 858 44 l 843 0 l 563 0 l 547 47 l 576 56 q 615 79 603 67 q 633 115 628 92 q 638 185 638 139 l 638 468 l 418 800 q 393 839 401 824 q 331 924 354 896 q 272 975 308 953 l 290 997 l 1114 997 l 1131 975 l 1111 950 q 1055 893 1079 922 q 990 803 1031 864 l 775 479 l 775 175 m 726 526 l 947 864 q 960 899 960 885 q 931 919 960 919 l 529 919 q 505 913 514 919 q 496 896 496 907 q 507 868 496 886 l 726 526 m 574 496 q 568 481 574 482 q 506 440 531 465 q 458 369 481 415 l 333 117 q 255 15 299 49 q 147 -19 211 -19 q 14 36 68 -19 l 36 76 q 90 57 61 57 q 121 67 108 57 q 144 99 133 78 l 276 357 q 369 486 315 443 q 500 529 422 529 l 546 529 q 574 496 574 529 m 1397 36 q 1264 -19 1343 -19 q 1156 14 1200 -19 q 1078 117 1113 47 l 953 369 q 905 442 928 418 q 847 479 882 465 q 838 496 838 483 q 865 529 838 529 l 911 529 q 1042 486 989 529 q 1135 357 1096 443 l 1267 99 q 1290 67 1278 78 q 1321 57 1303 57 q 1375 76 1350 57 l 1397 36 z "},"Ѳ":{"ha":1018,"x_min":49,"x_max":969,"o":"m 49 497 q 100 762 49 644 q 255 948 151 879 q 508 1017 358 1017 q 762 948 658 1017 q 917 762 865 879 q 969 497 969 644 q 917 233 969 350 q 762 49 865 117 q 508 -19 658 -19 q 255 49 358 -19 q 100 233 151 117 q 49 497 49 350 m 818 493 q 790 695 818 593 q 693 867 761 797 q 515 938 625 938 q 345 877 417 938 q 236 714 274 817 q 199 486 199 611 q 233 269 199 365 q 337 118 268 174 q 503 63 406 63 q 672 119 600 63 q 781 274 743 176 q 818 493 818 372 m 739 560 q 744 543 744 553 q 739 529 744 535 q 658 467 700 490 q 585 443 617 443 q 540 450 558 443 q 499 469 521 457 q 463 486 478 481 q 428 492 447 492 q 373 484 399 492 q 314 460 347 476 q 299 456 306 456 q 274 475 278 456 q 272 489 272 479 q 283 514 272 503 q 360 569 318 549 q 438 589 401 589 q 481 582 461 589 q 525 561 500 575 q 558 546 542 553 q 590 539 575 539 q 706 572 638 539 q 717 575 710 575 q 739 560 729 575 z "},"Ѵ":{"ha":1044,"x_min":7,"x_max":1044,"o":"m 900 1003 q 1007 972 969 1003 q 1044 882 1044 942 q 1021 822 1044 849 q 960 794 997 794 q 935 806 943 794 q 925 844 928 817 q 910 890 919 876 q 872 903 901 903 q 812 863 838 903 q 758 721 786 822 l 561 0 l 403 0 l 132 806 q 85 903 111 869 q 7 975 58 936 l 25 997 l 339 997 l 354 950 l 324 942 q 275 921 290 936 q 260 881 260 906 q 276 813 260 863 l 497 128 l 667 753 q 762 947 704 892 q 900 1003 819 1003 z "},"Ғ":{"ha":707,"x_min":24,"x_max":689,"o":"m 689 1025 l 689 779 l 640 763 l 633 794 q 606 872 622 846 q 561 909 589 899 q 482 919 533 919 l 363 919 q 306 910 325 919 q 281 879 288 901 q 274 813 274 857 l 274 538 l 446 538 q 418 460 446 482 l 274 460 l 274 185 q 281 116 274 140 q 307 79 289 92 q 363 56 325 67 l 396 47 l 379 0 l 74 0 l 56 22 l 74 47 q 123 145 108 94 q 138 279 138 196 l 138 460 l 24 460 q 51 538 24 517 l 138 538 l 138 718 q 123 852 138 800 q 74 950 108 904 l 56 975 l 74 997 l 483 997 q 640 1025 600 997 l 667 1043 l 689 1025 z "},"Ҕ":{"ha":836,"x_min":56,"x_max":800,"o":"m 476 592 q 653 545 581 592 q 763 422 726 499 q 800 251 800 344 q 768 82 800 164 q 674 -53 736 0 q 524 -106 611 -106 q 443 -84 471 -106 q 415 -31 415 -62 q 432 0 415 0 q 457 -10 438 0 q 507 -21 476 -21 q 588 17 554 -21 q 640 115 622 56 q 657 236 657 174 q 599 431 657 351 q 435 510 542 510 q 274 469 342 510 l 274 185 q 283 96 274 119 q 321 56 292 72 l 354 47 l 338 0 l 74 0 l 56 22 l 74 47 q 123 145 108 94 q 138 279 138 196 l 138 718 q 123 852 138 800 q 74 950 108 904 l 56 975 l 74 997 l 483 997 q 640 1025 600 997 l 667 1043 l 689 1025 l 689 779 l 640 763 l 633 794 q 606 872 622 846 q 561 909 589 899 q 482 919 533 919 l 363 919 q 306 910 325 919 q 281 879 288 901 q 274 813 274 857 l 274 561 q 476 592 368 592 z "},"Җ":{"ha":1411,"x_min":14,"x_max":1397,"o":"m 604 496 q 597 481 604 482 q 514 438 547 464 q 458 369 481 413 l 333 117 q 255 14 299 47 q 147 -19 211 -19 q 14 36 68 -19 l 36 76 q 90 57 61 57 q 121 67 108 57 q 144 99 133 78 l 276 357 q 355 460 310 424 q 467 508 400 496 l 186 867 q 134 917 160 900 q 78 942 108 935 l 46 950 l 61 997 l 300 997 l 325 975 l 310 953 q 290 892 290 926 q 317 818 290 853 l 544 529 l 575 529 q 604 496 604 529 m 775 175 q 785 91 775 114 q 829 53 796 68 l 858 44 l 843 0 l 563 0 l 547 47 l 576 56 q 625 96 613 72 q 638 185 638 119 l 638 813 q 628 901 638 876 q 592 942 619 926 l 563 950 l 576 997 l 824 997 l 840 975 l 824 950 q 786 853 797 904 q 775 718 775 801 l 775 175 m 1397 36 q 1369 13 1389 26 l 1369 -251 l 1321 -268 l 1313 -235 q 1263 -97 1285 -144 q 1204 -25 1240 -50 q 1107 0 1168 0 l 1081 0 l 1081 111 l 1078 117 l 953 369 q 897 438 931 413 q 814 481 864 464 q 807 496 807 482 q 836 529 807 529 l 867 529 l 1094 818 q 1121 892 1121 853 q 1101 953 1121 926 l 1086 975 l 1111 997 l 1350 997 l 1365 950 l 1333 942 q 1277 917 1303 935 q 1225 867 1251 900 l 944 508 q 1056 460 1011 496 q 1135 357 1101 424 l 1267 99 q 1286 71 1275 82 q 1343 60 1314 61 q 1375 76 1363 65 l 1397 36 z "},"Ҙ":{"ha":751,"x_min":32,"x_max":718,"o":"m 718 256 q 644 79 718 151 q 446 -12 571 7 l 446 -228 l 399 -246 l 390 -211 q 348 -73 369 -115 q 297 -17 326 -31 q 108 53 183 -4 q 32 206 32 111 q 72 311 32 271 q 172 351 113 351 q 195 349 189 351 q 201 335 201 346 q 185 300 201 331 q 169 217 169 269 q 215 100 169 140 q 351 60 260 60 q 510 114 453 60 q 567 265 567 168 q 513 429 567 364 q 349 494 458 494 q 297 490 319 494 q 265 486 275 486 q 253 494 258 486 q 249 514 249 501 q 267 542 249 533 q 331 561 285 551 q 479 631 440 582 q 518 765 518 681 q 474 893 518 847 q 356 939 431 939 q 210 900 261 939 q 132 753 158 861 l 125 722 l 79 738 l 79 1014 l 101 1031 l 125 1014 q 178 997 144 997 q 239 1004 200 997 q 374 1017 317 1017 q 522 990 454 1017 q 629 907 589 963 q 669 772 669 851 q 471 538 669 607 q 661 440 604 510 q 718 256 718 371 z "},"Қ":{"ha":917,"x_min":21,"x_max":1033,"o":"m 281 175 q 297 92 281 115 q 364 53 314 68 l 393 44 l 379 0 l 38 0 l 21 47 l 54 56 q 110 79 92 67 q 135 116 128 92 q 143 185 143 140 l 143 813 q 125 901 143 876 q 54 942 107 926 l 21 950 l 38 997 l 343 997 l 361 975 l 343 950 q 294 853 308 904 q 281 718 281 801 l 281 175 m 883 146 q 927 81 883 103 q 1033 58 971 58 l 1033 -251 l 985 -268 l 976 -235 q 915 -75 943 -125 q 835 -8 886 -25 q 769 -19 807 -19 q 662 15 706 -19 q 585 117 618 49 l 458 369 q 403 438 436 413 q 319 481 369 464 q 315 487 317 482 q 313 496 313 492 q 342 529 313 529 l 374 529 l 600 818 q 626 892 626 851 q 607 953 626 926 l 592 975 l 617 997 l 856 997 l 872 950 l 839 942 q 783 917 808 935 q 731 867 757 900 l 450 508 q 562 461 517 497 q 642 357 607 425 l 749 146 l 883 146 z "},"Ҝ":{"ha":974,"x_min":56,"x_max":960,"o":"m 314 175 q 331 90 314 114 q 399 53 347 67 l 426 44 l 413 0 l 72 0 l 56 47 l 88 56 q 143 79 125 67 q 169 116 161 92 q 176 185 176 140 l 176 813 q 158 901 176 876 q 88 942 140 926 l 56 950 l 72 997 l 376 997 l 394 975 l 376 950 q 328 850 343 901 q 314 718 314 799 l 314 175 m 960 36 q 832 -19 906 -19 q 728 15 769 -19 q 649 117 686 49 l 482 418 q 459 451 471 439 q 428 472 447 463 l 428 336 q 400 315 418 321 q 364 308 382 308 l 364 642 q 392 664 374 657 q 428 671 410 671 l 428 529 l 432 529 l 464 529 l 654 808 q 676 851 671 835 q 682 888 682 868 q 664 950 682 910 l 653 975 l 678 997 l 931 997 l 947 950 l 914 942 q 856 918 882 935 q 807 867 831 901 l 557 504 q 653 417 619 475 l 829 99 q 856 67 844 76 q 883 57 867 57 q 938 76 913 57 l 960 36 z "},"Ҡ":{"ha":1086,"x_min":28,"x_max":1072,"o":"m 483 175 q 500 92 483 115 q 567 53 517 68 l 596 44 l 582 0 l 240 0 l 225 47 l 257 56 q 313 79 294 67 q 338 116 331 92 q 346 185 346 140 l 346 813 q 337 899 346 878 q 297 919 328 919 l 235 919 q 156 909 183 919 q 111 872 128 899 q 83 794 94 846 l 76 763 l 28 779 l 28 1025 l 53 1043 l 76 1025 q 135 1003 97 1010 q 233 997 172 997 l 546 997 l 564 975 l 546 950 q 499 863 514 908 q 483 750 485 818 l 483 175 m 1072 36 q 944 -19 1018 -19 q 840 14 882 -19 q 760 117 799 47 l 594 418 q 565 455 579 443 q 522 481 551 467 q 517 496 517 482 q 544 529 517 529 l 576 529 l 767 808 q 789 853 783 836 q 794 888 794 869 q 776 950 794 910 l 765 975 l 790 997 l 1043 997 l 1060 950 l 1026 942 q 967 918 993 935 q 919 867 942 901 l 669 504 q 765 417 729 476 l 942 99 q 968 66 958 75 q 996 57 978 57 q 1050 76 1025 57 l 1072 36 z "},"Ң":{"ha":1082,"x_min":56,"x_max":1057,"o":"m 907 146 q 951 81 907 103 q 1057 58 994 58 l 1057 -251 l 1008 -268 l 1000 -235 q 950 -97 972 -144 q 892 -25 928 -50 q 794 0 856 0 l 664 0 l 647 47 l 679 56 q 750 96 732 71 q 768 185 768 121 l 768 464 l 314 464 l 314 175 q 331 92 314 115 q 399 53 347 68 l 428 44 l 413 0 l 72 0 l 56 47 l 88 56 q 158 96 140 71 q 176 185 176 121 l 176 813 q 158 901 176 876 q 88 942 140 926 l 56 950 l 72 997 l 376 997 l 394 975 l 376 950 q 328 853 342 904 q 314 718 314 801 l 314 549 l 768 549 l 768 813 q 750 901 768 876 q 679 942 732 926 l 647 950 l 664 997 l 968 997 l 986 975 l 968 950 q 919 853 933 904 q 906 718 906 801 l 906 175 q 907 146 906 154 z "},"Ԥ":{"ha":933,"x_min":25,"x_max":946,"o":"m 796 146 q 840 81 796 103 q 946 58 883 58 l 946 -251 l 897 -268 l 889 -235 q 839 -97 861 -144 q 781 -25 817 -50 q 683 0 744 0 l 554 0 l 536 47 l 567 56 q 623 79 604 67 q 649 116 642 92 q 657 185 657 140 l 657 813 q 649 879 657 857 q 623 910 642 901 q 567 919 604 919 l 332 919 q 276 910 294 919 q 250 879 257 901 q 243 813 243 857 l 243 185 q 251 116 243 140 q 276 79 258 92 q 332 56 294 67 l 365 47 l 349 0 l 43 0 l 25 22 l 43 47 q 92 145 78 94 q 107 279 107 196 l 107 718 q 92 852 107 800 q 43 950 78 904 l 25 975 l 43 997 l 857 997 l 875 975 l 857 950 q 807 853 821 904 q 793 718 793 801 l 793 175 q 794 146 793 154 l 796 146 z "},"Ҫ":{"ha":857,"x_min":49,"x_max":821,"o":"m 776 207 q 805 194 789 207 q 821 168 821 181 q 817 157 821 164 q 547 -17 714 4 l 547 -228 l 500 -246 l 493 -211 q 455 -80 475 -122 q 416 -26 435 -37 q 361 -3 397 -14 l 363 -3 q 129 174 210 39 q 49 497 49 310 q 99 762 49 644 q 249 948 149 879 q 497 1017 350 1017 q 659 991 588 1017 q 770 919 731 965 q 810 813 810 872 q 767 696 810 742 q 661 650 725 650 q 632 667 632 650 q 644 690 632 671 q 665 734 656 710 q 674 793 674 758 q 625 899 674 858 q 497 939 576 939 q 329 875 394 939 q 235 711 264 811 q 206 497 206 611 q 242 285 206 381 q 347 133 279 189 q 506 76 415 76 q 660 109 594 76 q 767 201 725 142 q 776 207 771 207 z "},"Ү":{"ha":869,"x_min":7,"x_max":835,"o":"m 610 811 q 626 868 626 843 q 609 915 626 896 q 568 942 592 935 l 536 950 l 553 997 l 817 997 l 835 975 l 814 950 q 715 803 765 892 l 500 421 l 500 185 q 519 96 500 122 q 592 56 539 69 l 624 47 l 607 0 l 303 0 l 285 22 l 303 47 q 353 147 338 96 q 368 279 368 197 l 368 410 l 146 800 q 79 904 108 867 q 7 975 50 942 l 25 997 l 338 997 l 354 950 l 322 942 q 274 919 289 933 q 260 881 260 906 q 279 833 260 865 q 303 793 299 800 l 453 531 l 610 811 z "},"Ұ":{"ha":869,"x_min":7,"x_max":835,"o":"m 835 975 l 814 950 q 715 803 765 892 l 507 433 l 642 433 q 614 356 642 378 l 500 356 l 500 185 q 519 96 500 122 q 592 56 539 69 l 624 47 l 607 0 l 303 0 l 285 22 l 303 47 q 353 147 338 96 q 368 279 368 197 l 368 356 l 219 356 q 247 433 219 413 l 354 433 l 146 800 q 79 904 108 867 q 7 975 50 942 l 25 997 l 338 997 l 354 950 l 322 942 q 274 919 289 933 q 260 881 260 906 q 279 833 260 865 q 303 793 299 800 l 453 531 l 610 811 q 626 868 626 843 q 609 915 626 896 q 568 942 592 935 l 536 950 l 553 997 l 817 997 l 835 975 z "},"Ҷ":{"ha":872,"x_min":14,"x_max":881,"o":"m 735 124 q 787 75 746 92 q 881 58 828 58 l 881 -251 l 832 -268 l 824 -235 q 774 -97 796 -144 q 715 -25 751 -50 q 618 0 679 0 l 488 0 l 469 47 l 504 56 q 559 79 542 67 q 584 116 576 92 q 592 185 592 140 l 592 463 q 465 388 525 413 q 319 363 404 363 q 140 418 203 363 q 76 582 76 474 l 76 754 q 67 878 76 839 q 33 951 58 918 l 14 975 l 33 999 l 214 1018 l 214 618 q 254 501 214 538 q 376 464 294 464 q 497 488 450 464 q 592 558 543 513 l 592 813 q 574 901 592 876 q 504 942 557 926 l 469 950 l 488 997 l 792 997 l 810 975 l 792 950 q 744 853 757 904 q 731 718 731 801 l 731 175 q 735 124 731 144 z "},"Ҹ":{"ha":872,"x_min":14,"x_max":844,"o":"m 844 44 l 828 0 l 488 0 l 469 47 l 504 56 q 559 79 542 67 q 584 116 576 92 q 592 185 592 140 l 592 463 q 513 411 550 432 q 435 378 476 390 l 435 276 q 407 255 425 261 q 371 249 389 249 l 371 365 q 319 363 338 363 q 140 418 203 363 q 76 582 76 474 l 76 754 q 67 878 76 839 q 33 951 58 918 l 14 975 l 33 999 l 214 1018 l 214 618 q 253 502 214 539 q 371 464 292 465 l 371 582 q 399 604 381 597 q 435 611 417 611 l 435 469 q 519 500 485 478 q 592 558 554 522 l 592 813 q 574 901 592 876 q 504 942 557 926 l 469 950 l 488 997 l 792 997 l 810 975 l 792 950 q 744 853 757 904 q 731 718 731 801 l 731 175 q 747 91 731 114 q 814 53 764 68 l 844 44 z "},"Һ":{"ha":872,"x_min":28,"x_max":858,"o":"m 368 942 q 313 918 331 931 q 288 881 296 906 q 281 813 281 857 l 281 535 q 408 610 347 585 q 553 635 468 635 q 733 579 669 635 q 796 415 796 524 l 796 243 q 805 119 796 158 q 839 46 814 79 l 858 22 l 839 -1 l 658 -21 l 658 379 q 618 497 658 460 q 496 533 578 533 q 376 509 422 533 q 281 439 329 485 l 281 185 q 298 96 281 121 q 368 56 315 71 l 403 47 l 385 0 l 81 0 l 63 22 l 81 47 q 128 144 115 93 q 142 279 142 196 l 142 822 q 125 906 142 883 q 58 944 108 929 l 28 953 l 44 997 l 385 997 l 403 950 l 368 942 z "},"Ӏ":{"ha":490,"x_min":56,"x_max":428,"o":"m 56 47 l 88 56 q 158 96 140 71 q 176 185 176 121 l 176 813 q 158 901 176 876 q 88 942 140 926 l 56 950 l 72 997 l 376 997 l 394 975 l 376 950 q 328 853 342 904 q 314 718 314 801 l 314 175 q 331 92 314 115 q 399 53 347 68 l 428 44 l 413 0 l 72 0 l 56 47 z "},"Ӂ":{"ha":1411,"x_min":14,"x_max":1397,"o":"m 604 496 q 597 481 604 482 q 514 438 547 464 q 458 369 481 413 l 333 117 q 255 14 299 47 q 147 -19 211 -19 q 14 36 68 -19 l 36 76 q 90 57 61 57 q 121 67 108 57 q 144 99 133 78 l 276 357 q 355 460 310 424 q 467 508 400 496 l 186 867 q 134 917 160 900 q 78 942 108 935 l 46 950 l 61 997 l 300 997 l 325 975 l 310 953 q 290 892 290 926 q 317 818 290 853 l 544 529 l 575 529 q 604 496 604 529 m 775 175 q 785 91 775 114 q 829 53 796 68 l 858 44 l 843 0 l 563 0 l 547 47 l 576 56 q 625 96 613 72 q 638 185 638 119 l 638 813 q 628 901 638 876 q 592 942 619 926 l 563 950 l 576 997 l 824 997 l 840 975 l 824 950 q 786 853 797 904 q 775 718 775 801 l 775 175 m 1397 36 q 1264 -19 1343 -19 q 1156 14 1200 -19 q 1078 117 1113 47 l 953 369 q 897 438 931 413 q 814 481 864 464 q 807 496 807 482 q 836 529 807 529 l 867 529 l 1094 818 q 1121 892 1121 853 q 1101 953 1121 926 l 1086 975 l 1111 997 l 1350 997 l 1365 950 l 1333 942 q 1277 917 1303 935 q 1225 867 1251 900 l 944 508 q 1056 460 1011 496 q 1135 357 1101 424 l 1267 99 q 1290 67 1278 78 q 1321 57 1303 57 q 1375 76 1350 57 l 1397 36 m 463 1243 q 497 1315 463 1288 q 575 1342 531 1342 q 596 1335 588 1342 q 604 1322 604 1329 q 593 1299 604 1318 q 582 1249 582 1281 q 706 1172 582 1172 q 801 1192 771 1172 q 832 1246 832 1213 q 820 1299 832 1279 q 808 1322 808 1318 q 817 1336 808 1331 q 839 1342 825 1342 q 915 1315 883 1342 q 947 1243 947 1288 q 883 1147 947 1181 q 706 1114 818 1114 q 528 1147 593 1114 q 463 1243 463 1181 z "},"Ӌ":{"ha":851,"x_min":14,"x_max":844,"o":"m 844 44 l 828 0 l 703 0 q 606 -25 642 0 q 547 -98 569 -50 q 499 -235 525 -146 l 489 -268 l 442 -251 l 442 58 q 533 74 493 58 q 586 121 574 90 q 592 185 592 143 l 592 463 q 465 388 525 413 q 319 363 404 363 q 140 418 203 363 q 76 582 76 474 l 76 754 q 67 878 76 839 q 33 951 58 918 l 14 975 l 33 999 l 214 1018 l 214 618 q 254 501 214 538 q 376 464 294 464 q 497 488 450 464 q 592 558 543 513 l 592 813 q 574 901 592 876 q 504 942 557 926 l 469 950 l 488 997 l 792 997 l 810 975 l 792 950 q 744 853 757 904 q 731 718 731 801 l 731 175 q 747 91 731 114 q 814 53 764 68 l 844 44 z "},"Ӑ":{"ha":981,"x_min":-22,"x_max":965,"o":"m 618 47 l 650 56 q 698 78 683 64 q 713 117 713 92 q 697 185 713 139 l 631 379 l 310 379 l 276 278 q 244 132 244 182 q 264 47 244 85 l 276 22 l 250 0 l -6 0 l -22 47 l 10 56 q 90 96 65 71 q 138 185 115 121 l 356 813 q 371 881 371 858 q 356 919 371 906 q 308 942 342 933 l 276 950 l 293 997 l 561 997 l 840 192 q 889 94 863 128 q 965 22 915 61 l 947 0 l 635 0 l 618 47 m 339 465 l 601 465 l 468 854 l 339 465 m 211 1243 q 245 1315 211 1288 q 324 1342 279 1342 q 344 1335 336 1342 q 353 1322 353 1329 q 342 1299 353 1318 q 331 1249 331 1281 q 454 1172 331 1172 q 550 1192 519 1172 q 581 1246 581 1213 q 569 1299 581 1279 q 557 1322 557 1318 q 565 1336 557 1331 q 588 1342 574 1342 q 664 1315 632 1342 q 696 1243 696 1288 q 631 1147 696 1181 q 454 1114 567 1114 q 276 1147 342 1114 q 211 1243 211 1181 z "},"Ӓ":{"ha":981,"x_min":-22,"x_max":965,"o":"m 618 47 l 650 56 q 698 78 683 64 q 713 117 713 92 q 697 185 713 139 l 631 379 l 310 379 l 276 278 q 244 132 244 182 q 264 47 244 85 l 276 22 l 250 0 l -6 0 l -22 47 l 10 56 q 90 96 65 71 q 138 185 115 121 l 356 813 q 371 881 371 858 q 356 919 371 906 q 308 942 342 933 l 276 950 l 293 997 l 561 997 l 840 192 q 889 94 863 128 q 965 22 915 61 l 947 0 l 635 0 l 618 47 m 339 465 l 601 465 l 468 854 l 339 465 m 236 1221 q 266 1280 236 1247 q 321 1313 296 1313 q 378 1281 347 1313 q 408 1221 408 1249 q 378 1163 408 1194 q 321 1131 347 1131 q 267 1163 297 1131 q 236 1221 236 1194 m 499 1221 q 528 1280 499 1247 q 583 1313 558 1313 q 640 1281 610 1313 q 671 1221 671 1249 q 640 1163 671 1194 q 583 1131 610 1131 q 529 1163 560 1131 q 499 1221 499 1194 z "},"Ӗ":{"ha":847,"x_min":63,"x_max":760,"o":"m 314 185 q 321 118 314 140 q 347 88 328 96 q 403 79 365 79 l 553 79 q 631 90 603 79 q 674 126 658 100 q 704 203 690 151 l 713 235 l 760 218 l 760 -19 l 732 -35 l 721 -19 q 663 0 706 0 l 78 0 l 63 44 l 92 53 q 160 92 143 68 q 176 175 176 115 l 176 718 q 163 853 176 801 q 114 950 149 904 l 96 975 l 114 997 l 539 997 q 697 1026 658 997 l 722 1044 l 744 1026 l 744 779 l 697 763 l 689 794 q 659 872 675 846 q 615 908 643 897 q 538 918 588 918 l 403 918 q 347 910 365 918 q 321 879 328 901 q 314 813 314 857 l 314 546 l 490 546 q 549 560 524 546 q 600 610 575 575 l 611 625 l 639 610 l 639 372 l 592 356 l 583 388 q 540 451 571 435 q 432 467 508 467 l 314 467 l 314 185 m 219 1243 q 253 1315 219 1288 q 332 1342 288 1342 q 353 1335 344 1342 q 361 1322 361 1329 q 350 1299 361 1318 q 339 1249 339 1281 q 463 1172 339 1172 q 558 1192 528 1172 q 589 1246 589 1213 q 577 1299 589 1279 q 565 1322 565 1318 q 574 1336 565 1331 q 596 1342 582 1342 q 672 1315 640 1342 q 704 1243 704 1288 q 640 1147 704 1181 q 463 1114 575 1114 q 285 1147 350 1114 q 219 1243 219 1181 z "},"Ә":{"ha":872,"x_min":49,"x_max":824,"o":"m 824 501 q 765 229 824 347 q 601 47 707 111 q 361 -18 496 -18 q 196 20 267 -18 q 87 126 125 58 q 49 276 49 193 q 94 442 49 367 q 222 563 139 518 q 413 608 304 608 q 533 592 486 608 q 581 550 581 575 q 572 517 581 531 q 551 504 564 504 q 513 517 544 504 q 432 531 481 531 q 253 464 319 531 q 188 286 188 397 q 242 119 188 176 q 389 61 297 61 q 597 184 525 61 q 667 549 668 307 q 578 826 657 714 q 344 939 499 939 q 220 900 275 939 q 147 781 165 861 l 140 749 l 92 765 l 92 1014 l 115 1031 l 140 1014 q 193 997 158 997 q 226 1000 207 997 q 257 1004 246 1003 q 376 1017 332 1017 q 624 949 524 1017 q 774 765 725 882 q 824 501 824 649 z "},"Ӝ":{"ha":1411,"x_min":14,"x_max":1397,"o":"m 604 496 q 597 481 604 482 q 514 438 547 464 q 458 369 481 413 l 333 117 q 255 14 299 47 q 147 -19 211 -19 q 14 36 68 -19 l 36 76 q 90 57 61 57 q 121 67 108 57 q 144 99 133 78 l 276 357 q 355 460 310 424 q 467 508 400 496 l 186 867 q 134 917 160 900 q 78 942 108 935 l 46 950 l 61 997 l 300 997 l 325 975 l 310 953 q 290 892 290 926 q 317 818 290 853 l 544 529 l 575 529 q 604 496 604 529 m 775 175 q 785 91 775 114 q 829 53 796 68 l 858 44 l 843 0 l 563 0 l 547 47 l 576 56 q 625 96 613 72 q 638 185 638 119 l 638 813 q 628 901 638 876 q 592 942 619 926 l 563 950 l 576 997 l 824 997 l 840 975 l 824 950 q 786 853 797 904 q 775 718 775 801 l 775 175 m 1397 36 q 1264 -19 1343 -19 q 1156 14 1200 -19 q 1078 117 1113 47 l 953 369 q 897 438 931 413 q 814 481 864 464 q 807 496 807 482 q 836 529 807 529 l 867 529 l 1094 818 q 1121 892 1121 853 q 1101 953 1121 926 l 1086 975 l 1111 997 l 1350 997 l 1365 950 l 1333 942 q 1277 917 1303 935 q 1225 867 1251 900 l 944 508 q 1056 460 1011 496 q 1135 357 1101 424 l 1267 99 q 1290 67 1278 78 q 1321 57 1303 57 q 1375 76 1350 57 l 1397 36 m 488 1221 q 517 1280 488 1247 q 572 1313 547 1313 q 629 1281 599 1313 q 660 1221 660 1249 q 629 1163 660 1194 q 572 1131 599 1131 q 518 1163 549 1131 q 488 1221 488 1194 m 750 1221 q 780 1280 750 1247 q 835 1313 810 1313 q 892 1281 861 1313 q 922 1221 922 1249 q 892 1163 922 1194 q 835 1131 861 1131 q 781 1163 811 1131 q 750 1221 750 1194 z "},"Ӟ":{"ha":751,"x_min":32,"x_max":718,"o":"m 125 1014 q 178 997 144 997 q 239 1004 200 997 q 374 1017 317 1017 q 522 990 454 1017 q 629 907 589 963 q 669 772 669 851 q 471 538 669 607 q 661 440 604 510 q 718 256 718 371 q 673 113 718 175 q 545 15 628 50 q 356 -19 463 -19 q 196 6 269 -19 q 77 83 122 32 q 32 206 32 133 q 72 311 32 271 q 172 351 113 351 q 195 349 189 351 q 201 335 201 346 q 185 300 201 331 q 169 217 169 269 q 215 100 169 140 q 351 60 260 60 q 510 114 453 60 q 567 265 567 168 q 513 429 567 364 q 349 494 458 494 q 297 490 319 494 q 265 486 275 486 q 253 494 258 486 q 249 514 249 501 q 267 542 249 533 q 331 561 285 551 q 479 631 440 582 q 518 765 518 681 q 474 893 518 847 q 356 939 431 939 q 210 900 261 939 q 132 753 158 861 l 125 722 l 79 738 l 79 1014 l 101 1031 l 125 1014 m 158 1221 q 188 1280 158 1247 q 243 1313 218 1313 q 300 1281 269 1313 q 331 1221 331 1249 q 300 1163 331 1194 q 243 1131 269 1131 q 189 1163 219 1131 q 158 1221 158 1194 m 421 1221 q 451 1280 421 1247 q 506 1313 481 1313 q 563 1281 532 1313 q 593 1221 593 1249 q 563 1163 593 1194 q 506 1131 532 1131 q 451 1163 482 1131 q 421 1221 421 1194 z "},"Ӣ":{"ha":1015,"x_min":15,"x_max":994,"o":"m 994 44 l 981 0 l 640 0 l 624 47 l 654 56 q 710 78 692 65 q 735 115 728 90 q 743 185 743 139 l 743 711 l 275 201 l 275 175 q 292 92 275 115 q 358 53 308 68 l 388 44 l 374 0 l 32 0 l 15 47 l 49 56 q 104 79 86 67 q 130 116 122 92 q 138 185 138 140 l 138 813 q 119 901 138 876 q 49 942 101 926 l 15 950 l 32 997 l 338 997 l 356 975 l 338 950 q 289 853 303 904 q 275 718 275 801 l 275 315 l 743 824 q 724 905 742 881 q 654 942 706 929 l 624 950 l 640 997 l 943 997 l 964 975 l 943 950 q 893 854 907 906 q 879 718 879 803 l 879 175 q 897 90 879 114 q 967 53 915 67 l 994 44 m 300 1164 q 309 1227 300 1196 q 336 1275 318 1258 l 710 1275 q 701 1211 710 1242 q 674 1164 693 1181 l 300 1164 z "},"Ӥ":{"ha":1015,"x_min":15,"x_max":994,"o":"m 994 44 l 981 0 l 640 0 l 624 47 l 654 56 q 710 78 692 65 q 735 115 728 90 q 743 185 743 139 l 743 711 l 275 201 l 275 175 q 292 92 275 115 q 358 53 308 68 l 388 44 l 374 0 l 32 0 l 15 47 l 49 56 q 104 79 86 67 q 130 116 122 92 q 138 185 138 140 l 138 813 q 119 901 138 876 q 49 942 101 926 l 15 950 l 32 997 l 338 997 l 356 975 l 338 950 q 289 853 303 904 q 275 718 275 801 l 275 315 l 743 824 q 724 905 742 881 q 654 942 706 929 l 624 950 l 640 997 l 943 997 l 964 975 l 943 950 q 893 854 907 906 q 879 718 879 803 l 879 175 q 897 90 879 114 q 967 53 915 67 l 994 44 m 288 1221 q 317 1280 288 1247 q 372 1313 347 1313 q 429 1281 399 1313 q 460 1221 460 1249 q 429 1163 460 1194 q 372 1131 399 1131 q 318 1163 349 1131 q 288 1221 288 1194 m 550 1221 q 580 1280 550 1247 q 635 1313 610 1313 q 692 1281 661 1313 q 722 1221 722 1249 q 692 1163 722 1194 q 635 1131 661 1131 q 581 1163 611 1131 q 550 1221 550 1194 z "},"Ӧ":{"ha":1018,"x_min":49,"x_max":969,"o":"m 49 497 q 100 762 49 644 q 255 948 151 879 q 508 1017 358 1017 q 762 948 658 1017 q 917 762 865 879 q 969 497 969 644 q 917 233 969 350 q 762 49 865 117 q 508 -19 658 -19 q 255 49 358 -19 q 100 233 151 117 q 49 497 49 350 m 818 493 q 790 695 818 593 q 693 867 761 797 q 515 938 625 938 q 345 877 417 938 q 236 714 274 817 q 199 486 199 611 q 233 269 199 365 q 337 118 268 174 q 503 63 406 63 q 672 119 600 63 q 781 274 743 176 q 818 493 818 372 m 292 1221 q 322 1280 292 1247 q 376 1313 351 1313 q 433 1281 403 1313 q 464 1221 464 1249 q 433 1163 464 1194 q 376 1131 403 1131 q 322 1163 353 1131 q 292 1221 292 1194 m 554 1221 q 584 1280 554 1247 q 639 1313 614 1313 q 696 1281 665 1313 q 726 1221 726 1249 q 696 1163 726 1194 q 639 1131 665 1131 q 585 1163 615 1131 q 554 1221 554 1194 z "},"Ө":{"ha":943,"x_min":49,"x_max":969,"o":"m 508 1017 q 762 948 658 1017 q 917 762 865 879 q 969 497 969 644 q 917 233 969 350 q 762 49 865 117 q 508 -19 658 -19 q 255 49 358 -19 q 100 233 151 117 q 49 497 49 350 q 100 762 49 644 q 255 948 151 879 q 508 1017 358 1017 m 515 938 q 355 885 424 938 q 247 741 286 832 q 200 538 208 650 l 817 538 q 778 726 810 635 q 682 877 747 817 q 515 938 617 938 m 503 63 q 665 115 596 63 q 772 257 733 167 q 817 460 811 347 l 199 460 q 284 173 206 283 q 503 63 363 63 z "},"Ӯ":{"ha":832,"x_min":-49,"x_max":864,"o":"m 864 975 l 844 950 q 768 811 804 894 l 514 233 q 391 38 453 94 q 251 -19 329 -19 q 136 15 179 -19 q 93 108 93 50 q 127 197 93 158 q 211 236 161 236 q 240 218 240 236 q 231 187 240 214 q 221 132 221 160 q 235 83 221 101 q 274 65 249 65 q 344 103 313 65 q 418 238 375 142 l 440 288 l 114 800 q 28 918 63 879 q -49 975 -7 957 l -43 997 l 307 997 l 324 950 l 293 942 q 238 882 238 928 q 271 793 238 847 l 506 432 l 640 732 q 668 843 668 796 q 649 908 668 882 q 597 942 631 935 l 567 950 l 583 997 l 849 997 l 864 975 m 233 1164 q 242 1227 233 1196 q 269 1275 251 1258 l 643 1275 q 635 1211 643 1242 q 607 1164 626 1181 l 233 1164 z "},"Ӱ":{"ha":832,"x_min":-49,"x_max":864,"o":"m 864 975 l 844 950 q 768 811 804 894 l 514 233 q 391 38 453 94 q 251 -19 329 -19 q 136 15 179 -19 q 93 108 93 50 q 127 197 93 158 q 211 236 161 236 q 240 218 240 236 q 231 187 240 214 q 221 132 221 160 q 235 83 221 101 q 274 65 249 65 q 344 103 313 65 q 418 238 375 142 l 440 288 l 114 800 q 28 918 63 879 q -49 975 -7 957 l -43 997 l 307 997 l 324 950 l 293 942 q 238 882 238 928 q 271 793 238 847 l 506 432 l 640 732 q 668 843 668 796 q 649 908 668 882 q 597 942 631 935 l 567 950 l 583 997 l 849 997 l 864 975 m 221 1221 q 251 1280 221 1247 q 306 1313 281 1313 q 363 1281 332 1313 q 393 1221 393 1249 q 363 1163 393 1194 q 306 1131 332 1131 q 251 1163 282 1131 q 221 1221 221 1194 m 483 1221 q 513 1280 483 1247 q 568 1313 543 1313 q 625 1281 594 1313 q 656 1221 656 1249 q 625 1163 656 1194 q 568 1131 594 1131 q 514 1163 544 1131 q 483 1221 483 1194 z "},"Ӳ":{"ha":832,"x_min":-49,"x_max":864,"o":"m 864 975 l 844 950 q 768 811 804 894 l 514 233 q 391 38 453 94 q 251 -19 329 -19 q 136 15 179 -19 q 93 108 93 50 q 127 197 93 158 q 211 236 161 236 q 240 218 240 236 q 231 187 240 214 q 221 132 221 160 q 235 83 221 101 q 274 65 249 65 q 344 103 313 65 q 418 238 375 142 l 440 288 l 114 800 q 28 918 63 879 q -49 975 -7 957 l -43 997 l 307 997 l 324 950 l 293 942 q 238 882 238 928 q 271 793 238 847 l 506 432 l 640 732 q 668 843 668 796 q 649 908 668 882 q 597 942 631 935 l 567 950 l 583 997 l 849 997 l 864 975 m 457 1363 q 499 1327 483 1350 q 515 1275 515 1304 q 497 1220 515 1244 q 438 1175 479 1196 l 281 1097 l 240 1146 l 457 1363 m 744 1363 q 787 1327 771 1350 q 803 1275 803 1304 q 785 1220 803 1244 q 725 1175 767 1196 l 568 1097 l 528 1146 l 744 1363 z "},"Ӵ":{"ha":872,"x_min":14,"x_max":844,"o":"m 504 56 q 559 79 542 67 q 584 116 576 92 q 592 185 592 140 l 592 463 q 465 388 525 413 q 319 363 404 363 q 140 418 203 363 q 76 582 76 474 l 76 754 q 67 878 76 839 q 33 951 58 918 l 14 975 l 33 999 l 214 1018 l 214 618 q 254 501 214 538 q 376 464 294 464 q 497 488 450 464 q 592 558 543 513 l 592 813 q 574 901 592 876 q 504 942 557 926 l 469 950 l 488 997 l 792 997 l 810 975 l 792 950 q 744 853 757 904 q 731 718 731 801 l 731 175 q 747 91 731 114 q 814 53 764 68 l 844 44 l 828 0 l 488 0 l 469 47 l 504 56 m 169 1221 q 199 1280 169 1247 q 254 1313 229 1313 q 311 1281 281 1313 q 342 1221 342 1249 q 311 1163 342 1194 q 254 1131 281 1131 q 200 1163 231 1131 q 169 1221 169 1194 m 432 1221 q 462 1280 432 1247 q 517 1313 492 1313 q 574 1281 543 1313 q 604 1221 604 1249 q 574 1163 604 1194 q 517 1131 543 1131 q 463 1163 493 1131 q 432 1221 432 1194 z "},"Ӷ":{"ha":707,"x_min":56,"x_max":689,"o":"m 689 1025 l 689 779 l 640 763 l 633 794 q 606 872 622 846 q 561 909 589 899 q 482 919 533 919 l 363 919 q 306 910 325 919 q 281 879 288 901 q 274 813 274 857 l 274 185 q 275 146 274 157 l 276 146 q 320 81 276 103 q 426 58 364 58 l 426 -251 l 378 -268 l 369 -235 q 319 -97 342 -144 q 261 -25 297 -50 q 164 0 225 0 l 74 0 l 56 22 l 74 47 q 123 145 108 94 q 138 279 138 196 l 138 718 q 123 852 138 800 q 74 950 108 904 l 56 975 l 74 997 l 483 997 q 640 1025 600 997 l 667 1043 l 689 1025 z "},"Ӹ":{"ha":1300,"x_min":56,"x_max":1238,"o":"m 315 254 q 360 106 315 140 q 469 72 406 72 q 606 135 554 72 q 657 299 657 199 q 631 407 657 357 q 558 485 604 457 q 456 514 511 514 q 394 508 418 514 q 364 501 369 501 q 349 510 354 501 q 344 533 344 519 q 383 570 344 558 q 479 582 422 582 q 647 542 574 582 q 760 436 719 503 q 801 292 801 369 q 718 78 801 157 q 460 0 635 0 l 72 0 l 56 47 l 89 56 q 158 95 140 69 q 176 185 176 121 l 176 813 q 158 901 176 875 q 89 942 140 928 l 56 950 l 72 997 l 378 997 l 396 975 l 378 950 q 329 852 343 903 q 315 718 315 801 l 315 254 m 865 47 l 897 56 q 952 80 933 67 q 979 117 971 93 q 988 185 988 140 l 988 813 q 969 901 988 875 q 897 942 950 926 l 865 950 l 881 997 l 1188 997 l 1204 975 l 1188 950 q 1138 852 1153 904 q 1124 718 1124 800 l 1124 175 q 1140 92 1124 115 q 1207 53 1157 68 l 1238 44 l 1222 0 l 881 0 l 865 47 m 432 1221 q 462 1280 432 1247 q 517 1313 492 1313 q 574 1281 543 1313 q 604 1221 604 1249 q 574 1163 604 1194 q 517 1131 543 1131 q 463 1163 493 1131 q 432 1221 432 1194 m 694 1221 q 724 1280 694 1247 q 779 1313 754 1313 q 836 1281 806 1313 q 867 1221 867 1249 q 836 1163 867 1194 q 779 1131 806 1131 q 725 1163 756 1131 q 694 1221 694 1194 z "},"Ԛ":{"ha":1018,"x_min":49,"x_max":1088,"o":"m 49 497 q 100 762 49 644 q 255 948 151 879 q 508 1017 358 1017 q 762 948 658 1017 q 917 762 865 879 q 969 497 969 644 q 922 244 969 357 q 783 64 875 131 l 853 -90 q 913 -172 878 -146 q 999 -197 947 -197 q 1049 -188 1026 -197 q 1075 -179 1071 -179 q 1084 -183 1081 -179 q 1088 -193 1088 -187 q 1049 -276 1088 -243 q 958 -308 1010 -308 q 824 -255 878 -308 q 731 -111 771 -201 l 676 7 q 508 -19 597 -19 q 255 49 358 -19 q 100 233 151 117 q 49 497 49 350 m 818 493 q 790 695 818 593 q 693 867 761 797 q 515 938 625 938 q 345 877 417 938 q 236 714 274 817 q 199 486 199 611 q 219 313 199 392 q 282 176 240 233 q 279 204 279 186 q 326 313 279 274 q 454 353 374 353 q 599 309 531 353 q 725 175 668 265 q 794 317 769 235 q 818 493 818 399 m 339 185 q 387 93 339 124 q 503 63 435 63 q 636 97 575 63 q 537 230 592 188 q 431 272 482 272 q 365 249 390 272 q 339 185 339 225 z "},"Ԝ":{"ha":1510,"x_min":7,"x_max":1489,"o":"m 965 0 l 761 606 l 561 0 l 403 0 l 132 806 q 85 903 111 869 q 7 975 58 936 l 25 997 l 338 997 l 354 950 l 322 942 q 274 919 289 933 q 260 881 260 906 q 275 813 260 858 l 501 115 l 708 761 l 694 806 q 647 903 674 869 q 569 975 621 936 l 588 997 l 900 997 l 917 950 l 885 942 q 837 919 851 933 q 822 881 822 906 q 838 813 822 858 l 1064 115 l 1258 719 q 1285 849 1285 803 q 1222 942 1282 925 l 1190 950 l 1207 997 l 1471 997 l 1489 975 l 1468 950 q 1392 811 1417 889 l 1124 0 l 965 0 z "},"а":{"ha":839,"x_min":63,"x_max":818,"o":"m 557 128 q 440 14 500 47 q 311 -19 381 -19 q 188 19 244 -19 q 97 133 131 57 q 63 318 63 210 q 106 526 63 438 q 231 661 150 614 q 422 708 313 708 q 575 690 476 708 q 700 674 658 676 l 715 656 l 699 631 q 685 605 689 617 q 681 576 681 593 l 681 122 q 722 79 681 79 q 792 104 757 79 l 818 68 q 740 4 782 28 q 664 -19 699 -19 q 582 15 607 -19 q 557 128 557 50 m 208 344 q 253 150 208 213 q 367 88 299 88 q 471 119 422 88 q 557 214 519 150 l 557 589 q 421 632 493 632 q 264 556 319 632 q 208 344 208 481 z "},"б":{"ha":750,"x_min":19,"x_max":713,"o":"m 167 556 q 265 654 207 621 q 396 688 324 688 q 551 649 478 688 q 668 532 624 610 q 713 346 713 454 q 672 158 713 242 q 556 28 632 75 q 378 -19 481 -19 q 188 35 269 -19 q 63 190 107 89 q 19 426 19 290 q 61 723 19 590 q 188 934 103 856 q 397 1013 272 1013 q 457 1010 418 1013 l 506 1008 q 583 1022 557 1008 q 619 1068 601 1035 q 629 1085 624 1078 q 642 1093 635 1093 q 666 1065 653 1093 q 679 1011 679 1038 q 642 917 679 947 q 543 886 606 886 q 431 900 503 886 q 387 907 421 901 q 324 913 353 913 q 260 904 292 913 q 156 556 161 878 l 167 556 m 565 340 q 544 470 565 407 q 476 574 522 533 q 360 615 429 615 q 216 543 268 615 q 164 343 164 471 q 215 137 164 218 q 358 56 265 56 q 468 94 421 56 q 540 198 515 133 q 565 340 565 263 z "},"в":{"ha":793,"x_min":18,"x_max":733,"o":"m 417 0 q 733 194 733 0 q 696 297 733 254 q 589 358 658 339 q 660 425 635 383 q 686 518 686 467 q 604 658 686 608 q 354 707 522 707 q 170 690 265 707 q 18 651 75 674 l 33 603 l 108 603 q 128 597 122 603 q 135 574 135 590 l 135 172 q 119 88 135 111 q 53 53 103 64 l 25 44 l 39 0 l 417 0 m 424 319 q 545 285 501 315 q 589 200 589 254 q 538 102 589 135 q 419 69 488 69 q 308 100 354 69 q 261 233 261 131 l 261 576 q 282 618 261 601 q 367 635 303 635 q 504 601 458 635 q 550 506 550 567 q 508 411 550 444 q 392 378 467 378 q 349 383 365 378 q 326 388 332 388 q 311 363 311 388 q 341 331 311 343 q 414 319 371 319 l 424 319 z "},"г":{"ha":642,"x_min":63,"x_max":607,"o":"m 418 683 q 511 689 476 683 q 565 708 546 694 l 586 726 l 607 708 l 607 481 l 565 467 l 556 496 q 528 568 543 544 q 489 601 514 592 q 417 610 464 610 l 342 610 q 290 602 307 610 q 267 574 274 594 q 260 514 260 554 l 260 169 q 276 89 260 111 q 342 53 292 67 l 371 43 l 356 0 l 78 0 l 63 21 l 78 43 q 124 128 111 88 q 136 244 136 168 l 136 425 q 123 551 136 503 q 78 639 110 599 l 63 664 l 78 683 l 418 683 z "},"ѓ":{"ha":642,"x_min":63,"x_max":607,"o":"m 418 683 q 511 689 476 683 q 565 708 546 694 l 586 726 l 607 708 l 607 481 l 565 467 l 556 496 q 528 568 543 544 q 489 601 514 592 q 417 610 464 610 l 342 610 q 290 602 307 610 q 267 574 274 594 q 260 514 260 554 l 260 169 q 276 89 260 111 q 342 53 292 67 l 371 43 l 356 0 l 78 0 l 63 21 l 78 43 q 124 128 111 88 q 136 244 136 168 l 136 425 q 123 551 136 503 q 78 639 110 599 l 63 664 l 78 683 l 418 683 m 507 1049 q 549 1013 533 1036 q 565 961 565 990 q 547 906 565 931 q 488 861 529 882 l 331 783 l 290 832 l 507 1049 z "},"ґ":{"ha":569,"x_min":49,"x_max":535,"o":"m 283 683 q 380 706 343 683 q 439 771 417 728 q 481 889 461 814 l 490 921 l 535 903 l 535 582 l 514 567 l 490 582 q 381 610 451 610 l 329 610 q 278 602 294 610 q 254 574 261 594 q 247 514 247 554 l 247 169 q 263 89 247 111 q 329 53 279 67 l 358 43 l 343 0 l 64 0 l 49 21 l 64 43 q 110 128 97 88 q 122 244 122 168 l 122 425 q 109 551 122 503 q 64 639 96 599 l 49 664 l 64 683 l 283 683 z "},"д":{"ha":849,"x_min":21,"x_max":814,"o":"m 690 135 q 725 74 690 94 q 814 54 760 54 l 814 -233 l 772 -250 l 765 -219 q 724 -93 746 -139 q 667 -24 701 -47 q 575 0 632 0 l 263 0 q 172 -23 206 0 q 117 -91 138 -46 q 72 -219 96 -136 l 64 -249 l 21 -232 l 21 54 q 149 112 106 64 q 208 235 192 160 q 240 461 225 311 l 249 533 q 253 571 253 557 q 233 618 253 606 q 161 639 214 631 l 132 649 l 146 690 l 746 690 l 763 669 l 746 649 q 702 560 714 607 q 690 433 690 513 l 690 135 m 482 72 q 548 91 532 72 q 564 169 564 110 l 564 518 q 548 595 564 576 q 482 614 532 614 l 429 614 q 371 603 390 614 q 349 563 351 593 q 314 308 331 401 q 269 156 297 215 q 197 72 242 96 l 482 72 z "},"е":{"ha":735,"x_min":63,"x_max":663,"o":"m 657 104 q 535 13 606 44 q 382 -19 464 -19 q 214 25 286 -19 q 102 150 142 69 q 63 336 63 231 q 107 531 63 447 q 233 662 151 615 q 422 708 314 708 q 552 680 499 708 q 632 605 606 651 q 658 504 658 558 q 627 392 658 446 q 536 303 596 338 q 393 269 476 269 q 294 286 349 269 q 240 335 240 303 q 247 356 240 346 q 261 365 253 365 q 289 356 265 365 q 350 347 313 347 q 480 394 433 347 q 526 506 526 442 q 492 599 526 560 q 394 639 457 639 q 256 560 306 639 q 206 336 206 482 q 258 142 206 213 q 411 72 311 72 q 614 151 533 72 q 626 157 619 157 q 650 144 638 157 q 663 117 663 131 q 657 104 663 110 z "},"ѐ":{"ha":735,"x_min":63,"x_max":663,"o":"m 657 104 q 535 13 606 44 q 382 -19 464 -19 q 214 25 286 -19 q 102 150 142 69 q 63 336 63 231 q 107 531 63 447 q 233 662 151 615 q 422 708 314 708 q 552 680 499 708 q 632 605 606 651 q 658 504 658 558 q 627 392 658 446 q 536 303 596 338 q 393 269 476 269 q 294 286 349 269 q 240 335 240 303 q 247 356 240 346 q 261 365 253 365 q 289 356 265 365 q 350 347 313 347 q 480 394 433 347 q 526 506 526 442 q 492 599 526 560 q 394 639 457 639 q 256 560 306 639 q 206 336 206 482 q 258 142 206 213 q 411 72 311 72 q 614 151 533 72 q 626 157 619 157 q 650 144 638 157 q 663 117 663 131 q 657 104 663 110 m 399 790 l 242 868 q 182 913 200 889 q 164 968 164 938 q 180 1020 164 997 q 222 1056 196 1043 l 439 839 l 399 790 z "},"ё":{"ha":735,"x_min":63,"x_max":663,"o":"m 657 104 q 535 13 606 44 q 382 -19 464 -19 q 214 25 286 -19 q 102 150 142 69 q 63 336 63 231 q 107 531 63 447 q 233 662 151 615 q 422 708 314 708 q 552 680 499 708 q 632 605 606 651 q 658 504 658 558 q 627 392 658 446 q 536 303 596 338 q 393 269 476 269 q 294 286 349 269 q 240 335 240 303 q 247 356 240 346 q 261 365 253 365 q 289 356 265 365 q 350 347 313 347 q 480 394 433 347 q 526 506 526 442 q 492 599 526 560 q 394 639 457 639 q 256 560 306 639 q 206 336 206 482 q 258 142 206 213 q 411 72 311 72 q 614 151 533 72 q 626 157 619 157 q 650 144 638 157 q 663 117 663 131 q 657 104 663 110 m 153 914 q 183 973 153 940 q 238 1006 213 1006 q 294 974 264 1006 q 325 914 325 942 q 294 856 325 888 q 238 824 264 824 q 183 856 214 824 q 153 914 153 888 m 415 914 q 445 973 415 940 q 500 1006 475 1006 q 557 974 526 1006 q 588 914 588 942 q 557 856 588 888 q 500 824 526 824 q 446 856 476 824 q 415 914 415 888 z "},"ж":{"ha":1121,"x_min":21,"x_max":1100,"o":"m 438 368 q 463 346 463 368 q 456 328 463 335 q 431 313 449 322 q 391 288 408 301 q 361 249 374 274 l 308 146 q 229 16 264 51 q 138 -19 194 -19 q 21 32 76 -19 l 42 71 q 92 53 65 53 q 117 62 107 53 q 140 90 128 71 l 233 265 q 322 349 263 319 l 174 569 q 129 617 153 601 q 75 639 106 632 l 46 647 l 60 690 l 285 690 l 308 669 l 297 647 q 289 624 296 642 q 282 590 282 606 q 286 556 282 571 q 307 519 290 542 l 411 368 l 438 368 m 386 43 l 414 53 q 481 89 464 67 q 497 169 497 111 l 497 521 q 481 602 497 579 q 414 639 464 625 l 386 649 l 403 690 l 679 690 l 696 671 l 679 649 q 635 558 647 606 q 622 433 622 511 l 622 160 q 632 81 622 101 q 675 50 642 60 l 700 42 l 686 0 l 403 0 l 386 43 m 979 90 q 1003 61 993 69 q 1028 53 1013 53 q 1078 71 1054 53 l 1100 32 q 982 -19 1049 -19 q 915 -3 942 -19 q 866 47 889 13 q 811 146 843 81 l 758 249 q 728 288 746 274 q 689 313 711 301 q 664 328 671 322 q 657 346 657 335 q 682 368 657 368 l 708 368 l 813 519 q 833 557 828 542 q 839 590 839 572 q 832 624 839 606 q 824 647 825 642 l 811 669 l 833 690 l 1060 690 l 1076 647 l 1046 639 q 946 569 981 624 l 800 349 q 886 265 857 319 l 979 90 z "},"з":{"ha":664,"x_min":51,"x_max":615,"o":"m 481 200 q 431 297 481 263 q 297 335 382 332 l 283 335 q 253 360 253 335 q 269 383 253 375 q 326 399 286 390 q 437 442 406 411 q 468 529 468 474 q 431 603 468 574 q 324 633 393 633 q 143 492 185 633 l 133 463 l 93 476 l 93 704 l 111 722 l 133 704 q 183 690 154 690 q 232 697 201 690 q 325 707 290 707 q 524 663 458 707 q 589 539 589 618 q 553 435 589 478 q 449 372 518 393 q 575 298 535 347 q 615 189 615 249 q 581 87 615 135 q 480 10 547 39 q 318 -19 413 -19 q 129 26 207 -19 q 51 154 51 72 q 81 226 51 197 q 154 254 110 254 q 185 239 185 254 q 178 212 185 233 q 171 160 171 190 q 210 83 171 110 q 318 56 250 56 q 440 90 399 56 q 481 200 481 125 z "},"и":{"ha":933,"x_min":63,"x_max":871,"o":"m 304 133 q 327 74 311 90 q 376 50 343 58 l 403 42 l 390 0 l 76 0 l 63 43 l 90 53 q 155 89 139 67 q 171 169 171 111 l 171 521 q 155 602 171 579 q 90 639 139 625 l 63 649 l 76 690 l 356 690 l 372 671 l 356 649 q 310 558 324 604 q 297 433 297 511 l 297 238 l 632 554 q 609 613 625 596 q 558 639 593 629 l 531 649 l 544 690 l 824 690 l 839 671 l 824 649 q 778 558 792 604 q 765 433 765 511 l 765 160 q 772 101 765 121 q 794 71 779 81 q 843 50 810 61 l 871 42 l 857 0 l 544 0 l 531 43 l 558 53 q 624 89 608 67 q 640 169 640 111 l 640 449 l 304 133 z "},"й":{"ha":933,"x_min":63,"x_max":871,"o":"m 304 133 q 327 74 311 90 q 376 50 343 58 l 403 42 l 390 0 l 76 0 l 63 43 l 90 53 q 155 89 139 67 q 171 169 171 111 l 171 521 q 155 602 171 579 q 90 639 139 625 l 63 649 l 76 690 l 356 690 l 372 671 l 356 649 q 310 558 324 604 q 297 433 297 511 l 297 238 l 632 554 q 609 613 625 596 q 558 639 593 629 l 531 649 l 544 690 l 824 690 l 839 671 l 824 649 q 778 558 792 604 q 765 433 765 511 l 765 160 q 772 101 765 121 q 794 71 779 81 q 843 50 810 61 l 871 42 l 857 0 l 544 0 l 531 43 l 558 53 q 624 89 608 67 q 640 169 640 111 l 640 449 l 304 133 m 249 921 q 278 992 249 965 q 349 1019 307 1019 q 367 1014 360 1019 q 374 1000 374 1008 q 363 977 374 996 q 353 926 353 958 q 377 871 353 892 q 464 850 401 850 q 550 870 522 850 q 578 924 578 890 q 568 976 578 957 q 558 1000 558 996 q 585 1019 558 1019 q 652 992 624 1019 q 681 921 681 965 q 622 826 681 860 q 464 792 564 792 q 306 826 364 792 q 249 921 249 860 z "},"ѝ":{"ha":933,"x_min":63,"x_max":871,"o":"m 304 133 q 327 74 311 90 q 376 50 343 58 l 403 42 l 390 0 l 76 0 l 63 43 l 90 53 q 155 89 139 67 q 171 169 171 111 l 171 521 q 155 602 171 579 q 90 639 139 625 l 63 649 l 76 690 l 356 690 l 372 671 l 356 649 q 310 558 324 604 q 297 433 297 511 l 297 238 l 632 554 q 609 613 625 596 q 558 639 593 629 l 531 649 l 544 690 l 824 690 l 839 671 l 824 649 q 778 558 792 604 q 765 433 765 511 l 765 160 q 772 101 765 121 q 794 71 779 81 q 843 50 810 61 l 871 42 l 857 0 l 544 0 l 531 43 l 558 53 q 624 89 608 67 q 640 169 640 111 l 640 449 l 304 133 m 493 790 l 336 868 q 276 913 294 889 q 258 968 258 938 q 274 1020 258 997 q 317 1056 290 1043 l 533 839 l 493 790 z "},"к":{"ha":824,"x_min":63,"x_max":803,"o":"m 63 43 l 89 53 q 155 89 139 67 q 171 169 171 111 l 171 521 q 155 602 171 579 q 89 639 139 625 l 63 649 l 75 690 l 353 690 l 369 671 l 353 649 q 309 557 322 604 q 296 433 296 510 l 296 160 q 303 101 296 121 q 325 71 310 81 q 374 50 340 61 l 400 42 l 388 0 l 75 0 l 63 43 m 683 90 q 706 62 696 71 q 729 53 715 53 q 781 71 757 53 l 803 32 q 685 -19 751 -19 q 590 11 628 -19 q 514 107 553 42 l 418 267 q 391 297 407 286 q 360 314 375 307 q 339 324 344 321 q 333 340 333 326 q 357 368 333 368 l 382 368 l 507 519 q 535 599 535 554 q 525 647 535 624 l 514 669 l 536 690 l 763 690 l 778 647 l 751 639 q 697 616 721 632 q 649 569 672 600 l 475 350 q 575 265 546 315 l 683 90 z "},"ќ":{"ha":824,"x_min":63,"x_max":803,"o":"m 63 43 l 89 53 q 155 89 139 67 q 171 169 171 111 l 171 521 q 155 602 171 579 q 89 639 139 625 l 63 649 l 75 690 l 353 690 l 369 671 l 353 649 q 309 557 322 604 q 296 433 296 510 l 296 160 q 303 101 296 121 q 325 71 310 81 q 374 50 340 61 l 400 42 l 388 0 l 75 0 l 63 43 m 683 90 q 706 62 696 71 q 729 53 715 53 q 781 71 757 53 l 803 32 q 685 -19 751 -19 q 590 11 628 -19 q 514 107 553 42 l 418 267 q 391 297 407 286 q 360 314 375 307 q 339 324 344 321 q 333 340 333 326 q 357 368 333 368 l 382 368 l 507 519 q 535 599 535 554 q 525 647 535 624 l 514 669 l 536 690 l 763 690 l 778 647 l 751 639 q 697 616 721 632 q 649 569 672 600 l 475 350 q 575 265 546 315 l 683 90 m 597 1056 q 640 1020 624 1043 q 656 968 656 997 q 638 913 656 938 q 578 868 619 889 l 421 790 l 381 839 l 597 1056 z "},"л":{"ha":846,"x_min":21,"x_max":815,"o":"m 767 647 q 723 557 736 604 q 710 433 710 510 l 710 160 q 726 85 710 106 q 789 50 742 64 l 815 43 l 801 0 l 489 0 l 474 43 l 501 53 q 569 90 551 67 q 586 172 586 113 l 586 519 q 569 598 586 579 q 501 617 553 617 l 478 617 q 420 607 439 617 q 399 567 401 597 q 340 199 379 328 q 251 25 300 69 q 144 -19 203 -19 q 55 15 89 -19 q 21 107 21 50 q 39 169 21 146 q 89 192 57 192 q 119 149 115 192 q 169 94 129 94 q 267 215 232 94 q 318 533 303 335 l 319 558 q 301 617 319 601 q 228 639 282 632 l 200 649 l 214 690 l 767 690 l 786 669 l 767 647 z "},"м":{"ha":1038,"x_min":21,"x_max":1017,"o":"m 928 249 q 942 180 931 238 q 971 85 953 122 q 1017 19 989 47 l 1000 0 l 719 0 l 706 43 l 732 53 q 791 86 772 63 q 810 147 810 110 q 804 192 810 158 l 749 538 l 540 92 l 497 92 l 288 538 l 235 204 q 232 174 232 185 q 278 43 232 113 l 294 19 l 276 0 l 38 0 l 21 43 l 53 53 q 117 90 100 65 q 142 169 133 115 l 197 546 q 199 564 199 553 q 179 612 199 594 q 121 639 160 629 l 94 649 l 106 690 l 340 690 l 539 267 l 742 690 l 922 690 l 943 671 l 925 649 q 876 521 876 579 q 881 485 876 504 l 928 249 z "},"н":{"ha":921,"x_min":63,"x_max":858,"o":"m 519 43 l 550 53 q 616 89 600 67 q 632 169 632 111 l 632 307 l 297 307 l 297 160 q 304 101 297 121 q 327 70 311 81 q 375 50 343 60 l 403 42 l 389 0 l 78 0 l 63 43 l 90 53 q 156 89 140 67 q 172 169 172 111 l 172 521 q 156 602 172 579 q 90 639 140 625 l 63 649 l 78 690 l 354 690 l 371 671 l 354 649 q 310 559 322 607 q 297 433 297 511 l 297 388 l 632 388 l 632 521 q 616 602 632 579 q 550 639 600 625 l 519 649 l 536 690 l 813 690 l 831 671 l 813 649 q 769 560 782 607 q 757 433 757 513 l 757 160 q 764 101 757 121 q 786 70 771 81 q 833 50 801 60 l 858 42 l 846 0 l 536 0 l 519 43 z "},"о":{"ha":803,"x_min":63,"x_max":740,"o":"m 63 344 q 103 538 63 456 q 222 664 144 619 q 401 708 299 708 q 581 664 504 708 q 699 538 657 619 q 740 344 740 456 q 699 152 740 235 q 581 25 657 69 q 401 -19 504 -19 q 222 25 299 -19 q 103 152 144 69 q 63 344 63 235 m 594 340 q 576 474 594 406 q 516 589 558 542 q 406 636 474 636 q 302 599 347 636 q 232 496 257 563 q 207 343 207 429 q 258 133 207 211 q 397 56 310 56 q 499 91 454 56 q 569 191 544 126 q 594 340 594 256 z "},"п":{"ha":883,"x_min":63,"x_max":821,"o":"m 356 614 q 299 605 318 614 q 274 574 281 596 q 267 507 267 551 l 267 185 q 274 116 267 140 q 300 79 282 92 q 356 56 318 67 l 389 47 l 371 0 l 81 0 l 63 22 l 81 47 q 128 144 115 93 q 142 279 142 194 l 142 410 q 128 547 142 496 q 81 642 115 599 l 63 669 l 81 690 l 768 690 l 786 669 l 768 642 q 720 547 733 599 q 707 410 707 496 l 707 175 q 724 90 707 114 q 790 53 740 67 l 821 44 l 804 0 l 478 0 l 460 47 l 493 56 q 547 79 529 67 q 573 116 565 92 q 581 185 581 140 l 581 507 q 574 574 581 551 q 548 605 567 596 q 493 614 529 614 l 356 614 z "},"р":{"ha":826,"x_min":42,"x_max":764,"o":"m 268 621 q 468 708 358 708 q 622 665 554 708 q 726 546 689 622 q 764 372 764 469 q 724 172 764 261 q 615 31 685 82 q 458 -19 546 -19 q 319 18 376 -19 q 307 43 307 26 q 312 67 307 57 q 328 78 317 78 q 359 67 333 78 q 426 56 385 56 q 524 93 481 56 q 592 197 568 131 q 617 344 617 263 q 592 485 617 424 q 524 582 568 547 q 424 617 481 617 q 268 563 339 617 l 268 -215 q 280 -290 268 -268 q 326 -319 292 -311 l 356 -326 l 340 -369 l 99 -369 l 82 -349 l 99 -326 q 133 -251 124 -290 q 143 -147 143 -212 l 143 529 q 137 561 143 551 q 114 575 131 571 l 42 590 l 42 636 q 126 674 64 656 q 235 692 189 692 q 268 628 268 692 l 268 621 z "},"с":{"ha":707,"x_min":63,"x_max":651,"o":"m 604 143 q 617 147 608 147 q 640 135 628 147 q 651 108 651 122 q 647 96 651 100 q 534 10 599 40 q 397 -19 469 -19 q 225 27 301 -19 q 106 156 149 74 q 63 343 63 239 q 104 535 63 453 q 222 663 146 618 q 399 708 297 708 q 574 656 506 708 q 643 522 643 604 q 605 424 643 463 q 507 386 567 386 q 481 401 481 386 q 490 421 481 406 q 507 458 500 436 q 514 515 514 481 q 478 603 514 571 q 383 636 443 636 q 256 558 304 636 q 207 354 207 481 q 265 149 207 225 q 421 74 322 74 q 604 143 521 74 z "},"т":{"ha":631,"x_min":3,"x_max":628,"o":"m 578 496 q 549 568 564 544 q 510 601 535 592 q 439 610 485 610 l 422 610 q 387 591 396 610 q 378 514 378 572 l 378 169 q 394 89 378 111 q 458 53 410 67 l 490 43 l 474 0 l 196 0 l 179 21 l 196 43 q 240 131 228 85 q 253 257 253 178 l 253 514 q 244 591 253 572 q 208 610 235 610 l 194 610 q 122 601 147 610 q 82 568 97 592 q 54 496 67 544 l 46 467 l 3 481 l 3 708 l 25 726 l 46 708 q 100 689 65 694 q 193 683 135 683 l 439 683 q 532 689 497 683 q 585 708 567 694 l 606 726 l 628 708 l 628 481 l 585 467 l 578 496 z "},"у":{"ha":847,"x_min":42,"x_max":713,"o":"m 404 -386 q 274 -358 328 -386 q 193 -284 219 -329 q 167 -187 167 -239 q 214 -69 167 -118 q 343 -19 261 -19 q 363 -24 357 -19 q 369 -35 369 -29 q 350 -61 369 -40 q 316 -111 331 -82 q 301 -185 301 -140 q 334 -277 301 -240 q 422 -314 367 -314 q 549 -243 508 -314 q 589 -53 589 -172 l 589 153 q 493 56 557 92 q 353 21 429 21 q 199 81 254 21 q 143 251 143 142 l 143 560 q 137 583 143 576 q 115 590 131 590 l 54 590 l 42 626 q 130 686 78 663 q 225 710 182 710 q 257 697 244 710 q 269 665 269 685 l 269 283 q 303 157 269 200 q 400 114 336 114 q 545 184 493 114 q 597 378 597 254 q 588 547 597 492 q 543 649 578 603 l 526 671 l 543 692 l 713 710 l 713 -31 q 630 -294 713 -201 q 404 -386 547 -386 z "},"ў":{"ha":847,"x_min":42,"x_max":713,"o":"m 404 -386 q 274 -358 328 -386 q 193 -284 219 -329 q 167 -187 167 -239 q 214 -69 167 -118 q 343 -19 261 -19 q 363 -24 357 -19 q 369 -35 369 -29 q 350 -61 369 -40 q 316 -111 331 -82 q 301 -185 301 -140 q 334 -277 301 -240 q 422 -314 367 -314 q 549 -243 508 -314 q 589 -53 589 -172 l 589 153 q 493 56 557 92 q 353 21 429 21 q 199 81 254 21 q 143 251 143 142 l 143 560 q 137 583 143 576 q 115 590 131 590 l 54 590 l 42 626 q 130 686 78 663 q 225 710 182 710 q 257 697 244 710 q 269 665 269 685 l 269 283 q 303 157 269 200 q 400 114 336 114 q 545 184 493 114 q 597 378 597 254 q 588 547 597 492 q 543 649 578 603 l 526 671 l 543 692 l 713 710 l 713 -31 q 630 -294 713 -201 q 404 -386 547 -386 m 171 921 q 200 992 171 965 q 271 1019 229 1019 q 289 1014 282 1019 q 296 1000 296 1008 q 285 977 296 996 q 275 926 275 958 q 299 871 275 892 q 386 850 324 850 q 472 870 444 850 q 500 924 500 890 q 490 976 500 957 q 481 1000 481 996 q 507 1019 481 1019 q 574 992 546 1019 q 603 921 603 965 q 544 826 603 860 q 386 792 486 792 q 228 826 286 792 q 171 921 171 860 z "},"ф":{"ha":1079,"x_min":7,"x_max":1074,"o":"m 478 568 q 346 617 413 617 q 208 538 261 617 q 154 314 154 458 q 177 176 154 235 q 237 86 200 117 q 317 56 274 56 q 392 67 365 56 q 422 78 418 78 q 439 43 439 78 q 435 28 439 36 q 426 18 432 21 q 279 -19 363 -19 q 81 77 154 -19 q 7 343 7 174 q 44 540 7 458 q 148 665 82 622 q 299 707 214 707 q 478 626 397 707 l 478 924 q 472 956 478 946 q 449 969 467 965 l 375 983 l 375 1031 q 462 1069 399 1050 q 571 1088 525 1088 q 601 1022 601 1088 l 601 626 q 782 707 682 707 q 933 665 867 707 q 1036 540 999 622 q 1074 343 1074 458 q 1000 78 1074 175 q 801 -19 926 -19 q 654 18 715 -19 q 644 28 649 21 q 640 43 640 36 q 658 78 640 78 q 688 67 663 78 q 763 56 714 56 q 842 86 804 56 q 902 176 879 117 q 925 314 925 235 q 872 538 925 458 q 735 617 818 617 q 667 605 699 617 q 601 568 635 593 l 601 -215 q 613 -290 601 -268 q 660 -321 625 -312 l 690 -326 l 675 -368 l 432 -368 l 417 -349 l 432 -326 q 467 -251 457 -290 q 478 -147 478 -212 l 478 568 z "},"х":{"ha":768,"x_min":28,"x_max":740,"o":"m 657 588 q 444 371 499 429 l 599 107 q 625 76 611 85 q 657 68 639 68 q 710 86 682 68 l 740 44 q 611 -19 681 -19 q 463 78 518 -19 l 350 269 q 228 88 228 128 q 254 43 228 65 l 281 21 l 264 0 l 49 0 l 33 29 l 64 60 q 321 321 253 249 l 169 582 q 143 613 157 604 q 111 621 129 621 q 58 603 86 621 l 28 644 q 157 708 88 708 q 306 611 250 708 l 414 422 q 536 603 536 561 q 510 647 536 625 l 483 669 l 500 690 l 715 690 l 731 661 l 657 588 z "},"ч":{"ha":788,"x_min":21,"x_max":725,"o":"m 399 0 l 385 44 l 413 53 q 478 88 463 64 q 493 172 493 111 l 493 296 q 404 246 453 264 q 289 228 356 228 q 128 278 182 228 q 75 433 75 329 l 75 468 q 73 563 75 535 q 64 608 71 592 q 39 650 57 624 l 21 669 l 38 692 l 203 708 l 203 453 q 237 353 203 383 q 335 324 271 324 q 493 379 429 324 l 493 521 q 478 601 493 579 q 413 639 463 624 l 385 649 l 399 690 l 678 690 l 694 669 l 678 649 q 633 558 646 606 q 621 433 621 511 l 621 160 q 636 85 621 106 q 699 50 651 64 l 725 43 l 713 0 l 399 0 z "},"ц":{"ha":911,"x_min":63,"x_max":876,"o":"m 751 135 q 786 74 751 94 q 876 54 821 54 l 876 -233 l 832 -250 l 826 -219 q 756 -51 797 -101 q 632 0 715 0 l 78 0 l 63 43 l 90 51 q 155 85 139 61 q 171 169 171 110 l 171 521 q 155 603 171 581 q 90 639 139 625 l 63 649 l 78 690 l 354 690 l 371 669 l 354 649 q 310 558 322 606 q 297 433 297 511 l 297 169 q 313 91 297 110 q 379 72 329 72 l 543 72 q 610 91 593 72 q 626 169 626 110 l 626 521 q 609 602 626 579 q 543 639 592 625 l 513 649 l 531 690 l 808 690 l 824 669 l 808 649 q 764 558 776 606 q 751 433 751 511 l 751 135 z "},"ш":{"ha":1318,"x_min":63,"x_max":1256,"o":"m 63 43 l 92 53 q 156 89 140 67 q 171 169 171 111 l 171 521 q 156 602 171 579 q 92 639 140 625 l 63 649 l 76 690 l 357 690 l 372 671 l 357 649 q 311 558 325 606 q 297 433 297 510 l 297 169 q 314 92 297 111 q 381 72 331 72 l 513 72 q 584 92 565 72 q 603 169 603 111 l 603 521 q 585 602 603 579 q 518 639 568 625 l 490 649 l 506 690 l 779 690 l 796 671 l 779 649 q 734 558 747 607 q 721 433 721 510 l 721 160 q 728 103 721 121 q 751 78 735 85 q 801 72 767 72 l 942 72 q 1009 91 993 72 q 1025 169 1025 110 l 1025 521 q 1008 602 1025 579 q 942 639 992 625 l 913 649 l 928 690 l 1208 690 l 1225 671 l 1208 649 q 1163 559 1176 607 q 1150 433 1150 511 l 1150 160 q 1157 101 1150 121 q 1180 70 1164 81 q 1228 50 1196 60 l 1256 42 l 1242 0 l 76 0 l 63 43 z "},"щ":{"ha":1313,"x_min":63,"x_max":1278,"o":"m 1151 133 q 1187 74 1151 93 q 1278 54 1222 54 l 1278 -233 l 1233 -250 l 1226 -219 q 1157 -50 1197 -100 q 1033 0 1117 0 l 78 0 l 63 43 l 93 51 q 157 85 142 61 q 172 169 172 110 l 172 521 q 157 602 172 579 q 93 639 142 625 l 63 649 l 78 690 l 358 690 l 372 669 l 358 649 q 312 558 325 606 q 299 433 299 510 l 299 169 q 315 91 299 110 q 382 72 332 72 l 514 72 q 584 92 565 72 q 603 169 603 111 l 603 521 q 585 602 603 579 q 519 639 568 625 l 492 649 l 506 690 l 781 690 l 797 669 l 781 649 q 735 558 749 606 q 722 433 722 511 l 722 160 q 728 103 722 121 q 751 78 735 85 q 803 72 768 72 l 943 72 q 995 80 978 72 q 1019 108 1013 88 q 1025 169 1025 128 l 1025 521 q 1009 602 1025 579 q 943 639 993 625 l 914 649 l 928 690 l 1210 690 l 1226 669 l 1210 649 q 1165 558 1178 606 q 1151 433 1151 511 l 1151 133 z "},"џ":{"ha":918,"x_min":63,"x_max":856,"o":"m 63 43 l 90 51 q 156 89 140 67 q 172 169 172 111 l 172 522 q 156 603 172 581 q 90 640 140 625 l 63 650 l 78 692 l 354 692 l 371 672 l 354 650 q 310 559 322 607 q 297 435 297 511 l 297 169 q 313 91 297 110 q 381 72 329 72 l 544 72 q 597 80 579 72 q 620 108 614 88 q 626 169 626 128 l 626 522 q 610 603 626 581 q 544 640 593 625 l 515 650 l 533 692 l 810 692 l 826 672 l 810 650 q 765 560 778 607 q 753 435 753 513 l 753 160 q 760 101 753 121 q 782 70 767 81 q 831 50 797 60 l 856 42 l 842 0 l 531 0 l 531 -210 l 486 -225 l 479 -196 q 428 -67 456 -107 q 355 -13 401 -26 q 217 0 308 0 l 78 0 l 63 43 z "},"ь":{"ha":783,"x_min":63,"x_max":756,"o":"m 297 257 q 321 131 297 172 q 378 78 344 89 q 457 68 411 68 q 569 108 528 68 q 611 210 611 147 q 563 306 611 267 q 440 346 515 346 q 376 339 400 346 q 347 332 353 332 q 335 340 339 332 q 331 360 331 349 q 371 397 331 385 q 464 408 411 408 q 624 381 558 408 q 723 308 690 354 q 756 206 756 261 q 679 55 756 110 q 435 0 603 0 l 78 0 l 63 43 l 92 53 q 156 90 139 67 q 172 169 172 113 l 172 521 q 156 601 172 578 q 92 639 139 625 l 63 649 l 78 690 l 356 690 l 372 671 l 356 649 q 310 558 324 606 q 297 433 297 510 l 297 257 z "},"ъ":{"ha":869,"x_min":21,"x_max":842,"o":"m 386 257 q 409 131 386 172 q 465 78 432 89 q 542 68 497 68 q 656 108 613 68 q 699 210 699 147 q 651 306 699 267 q 529 346 604 346 q 465 339 488 346 q 438 332 443 332 q 418 360 418 332 q 458 397 418 385 q 550 408 497 408 q 710 381 644 408 q 809 308 776 354 q 842 206 842 261 q 765 55 842 110 q 522 0 689 0 l 167 0 l 149 43 l 178 53 q 244 90 228 67 q 261 169 261 113 l 261 557 q 251 597 261 585 q 217 610 242 610 l 213 610 q 140 601 165 610 q 101 568 115 592 q 74 496 86 544 l 64 467 l 21 481 l 21 708 l 43 726 l 64 708 q 118 689 83 694 q 211 683 153 683 l 444 683 l 461 665 l 444 640 q 399 552 413 600 q 386 425 386 504 l 386 257 z "},"ы":{"ha":1182,"x_min":63,"x_max":1119,"o":"m 297 257 q 322 131 297 172 q 378 78 346 89 q 457 68 411 68 q 558 108 518 68 q 597 210 597 147 q 553 306 597 267 q 440 346 508 346 q 376 339 400 346 q 347 332 353 332 q 335 340 339 332 q 331 360 331 349 q 371 397 331 385 q 464 408 411 408 q 613 381 550 408 q 708 307 675 353 q 740 206 740 261 q 666 55 740 110 q 433 0 592 0 l 78 0 l 63 43 l 92 53 q 156 90 139 67 q 172 169 172 113 l 172 521 q 156 601 172 578 q 92 639 139 625 l 63 649 l 78 690 l 356 690 l 372 671 l 356 649 q 310 558 324 606 q 297 433 297 510 l 297 257 m 781 43 l 810 53 q 874 89 858 67 q 890 169 890 111 l 890 521 q 874 602 890 579 q 810 639 858 625 l 781 649 l 793 690 l 1075 690 l 1090 671 l 1075 649 q 1030 559 1043 607 q 1017 433 1017 511 l 1017 160 q 1024 101 1017 121 q 1046 70 1031 81 q 1093 50 1061 60 l 1119 42 l 1107 0 l 793 0 l 781 43 z "},"љ":{"ha":1193,"x_min":21,"x_max":1165,"o":"m 874 408 q 1034 381 968 408 q 1133 308 1100 354 q 1165 206 1165 261 q 1089 55 1165 110 q 844 0 1013 0 l 488 0 l 472 43 l 501 53 q 567 90 549 67 q 585 169 585 113 l 585 519 q 568 598 585 579 q 501 617 551 617 l 478 617 q 419 607 438 617 q 397 567 400 597 q 306 102 375 224 q 143 -19 238 -19 q 54 15 88 -19 q 21 107 21 50 q 39 169 21 147 q 88 192 57 192 q 119 149 115 192 q 134 110 122 126 q 168 94 146 94 q 266 215 231 94 q 317 533 301 336 l 318 560 q 299 617 318 601 q 226 639 281 632 l 199 649 l 214 690 l 767 690 l 786 671 l 767 649 q 722 558 735 606 q 710 433 710 511 l 710 257 q 733 131 710 172 q 788 78 756 89 q 867 68 821 68 q 979 108 938 68 q 1021 210 1021 147 q 974 306 1021 267 q 851 346 926 346 q 788 339 811 346 q 758 332 764 332 q 746 340 751 332 q 740 360 740 349 q 781 397 740 385 q 874 408 821 408 z "},"њ":{"ha":1276,"x_min":63,"x_max":1214,"o":"m 757 257 q 780 131 757 172 q 835 78 803 89 q 914 68 868 68 q 1027 107 985 68 q 1069 210 1069 146 q 1022 306 1069 267 q 900 346 975 346 q 836 339 860 346 q 807 332 813 332 q 792 340 797 332 q 788 360 788 349 q 828 397 788 385 q 921 408 868 408 q 1081 381 1015 408 q 1181 308 1147 354 q 1214 206 1214 261 q 1137 55 1214 110 q 893 0 1060 0 l 536 0 l 519 43 l 551 53 q 615 90 599 67 q 632 169 632 113 l 632 307 l 299 307 l 299 160 q 306 101 299 121 q 328 70 313 81 q 376 50 343 60 l 403 42 l 389 0 l 78 0 l 63 43 l 92 53 q 156 89 140 67 q 172 169 172 111 l 172 521 q 156 602 172 579 q 92 639 140 625 l 63 649 l 78 690 l 354 690 l 371 671 l 354 649 q 311 560 324 607 q 299 433 299 513 l 299 388 l 632 388 l 632 521 q 615 601 632 578 q 551 639 599 625 l 519 649 l 536 690 l 814 690 l 832 671 l 814 649 q 769 558 782 606 q 757 433 757 511 l 757 257 z "},"ѕ":{"ha":668,"x_min":75,"x_max":592,"o":"m 335 49 q 428 80 392 49 q 465 161 465 111 q 427 233 465 206 q 314 293 389 261 q 201 347 246 321 q 124 416 156 374 q 92 521 92 458 q 163 656 92 604 q 344 708 235 708 q 508 669 443 708 q 574 565 574 631 q 541 478 574 513 q 457 444 508 444 q 428 463 428 444 q 438 491 428 468 q 449 540 449 514 q 414 617 449 592 q 335 642 379 642 q 245 613 278 642 q 213 540 213 585 q 253 458 213 489 q 375 393 294 426 q 486 341 442 365 q 561 279 531 317 q 592 189 592 242 q 517 38 592 94 q 317 -19 442 -19 q 143 28 211 -19 q 75 154 75 75 q 107 232 75 201 q 190 263 139 263 q 219 246 219 263 q 211 220 219 242 q 203 168 203 199 q 244 79 203 110 q 335 49 285 49 z "},"є":{"ha":721,"x_min":63,"x_max":665,"o":"m 631 147 q 653 135 642 147 q 665 108 665 122 q 661 96 665 97 q 547 10 613 40 q 406 -19 481 -19 q 230 28 308 -19 q 107 158 151 75 q 63 343 63 240 q 105 536 63 454 q 226 663 147 618 q 410 707 306 707 q 538 685 482 707 q 624 624 593 663 q 656 539 656 586 q 624 463 656 490 q 540 435 592 435 q 522 438 528 435 q 517 449 517 440 q 525 472 517 453 q 533 529 533 492 q 494 605 533 575 q 392 635 454 635 q 263 565 314 635 q 207 382 213 496 l 486 382 q 457 294 486 318 l 211 294 q 281 132 224 190 q 428 74 338 74 q 617 143 533 74 q 631 147 619 147 z "},"э":{"ha":732,"x_min":63,"x_max":669,"o":"m 232 314 q 260 392 232 375 l 525 392 q 460 568 514 503 q 322 633 406 633 q 142 492 183 633 l 133 463 l 89 476 l 89 704 l 111 722 l 133 704 q 183 690 153 690 q 231 697 200 690 q 324 707 289 707 q 506 663 428 707 q 627 536 585 618 q 669 343 669 454 q 626 158 669 240 q 503 28 582 75 q 328 -19 425 -19 q 140 26 217 -19 q 63 154 63 72 q 92 226 63 197 q 165 254 121 254 q 194 239 194 254 q 188 212 194 233 q 182 160 182 190 q 221 83 182 111 q 318 56 260 56 q 462 125 407 56 q 525 314 517 194 l 232 314 z "},"і":{"ha":433,"x_min":49,"x_max":413,"o":"m 128 914 q 158 973 128 940 q 213 1006 188 1006 q 269 974 239 1006 q 300 914 300 942 q 269 856 300 888 q 213 824 239 824 q 158 856 189 824 q 128 914 128 888 m 275 122 q 317 75 275 75 q 386 104 351 75 l 413 68 q 335 4 376 28 q 257 -19 293 -19 q 175 15 200 -19 q 150 128 150 50 l 150 558 q 144 582 150 575 q 122 589 138 589 l 61 589 l 49 625 q 140 685 89 661 q 232 708 192 708 q 264 696 251 708 q 276 664 276 683 l 275 122 z "},"ї":{"ha":401,"x_min":-15,"x_max":422,"o":"m 68 1004 q 126 972 94 1004 q 158 914 158 940 q 126 856 158 888 q 68 824 94 824 q 15 856 44 824 q -15 914 -15 888 q 14 973 -15 942 q 68 1004 43 1004 m 332 1004 q 390 972 358 1004 q 422 914 422 940 q 390 856 422 888 q 332 824 358 824 q 278 856 308 824 q 247 914 247 888 q 277 972 247 940 q 332 1004 307 1004 m 260 122 q 301 75 260 75 q 372 104 338 75 l 397 69 q 318 5 361 29 q 242 -19 275 -19 q 160 15 185 -19 q 135 128 135 49 l 135 557 q 128 583 135 575 q 107 590 122 590 l 44 590 l 33 625 q 125 684 74 661 q 215 707 176 707 q 247 695 235 707 q 260 665 260 683 l 260 122 z "},"ј":{"ha":404,"x_min":-154,"x_max":293,"o":"m 121 914 q 151 973 121 940 q 206 1006 181 1006 q 263 974 232 1006 q 293 914 293 942 q 263 856 293 888 q 206 824 232 824 q 151 856 182 824 q 121 914 121 888 m 143 558 q 137 582 143 575 q 115 589 131 589 l 54 589 l 42 625 q 134 685 82 661 q 225 708 186 708 q 257 696 244 708 q 269 664 269 683 l 269 -74 q 206 -302 269 -218 q 18 -386 143 -386 q -106 -348 -57 -386 q -154 -244 -154 -310 q -115 -156 -154 -192 q -18 -119 -76 -119 q 8 -135 8 -119 q -3 -153 8 -139 q -22 -187 -14 -168 q -31 -235 -31 -206 q -9 -302 -31 -278 q 46 -326 13 -326 q 115 -290 88 -326 q 143 -181 143 -253 l 143 558 z "},"ћ":{"ha":822,"x_min":-36,"x_max":829,"o":"m 563 843 q 553 790 563 814 q 528 754 544 767 l 243 754 l 243 419 q 353 569 279 511 q 506 626 426 626 q 649 566 607 626 q 692 372 692 506 l 692 122 q 732 75 692 75 q 800 104 767 75 l 829 69 q 749 5 792 29 q 672 -19 707 -19 q 590 15 615 -19 q 565 128 565 49 l 565 372 q 538 483 565 446 q 446 519 510 519 q 344 470 390 519 q 270 350 297 421 q 243 222 243 279 q 253 119 243 158 q 290 43 264 79 l 307 21 l 290 0 l 46 0 l 29 43 l 60 51 q 106 78 94 57 q 118 154 118 100 l 118 754 l -36 754 q -6 843 -36 817 l 118 843 l 118 938 q 112 960 118 954 q 90 967 106 967 l 28 967 l 17 1003 q 108 1063 57 1039 q 199 1088 160 1088 q 231 1075 218 1088 q 243 1042 243 1063 l 243 843 l 563 843 z "},"ю":{"ha":1182,"x_min":63,"x_max":1119,"o":"m 467 388 q 562 622 478 538 q 789 707 646 707 q 963 663 889 707 q 1078 538 1038 619 q 1119 344 1119 456 q 1078 152 1119 235 q 963 25 1038 69 q 789 -19 888 -19 q 560 68 644 -19 q 467 307 475 156 l 297 307 l 297 160 q 304 101 297 121 q 327 70 311 81 q 375 50 343 60 l 403 42 l 389 0 l 78 0 l 63 43 l 92 53 q 156 89 140 67 q 172 169 172 111 l 172 521 q 156 602 172 579 q 92 639 140 625 l 63 649 l 78 690 l 354 690 l 371 671 l 354 649 q 310 559 322 607 q 297 433 297 511 l 297 388 l 467 388 m 976 342 q 959 474 976 407 q 901 588 942 542 q 793 635 860 635 q 658 556 706 635 q 610 343 610 476 q 655 133 610 210 q 785 56 700 56 q 883 92 839 56 q 951 192 926 128 q 976 342 976 257 z "},"я":{"ha":844,"x_min":21,"x_max":782,"o":"m 219 225 q 294 304 253 282 q 163 374 210 322 q 115 500 115 426 q 195 653 115 600 q 444 707 275 707 q 629 690 533 707 q 782 651 725 674 l 767 603 l 692 603 q 670 597 676 603 q 664 574 664 590 l 664 172 q 680 90 664 113 q 744 53 696 67 l 775 43 l 761 0 l 479 0 l 464 19 l 479 43 q 524 131 511 83 q 538 257 538 179 l 538 576 q 433 635 538 635 q 295 597 342 635 q 249 492 249 558 q 288 392 249 428 q 397 356 326 356 q 441 360 425 356 q 461 365 457 365 q 479 342 479 365 q 460 314 479 326 q 410 299 440 301 q 369 253 385 282 l 272 78 q 215 1 242 21 q 138 -19 189 -19 q 21 32 72 -19 l 42 71 q 93 53 65 53 q 119 61 108 53 q 142 90 129 69 l 219 225 z "},"ђ":{"ha":838,"x_min":0,"x_max":803,"o":"m 599 843 q 564 754 599 781 l 281 754 l 281 479 q 389 585 317 544 q 542 626 461 626 q 729 529 656 626 q 803 208 803 432 q 768 -41 803 72 q 664 -221 733 -154 q 496 -287 594 -287 q 406 -262 438 -287 q 374 -204 374 -237 q 378 -182 374 -189 q 393 -175 383 -175 q 417 -186 399 -175 q 465 -197 435 -197 q 563 -153 518 -197 q 635 -17 608 -108 q 663 208 663 74 q 621 451 663 383 q 497 519 579 519 q 392 492 442 519 q 311 417 342 464 q 281 319 281 371 l 281 222 q 290 117 281 157 q 326 43 300 78 l 343 21 l 326 0 l 82 0 l 65 43 l 96 51 q 143 78 132 57 q 154 154 154 100 l 154 754 l 0 754 q 32 843 0 815 l 154 843 l 154 938 q 149 960 154 954 q 128 967 143 967 l 64 967 l 54 1003 q 146 1063 94 1039 q 235 1088 197 1088 q 268 1075 256 1088 q 281 1042 281 1063 l 281 843 l 599 843 z "},"ѣ":{"ha":835,"x_min":3,"x_max":807,"o":"m 514 424 q 674 396 608 424 q 774 322 740 368 q 807 219 807 275 q 731 57 807 114 q 485 0 654 0 l 128 0 l 113 43 l 142 53 q 206 90 189 67 q 222 169 222 113 l 222 574 q 214 603 222 596 q 179 610 206 610 l 164 610 q 94 593 117 610 q 54 525 72 576 l 46 497 l 3 511 l 3 708 l 25 726 l 46 708 q 163 683 79 683 l 222 683 l 222 938 q 217 960 222 954 q 196 967 211 967 l 136 967 l 122 1003 q 215 1063 163 1039 q 307 1088 267 1088 q 339 1075 326 1088 q 351 1042 351 1063 l 350 683 l 411 683 q 503 689 469 683 q 557 708 538 694 l 578 726 l 600 708 l 600 511 l 557 497 l 549 525 q 508 594 535 578 q 411 610 481 610 l 393 610 q 358 603 367 610 q 350 574 350 596 l 349 238 q 389 106 349 143 q 507 68 429 68 q 619 108 578 68 q 661 210 661 147 q 490 361 661 361 q 426 354 450 361 q 397 347 403 347 q 385 356 390 347 q 381 375 381 364 q 417 411 381 399 q 514 424 454 424 z "},"ѫ":{"ha":1121,"x_min":21,"x_max":1100,"o":"m 622 160 q 631 80 622 100 q 669 50 640 60 l 694 42 l 679 0 l 432 0 l 415 43 l 444 53 q 486 89 475 67 q 497 169 497 111 l 497 325 l 290 585 q 242 642 258 626 q 190 676 226 657 l 203 690 l 906 690 l 917 676 l 903 658 q 857 618 879 642 q 803 556 835 594 l 622 332 l 622 160 m 571 365 l 738 574 q 749 597 749 589 q 726 613 749 613 l 422 613 q 405 608 411 613 q 399 594 399 603 q 406 576 399 585 l 571 365 m 443 346 q 438 328 443 335 q 418 313 432 322 q 386 288 400 301 q 361 249 372 274 l 308 146 q 229 16 264 51 q 138 -19 194 -19 q 21 32 76 -19 l 42 71 q 92 53 65 53 q 117 62 107 53 q 140 90 128 71 l 233 265 q 302 347 265 325 q 411 368 339 368 l 418 368 q 443 346 443 368 m 1100 32 q 982 -19 1049 -19 q 915 -3 942 -19 q 866 47 889 13 q 811 146 843 81 l 758 249 q 734 287 747 274 q 701 313 721 300 q 681 328 688 322 q 675 346 675 335 q 700 368 675 368 l 708 368 q 814 346 774 368 q 886 265 854 324 l 979 90 q 1003 61 993 69 q 1028 53 1013 53 q 1078 71 1054 53 l 1100 32 z "},"ѳ":{"ha":803,"x_min":63,"x_max":740,"o":"m 401 708 q 581 664 504 708 q 699 538 657 619 q 740 344 740 456 q 699 152 740 235 q 581 25 657 69 q 401 -19 504 -19 q 222 25 299 -19 q 103 152 144 69 q 63 344 63 235 q 103 538 63 456 q 222 664 144 619 q 401 708 299 708 m 406 636 q 267 561 321 636 q 207 364 213 486 q 273 399 246 388 q 325 411 300 411 q 369 405 350 411 q 414 385 388 399 q 438 374 417 383 q 478 365 458 365 q 523 372 499 365 q 592 396 547 379 q 535 565 581 494 q 406 636 490 636 m 397 56 q 497 90 453 56 q 567 186 542 124 q 594 331 593 249 q 472 275 522 275 q 428 281 446 275 q 386 300 410 288 q 351 316 365 311 q 317 321 336 321 q 210 293 269 321 q 269 119 219 183 q 397 56 318 56 z "},"ѵ":{"ha":765,"x_min":0,"x_max":793,"o":"m 668 706 q 758 674 724 706 q 793 592 793 643 q 775 539 793 560 q 729 518 757 518 q 704 526 711 518 q 694 554 697 535 q 647 608 690 608 q 590 576 613 608 q 550 475 567 544 l 428 0 l 304 0 q 228 251 269 140 q 131 493 186 363 l 103 557 q 88 584 93 578 q 72 590 83 590 l 13 590 l 0 625 q 86 683 36 660 q 175 707 136 707 q 201 697 192 707 q 219 665 210 688 q 397 132 332 403 l 476 499 q 668 706 521 706 z "},"ғ":{"ha":642,"x_min":26,"x_max":607,"o":"m 607 708 l 607 481 l 565 467 l 556 496 q 528 568 543 544 q 489 601 514 592 q 417 610 464 610 l 342 610 q 290 602 307 610 q 267 574 274 594 q 260 514 260 554 l 260 385 l 449 385 q 421 307 449 329 l 260 307 l 260 169 q 276 89 260 111 q 342 53 292 67 l 371 43 l 356 0 l 78 0 l 63 21 l 78 43 q 124 128 111 88 q 136 244 136 168 l 136 307 l 26 307 q 54 385 26 364 l 136 385 l 136 425 q 123 551 136 503 q 78 639 110 599 l 63 664 l 78 683 l 418 683 q 511 689 476 683 q 565 708 546 694 l 586 726 l 607 708 z "},"ҕ":{"ha":703,"x_min":63,"x_max":668,"o":"m 414 400 q 601 322 533 400 q 668 89 668 243 q 640 -88 668 -1 q 553 -231 613 -175 q 401 -287 493 -287 q 315 -267 346 -287 q 285 -214 285 -247 q 289 -192 285 -199 q 304 -186 293 -186 q 328 -197 310 -186 q 378 -208 347 -208 q 506 -132 474 -208 q 538 89 538 -56 q 500 270 538 213 q 375 328 463 328 q 261 307 328 328 l 261 169 q 268 83 261 108 q 290 53 275 57 l 319 43 l 304 0 l 78 0 l 63 21 l 78 43 q 122 131 108 88 q 136 244 136 175 l 136 425 q 123 551 136 503 q 78 639 110 599 l 63 664 l 78 683 l 415 683 q 508 689 474 683 q 561 708 542 694 l 583 726 l 604 708 l 604 511 l 561 497 l 551 525 q 526 578 540 561 q 486 603 511 596 q 414 610 461 610 l 343 610 q 291 602 308 610 q 267 575 274 594 q 261 514 261 556 l 261 374 q 414 400 349 400 z "},"җ":{"ha":1121,"x_min":21,"x_max":1108,"o":"m 463 346 q 456 328 463 335 q 431 313 449 322 q 391 288 408 301 q 361 249 374 274 l 308 146 q 229 16 264 51 q 138 -19 194 -19 q 21 32 76 -19 l 42 71 q 92 53 65 53 q 117 62 107 53 q 140 90 128 71 l 233 265 q 322 349 263 319 l 174 569 q 129 617 153 601 q 75 639 106 632 l 46 647 l 60 690 l 285 690 l 308 669 l 297 647 q 289 624 296 642 q 282 590 282 606 q 286 556 282 571 q 307 519 290 542 l 411 368 l 438 368 q 463 346 463 368 m 622 160 q 632 81 622 101 q 675 50 642 60 l 700 42 l 686 0 l 403 0 l 386 43 l 414 53 q 481 89 464 67 q 497 169 497 111 l 497 521 q 481 602 497 579 q 414 639 464 625 l 386 649 l 403 690 l 679 690 l 696 671 l 679 649 q 635 558 647 606 q 622 433 622 511 l 622 160 m 1088 56 q 1108 54 1094 54 l 1108 -233 l 1063 -250 l 1057 -219 q 1013 -84 1040 -133 q 942 -14 986 -35 q 924 -8 931 -11 q 864 0 899 0 l 858 0 l 858 58 q 811 146 846 76 l 758 249 q 728 288 746 274 q 689 313 711 301 q 664 328 671 322 q 657 346 657 335 q 682 368 657 368 l 708 368 l 813 519 q 833 557 828 542 q 839 590 839 572 q 832 624 839 606 q 824 647 825 642 l 811 669 l 833 690 l 1060 690 l 1076 647 l 1046 639 q 946 569 981 624 l 800 349 q 886 265 857 319 l 956 135 l 982 135 q 1058 58 982 75 q 1078 71 1068 64 l 1088 56 z "},"ҙ":{"ha":644,"x_min":26,"x_max":590,"o":"m 590 189 q 531 58 590 115 q 363 -15 472 0 l 363 -210 l 318 -225 l 310 -196 q 266 -69 288 -108 q 215 -12 244 -29 q 79 45 132 1 q 26 154 26 89 q 56 226 26 197 q 129 254 85 254 q 160 239 160 254 q 153 212 160 233 q 146 160 146 190 q 185 83 146 110 q 293 56 225 56 q 415 90 374 56 q 456 200 456 125 q 406 297 456 263 q 272 335 357 332 l 258 335 q 228 360 228 335 q 244 383 228 375 q 301 399 261 390 q 412 442 381 411 q 443 529 443 474 q 406 603 443 574 q 299 633 368 633 q 118 492 160 633 l 108 463 l 68 476 l 68 704 l 86 722 l 108 704 q 158 690 129 690 q 207 697 176 690 q 300 707 265 707 q 499 663 433 707 q 564 539 564 618 q 528 435 564 478 q 424 372 493 393 q 550 298 510 347 q 590 189 590 249 z "},"қ":{"ha":824,"x_min":63,"x_max":803,"o":"m 296 160 q 303 101 296 121 q 325 71 310 81 q 374 50 340 61 l 400 42 l 388 0 l 75 0 l 63 43 l 89 53 q 155 89 139 67 q 171 169 171 111 l 171 521 q 155 602 171 579 q 89 639 139 625 l 63 649 l 75 690 l 353 690 l 369 671 l 353 649 q 309 557 322 604 q 296 433 296 510 l 296 160 m 803 32 q 782 14 796 25 l 782 -233 l 736 -250 l 731 -219 q 664 -51 707 -103 q 538 0 621 0 l 532 0 l 532 79 l 514 107 l 418 267 q 391 297 407 286 q 360 314 375 307 q 339 324 344 321 q 333 340 333 326 q 357 368 333 368 l 382 368 l 507 519 q 535 599 535 554 q 525 647 535 624 l 514 669 l 536 690 l 763 690 l 778 647 l 751 639 q 697 616 721 632 q 649 569 672 600 l 475 350 q 575 265 546 315 l 683 90 l 696 71 q 753 56 717 60 q 781 71 769 61 l 803 32 z "},"ҝ":{"ha":867,"x_min":63,"x_max":846,"o":"m 296 160 q 303 101 296 121 q 326 70 310 81 q 374 50 342 60 l 401 42 l 388 0 l 76 0 l 63 43 l 90 53 q 156 89 140 67 q 172 169 172 111 l 172 521 q 156 602 172 579 q 90 639 140 625 l 63 649 l 76 690 l 353 690 l 369 671 l 353 649 q 308 558 321 606 q 296 433 296 511 l 296 160 m 846 32 q 728 -19 794 -19 q 632 11 669 -19 q 557 107 594 42 l 461 267 q 435 300 447 289 q 404 319 424 311 l 404 203 q 379 181 397 188 q 346 174 361 174 l 346 478 q 370 500 353 493 q 404 507 388 507 l 404 367 q 414 368 407 368 l 440 368 l 549 519 q 578 599 578 563 q 567 647 578 625 l 557 669 l 579 690 l 806 690 l 819 647 l 793 639 q 738 616 763 632 q 692 569 714 600 l 532 350 q 618 265 593 319 l 725 90 q 748 62 738 71 q 772 53 758 53 q 824 71 800 53 l 846 32 z "},"ҡ":{"ha":890,"x_min":3,"x_max":869,"o":"m 376 160 q 383 101 376 121 q 406 71 390 81 q 454 50 421 61 l 482 42 l 468 0 l 157 0 l 143 43 l 171 53 q 237 89 221 67 q 253 169 253 111 l 253 521 q 244 598 253 579 q 210 617 235 617 l 194 617 q 122 608 147 617 q 83 575 97 599 q 56 503 68 551 l 46 475 l 3 488 l 3 715 l 25 733 l 46 715 q 100 696 65 701 q 193 690 135 690 l 433 690 l 450 671 l 433 649 q 392 572 406 608 q 379 486 379 535 l 376 160 m 869 32 q 751 -19 818 -19 q 656 11 694 -19 q 581 107 618 42 l 485 267 q 457 301 469 290 q 421 324 444 313 q 414 340 414 326 q 419 359 414 350 q 439 368 425 368 l 464 368 l 574 519 q 601 599 601 560 q 592 647 601 624 l 581 669 l 603 690 l 829 690 l 844 647 l 817 639 q 763 616 786 632 q 715 569 739 600 l 557 350 q 642 265 615 321 l 750 90 q 773 62 764 71 q 796 53 782 53 q 847 71 824 53 l 869 32 z "},"ң":{"ha":921,"x_min":63,"x_max":882,"o":"m 764 103 q 808 66 776 78 q 882 54 839 54 l 882 -233 l 836 -250 l 831 -219 q 764 -51 807 -103 q 638 0 721 0 l 536 0 l 519 43 l 550 53 q 616 89 600 67 q 632 169 632 111 l 632 307 l 297 307 l 297 160 q 304 101 297 121 q 327 70 311 81 q 375 50 343 60 l 403 42 l 389 0 l 78 0 l 63 43 l 90 53 q 156 89 140 67 q 172 169 172 111 l 172 521 q 156 602 172 579 q 90 639 140 625 l 63 649 l 78 690 l 354 690 l 371 671 l 354 649 q 310 559 322 607 q 297 433 297 511 l 297 388 l 632 388 l 632 521 q 616 602 632 579 q 550 639 600 625 l 519 649 l 536 690 l 813 690 l 831 671 l 813 649 q 769 560 782 607 q 757 433 757 513 l 757 160 q 764 103 757 121 z "},"ԥ":{"ha":883,"x_min":63,"x_max":831,"o":"m 738 75 q 831 54 774 54 l 831 -233 l 785 -250 l 779 -219 q 713 -51 756 -103 q 586 0 669 0 l 478 0 l 460 47 l 493 56 q 547 79 529 67 q 573 116 565 92 q 581 185 581 140 l 581 507 q 574 574 581 551 q 548 605 567 596 q 493 614 529 614 l 356 614 q 299 605 318 614 q 274 574 281 596 q 267 507 267 551 l 267 185 q 274 116 267 140 q 300 79 282 92 q 356 56 318 67 l 389 47 l 371 0 l 81 0 l 63 22 l 81 47 q 128 144 115 93 q 142 279 142 194 l 142 410 q 128 547 142 496 q 81 642 115 599 l 63 669 l 81 690 l 768 690 l 786 669 l 768 642 q 720 547 733 599 q 707 410 707 496 l 707 175 q 714 111 707 133 q 738 75 721 89 z "}}}
